<!-- Generated by IcoMoon.io -->
<svg version="1.1" xmlns="http://www.w3.org/2000/svg" width="20" height="22" viewBox="0 0 20 22">
<title>home</title>
<path d="M17.286 12.179v5.893c0 0.43-0.356 0.786-0.786 0.786h-4.714v-4.714h-3.143v4.714h-4.714c-0.43 0-0.786-0.356-0.786-0.786v-5.893c0-0.025 0.012-0.049 0.012-0.074l7.059-5.819 7.059 5.819c0.012 0.025 0.012 0.049 0.012 0.074zM20.023 11.331l-0.761 0.908c-0.061 0.074-0.16 0.123-0.258 0.135h-0.037c-0.098 0-0.184-0.025-0.258-0.086l-8.496-7.084-8.496 7.084c-0.086 0.061-0.184 0.098-0.295 0.086-0.098-0.012-0.196-0.061-0.258-0.135l-0.761-0.908c-0.135-0.16-0.11-0.417 0.049-0.552l8.827-7.354c0.516-0.43 1.35-0.43 1.866 0l2.996 2.504v-2.394c0-0.221 0.172-0.393 0.393-0.393h2.357c0.221 0 0.393 0.172 0.393 0.393v5.009l2.689 2.234c0.16 0.135 0.184 0.393 0.049 0.552z"></path>
</svg>
