<svg id="Layer_1" data-name="Layer 1" xmlns="http://www.w3.org/2000/svg" viewBox="0 0 207.35 49.43"><defs><style>.cls-1{fill:#e94e1b;}.cls-2{fill:#fff;}.cls-3{fill:#f6921e;}.cls-4{fill:none;stroke:#231f20;}.cls-5{fill:#149109;}.cls-6{fill:#db761f;}</style></defs><title>skindex_logo</title><path class="cls-1" d="M61.53,62.44a7.19,7.19,0,0,1-3.12,6.23,11.51,11.51,0,0,1-6.92,2q-6.31,0-9.88-3.57L45,63.66a8.85,8.85,0,0,0,6.54,2.28q4.79,0,4.79-3.34,0-2.77-3.23-3.23l-3.27-.47q-7.18-1-7.18-7.56a7.37,7.37,0,0,1,2.81-6.15,10.31,10.31,0,0,1,6.61-2.05,12.05,12.05,0,0,1,8.74,3.15L57.5,49.6a7.82,7.82,0,0,0-5.56-1.86,4.84,4.84,0,0,0-2.9.8,3,3,0,0,0-1.3,2.62q0,2.55,3.34,3l3.19,0.46Q61.53,55.64,61.53,62.44Z" transform="translate(-41.37 -21.22)"/><path class="cls-1" d="M88.17,70.42H82L75,58.1l-3.47,4.17v8.15H66.28V43.36h5.28V55.14L81.1,43.36h6.41l-9,10.75Z" transform="translate(-41.37 -21.22)"/><path class="cls-1" d="M96.65,70.42H91.36V43.36h5.28V70.42Z" transform="translate(-41.37 -21.22)"/><path class="cls-1" d="M123.47,70.42h-4.7L108,53.83V70.42h-5.28V43.36h4.71l10.72,16.57V43.36h5.28V70.42Z" transform="translate(-41.37 -21.22)"/><path class="cls-1" d="M149.24,56.78a48.32,48.32,0,0,1-.23,5.93,8.45,8.45,0,0,1-3.17,5.74,10.41,10.41,0,0,1-6.48,2h-9.77V43.36h9.77a10.48,10.48,0,0,1,6.44,1.94A8.41,8.41,0,0,1,149,51,45.79,45.79,0,0,1,149.24,56.78Zm-5.28,0V54.42a9.3,9.3,0,0,0-.19-2.24,4.87,4.87,0,0,0-1-2.43,4.81,4.81,0,0,0-4-1.67h-4V65.71h4a4.81,4.81,0,0,0,4-1.67,6.62,6.62,0,0,0,1.06-3.5Q144,59.71,144,56.78Z" transform="translate(-41.37 -21.22)"/><path class="cls-1" d="M172.26,70.42H154.44V43.36h17.82v4.71H159.72v6.35H170.4v4.71H159.72v6.57h12.54v4.71Z" transform="translate(-41.37 -21.22)"/><path class="cls-1" d="M196.81,70.42h-6L185.53,61l-5.21,9.42h-6l8.4-13.87-7.87-13.19h6l4.71,8.74,4.75-8.74h6l-7.87,13.19Z" transform="translate(-41.37 -21.22)"/><path class="cls-1" d="M46.17,25.92V36.87H44.87V25.92h-3.5V24.77h8.3v1.16h-3.5Z" transform="translate(-41.37 -21.22)"/><path class="cls-1" d="M58.88,36.87V31.35H53.14v5.53H51.84V24.77h1.29v5.42h5.75V24.77h1.29v12.1H58.88Z" transform="translate(-41.37 -21.22)"/><path class="cls-1" d="M63.59,36.87V24.77H71.1v1.16H64.88v4.27h5.3v1.16h-5.3v4.37H71.1v1.16H63.59Z" transform="translate(-41.37 -21.22)"/><ellipse class="cls-2" cx="213.01" cy="58.42" rx="5.89" ry="7.18" transform="translate(-8.06 165.63) rotate(-50.89)"/><path class="cls-3" d="M232.55,56.59l12.51-1.42L248.2,51s0.58-22.63-20.3-18.89c0,0-2.5-9.06-11.22-10.92l-2.8,3.29s6.7,5,5.46,9.2c0,0-23.22,1.56-15.74,24.31,5.23,15.92,31.17,11.69,31.17,11.69l-0.1-8.38a5.32,5.32,0,0,1-3.86,2.06c-3.93.38-5.7-4.46-5.7-4.46l3.59-1.25c1.52,6.56,3.26,1.17,3.86-1.09M213.2,63.51c-6.36-.61-5.57-9.07-5.57-9.07l3.6,1.4s2.2,10.05,4.07,2l3.59,1.25S217.13,63.89,213.2,63.51Z" transform="translate(-41.37 -21.22)"/><path class="cls-4" d="M225.11,58.93" transform="translate(-41.37 -21.22)"/><path class="cls-3" d="M221.16,33.7l8-1.56s18.34-4.29,19.49,18.67c0.74,14.9-12,18.53-14.2,18.94a48.23,48.23,0,0,1-14.77-.13" transform="translate(-41.37 -21.22)"/><path class="cls-2" d="M225.11,58.93l3.59-1.25s1.52,7.71,3.86-1.09l6.29-.71S231,70.67,225.11,58.93Z" transform="translate(-41.37 -21.22)"/><path class="cls-5" d="M232.55,56.59c-0.45,1.64-1.21,4-2.06,4.19s-1.42-1.24-1.8-3.1" transform="translate(-41.37 -21.22)"/><path class="cls-5" d="M211.24,55.88c0.39,1.5,1.12,4.71,2.32,5.06,0.75,0.22,1.36-1.24,1.74-3.13" transform="translate(-41.37 -21.22)"/><path class="cls-6" d="M240.18,33.69s8.08,3.53,8.49,16.85c0,0,1.23,10.93-7.61,16.4a18.16,18.16,0,0,1-7.5,2.93s6.92-3.53,9-13.18C244.92,45.32,240.18,33.69,240.18,33.69Z" transform="translate(-41.37 -21.22)"/></svg>