<svg id="svg" version="1.1" xmlns="http://www.w3.org/2000/svg" xmlns:xlink="http://www.w3.org/1999/xlink" width="400" height="400" viewBox="0, 0, 400,400"><g id="svgg"><path id="path0" d="M88.373 5.959 C 83.905 6.392,80.207 7.379,76.954 9.007 C 74.192 10.388,68.051 14.546,68.051 15.035 C 68.051 15.301,65.005 19.378,63.765 20.772 C 63.377 21.207,62.076 23.165,60.873 25.124 C 59.670 27.082,58.123 29.575,57.436 30.663 C 56.748 31.751,55.015 35.045,53.585 37.982 C 52.154 40.920,50.289 44.748,49.440 46.489 C 47.716 50.027,45.277 56.144,43.920 60.336 C 43.427 61.860,42.678 63.881,42.255 64.829 C 40.550 68.646,37.336 82.829,35.786 93.373 C 35.450 95.658,35.007 98.595,34.801 99.901 C 33.699 106.903,34.014 140.905,35.219 145.005 C 35.411 145.658,35.716 147.557,35.896 149.226 L 36.224 152.261 34.583 152.507 C 27.611 153.553,24.671 161.494,27.526 171.573 C 27.725 172.276,27.563 172.469,26.591 172.682 C 18.372 174.487,19.863 186.506,29.156 193.365 L 31.607 195.174 29.982 198.180 C 29.089 199.834,28.128 201.460,27.846 201.793 C 27.113 202.659,24.715 208.016,22.907 212.822 C 22.055 215.087,21.199 217.134,21.005 217.372 C 19.866 218.765,16.735 231.525,15.051 241.641 C 14.626 244.199,14.085 246.914,13.850 247.676 C 13.615 248.437,13.261 250.663,13.064 252.621 C 12.867 254.580,12.329 258.675,11.867 261.721 C 10.810 268.698,10.351 273.185,10.315 276.901 L 10.287 279.815 7.563 282.475 C -0.709 290.552,-2.316 307.180,4.304 316.182 C 6.155 318.699,9.289 320.708,14.135 322.486 C 18.540 324.102,18.648 324.169,18.390 325.178 C 15.900 334.930,16.986 342.067,21.838 347.820 C 24.990 351.559,27.794 352.413,38.576 352.917 C 47.055 353.314,49.435 353.785,51.193 355.415 C 52.550 356.673,65.208 364.051,68.741 365.644 C 70.211 366.307,73.551 367.836,76.162 369.042 C 85.443 373.328,99.260 378.036,111.375 381.040 C 115.727 382.119,120.178 383.264,121.266 383.583 C 128.374 385.670,145.916 388.367,168.744 390.883 C 186.228 392.811,220.078 392.515,235.608 390.300 C 236.479 390.176,241.108 389.627,245.895 389.081 C 255.275 388.011,270.839 385.496,275.964 384.223 C 277.705 383.790,282.334 382.639,286.251 381.664 C 294.763 379.545,302.637 377.263,304.834 376.279 C 305.711 375.886,306.874 375.439,307.418 375.285 C 310.219 374.496,319.883 370.858,322.651 369.550 C 324.392 368.728,327.685 367.206,329.970 366.167 C 332.255 365.128,335.549 363.441,337.290 362.417 C 346.508 356.999,348.416 355.832,348.986 355.264 C 350.531 353.726,352.859 353.278,361.189 352.917 C 374.110 352.356,377.425 350.814,380.460 343.951 C 381.022 342.681,381.775 341.019,382.135 340.257 C 383.203 337.996,383.052 330.113,381.877 326.842 C 380.969 324.312,381.071 323.681,382.394 323.640 C 385.519 323.544,393.258 319.156,395.520 316.197 C 399.830 310.559,401.317 299.593,398.667 292.977 C 398.057 291.454,397.345 289.674,397.085 289.021 C 396.327 287.120,394.038 284.036,391.792 281.892 L 389.713 279.907 389.688 277.144 C 389.625 270.105,384.828 237.930,382.620 229.738 C 379.229 217.156,374.844 206.324,369.272 196.768 L 368.310 195.118 370.011 193.945 C 379.883 187.130,381.853 176.363,373.857 172.923 C 372.270 172.240,371.902 171.915,372.120 171.389 C 374.147 166.491,373.242 157.529,370.467 155.022 C 369.450 154.104,365.561 152.333,364.550 152.328 C 363.773 152.325,363.739 152.193,364.037 150.312 C 366.985 131.660,365.632 94.109,361.443 78.351 C 358.584 67.593,354.688 55.461,353.521 53.680 C 353.206 53.199,352.681 52.049,352.354 51.123 C 351.452 48.566,347.338 39.447,346.782 38.773 C 346.513 38.447,345.563 36.667,344.671 34.817 C 343.780 32.967,342.733 30.920,342.345 30.267 C 340.792 27.650,339.694 25.905,339.485 25.717 C 339.016 25.298,337.092 22.592,337.092 22.352 C 337.092 21.266,331.525 14.705,328.783 12.561 C 317.321 3.596,297.023 3.312,275.221 11.811 C 270.387 13.696,257.094 21.105,255.984 22.533 C 255.875 22.673,255.163 23.215,254.402 23.736 C 247.888 28.198,239.229 36.878,234.421 43.764 C 229.909 50.227,220.805 64.192,220.198 65.581 C 219.032 68.250,220.122 68.111,199.796 68.183 L 181.157 68.249 180.035 65.912 C 179.418 64.626,178.094 62.401,177.094 60.966 C 176.094 59.532,173.372 55.509,171.046 52.028 C 164.790 42.666,164.292 41.979,160.692 37.754 C 145.394 19.802,122.862 7.918,100.702 6.117 C 93.033 5.494,93.155 5.495,88.373 5.959 M108.605 15.827 C 125.892 19.505,144.582 31.397,156.318 46.184 C 158.923 49.466,171.711 68.508,171.711 69.105 C 171.711 69.300,171.174 69.663,170.517 69.911 C 167.781 70.944,167.668 75.265,170.337 76.812 C 171.407 77.431,172.303 77.461,180.218 77.140 C 191.307 76.690,208.613 76.688,219.764 77.135 C 230.531 77.567,231.454 77.263,231.454 73.275 C 231.454 71.662,229.991 69.634,228.828 69.634 C 227.697 69.634,228.463 68.203,234.172 59.652 C 248.507 38.185,258.282 29.209,276.458 20.825 C 293.001 13.194,314.439 12.372,323.612 19.016 C 330.921 24.311,345.136 52.338,351.114 73.244 C 357.322 94.952,359.213 129.695,355.306 150.273 C 354.719 153.364,356.248 156.281,358.456 156.281 C 358.794 156.281,359.422 157.038,359.852 157.962 C 360.455 159.261,361.083 159.869,362.611 160.633 C 365.596 162.125,365.642 166.678,362.711 170.497 C 359.858 174.217,359.644 174.607,359.644 176.100 C 359.644 179.173,361.970 180.259,368.843 180.394 C 373.233 180.480,366.605 186.403,357.415 190.606 C 354.272 192.043,355.339 197.824,358.747 197.824 C 359.955 197.824,365.126 206.889,368.371 214.694 C 372.880 225.536,373.861 229.157,376.985 246.489 C 380.325 265.020,380.890 269.555,380.969 278.450 C 381.019 284.097,381.416 285.095,384.434 287.161 C 391.759 292.175,393.653 299.999,389.646 308.691 C 387.983 312.299,386.837 313.002,377.504 316.140 C 372.337 317.878,370.903 319.933,372.108 323.877 C 374.378 331.306,374.707 334.713,373.490 338.190 C 371.598 343.598,370.457 344.041,354.989 345.380 C 348.889 345.909,345.815 346.904,341.471 349.756 C 300.649 376.561,224.480 389.280,155.687 380.779 C 116.527 375.939,81.833 364.861,58.294 349.681 C 53.957 346.883,51.002 345.949,44.708 345.383 C 30.280 344.087,29.077 343.701,27.090 339.729 C 25.329 336.209,25.253 333.413,26.773 327.992 C 29.309 318.943,29.044 318.519,18.466 314.692 C 12.396 312.495,11.602 311.886,9.921 308.134 C 9.208 306.544,8.354 304.636,8.023 303.894 C 5.783 298.879,8.548 293.231,16.963 285.639 C 18.850 283.936,18.839 284.006,19.365 269.832 C 19.745 259.597,19.988 257.826,22.328 248.269 C 22.648 246.963,23.530 242.690,24.289 238.773 C 27.557 221.899,37.166 198.847,41.388 197.753 C 45.362 196.724,45.308 189.911,41.326 189.911 C 39.615 189.911,32.322 185.238,30.886 183.221 C 29.133 180.759,30.384 180.020,36.299 180.020 C 38.201 180.020,40.356 177.880,40.356 175.993 C 40.356 174.578,39.811 173.584,37.770 171.277 C 35.975 169.248,35.144 166.808,35.289 163.992 L 35.410 161.647 37.587 160.435 C 39.224 159.523,39.868 158.900,40.189 157.917 C 40.501 156.961,41.039 156.421,42.197 155.903 C 44.715 154.775,44.949 153.751,44.172 147.260 C 39.289 106.510,44.535 75.581,62.406 39.763 C 71.506 21.523,75.578 17.307,86.281 15.042 C 89.491 14.363,104.145 14.878,108.605 15.827 M94.650 53.957 C 80.930 59.183,72.226 75.475,68.834 102.275 C 68.142 107.747,68.286 122.777,69.064 126.197 C 70.518 132.588,72.872 134.261,80.683 134.453 C 101.297 134.961,124.724 120.851,134.522 102.025 C 140.632 90.287,136.382 76.601,122.266 62.564 C 114.102 54.446,102.696 50.891,94.650 53.957 M292.384 53.638 C 278.335 57.315,262.727 76.668,262.596 90.574 C 262.430 108.210,286.341 130.055,310.064 133.939 C 328.240 136.916,331.809 133.280,331.441 112.166 C 330.765 73.418,313.821 48.028,292.384 53.638 M105.485 61.873 C 115.273 64.480,129.748 81.643,129.768 90.666 C 129.778 95.223,124.149 104.199,116.991 111.043 C 104.400 123.080,80.435 130.622,77.236 123.555 C 76.389 121.684,76.307 108.775,77.106 102.868 C 81.042 73.737,91.781 58.224,105.485 61.873 M302.966 62.105 C 313.759 67.004,320.737 82.603,323.280 107.512 C 324.786 122.260,323.332 126.039,316.177 125.977 C 299.753 125.835,281.093 113.409,271.905 96.496 C 269.034 91.212,269.172 89.191,272.853 82.609 C 281.677 66.829,294.356 58.197,302.966 62.105 M104.256 226.554 C 88.543 230.352,79.851 248.113,86.622 262.584 C 98.203 287.332,134.977 280.408,136.383 253.215 C 137.277 235.910,121.098 222.483,104.256 226.554 M283.016 226.677 C 261.158 232.606,256.291 261.170,275.019 273.619 C 292.282 285.096,315.402 272.755,315.470 252.028 C 315.525 235.022,299.217 222.283,283.016 226.677 M198.369 266.633 C 197.692 267.045,195.289 269.009,193.030 270.996 C 183.330 279.528,170.842 280.975,161.521 274.646 C 158.644 272.691,157.792 272.612,156.250 274.154 C 153.194 277.210,155.807 281.700,162.139 284.273 C 173.628 288.941,187.407 286.745,196.701 278.765 C 200.356 275.628,199.580 275.615,203.347 278.870 C 211.908 286.268,224.714 288.682,235.856 285.000 C 243.575 282.449,247.077 277.423,243.416 274.152 C 241.757 272.669,241.551 272.688,238.600 274.595 C 229.046 280.770,216.532 279.551,207.570 271.571 C 201.301 265.989,200.307 265.455,198.369 266.633 " stroke="none" fill="#603a2e" fill-rule="evenodd"></path><path id="path1" d="M87.876 15.075 C 78.289 16.534,72.997 20.701,67.020 31.498 C 47.040 67.591,39.659 102.634,43.904 141.246 C 45.321 154.130,45.303 153.565,44.343 154.776 C 43.878 155.363,42.880 156.066,42.125 156.339 C 41.273 156.647,40.752 157.097,40.752 157.525 C 40.752 158.581,39.131 160.233,37.173 161.172 L 35.410 162.018 35.506 164.499 C 35.615 167.351,36.425 169.195,38.746 171.877 C 42.762 176.518,40.817 180.038,33.927 180.600 C 30.085 180.913,29.950 181.056,31.432 183.238 C 32.868 185.351,37.365 188.133,42.282 189.949 C 46.033 191.335,45.856 196.697,42.021 197.846 C 37.540 199.189,28.097 221.122,24.911 237.587 C 24.448 239.980,23.293 245.143,22.346 249.060 C 19.820 259.499,19.720 260.303,19.431 272.404 C 19.128 285.081,19.182 284.862,15.749 287.144 C 8.288 292.102,6.232 299.994,10.299 308.063 C 12.402 312.236,12.547 312.337,20.255 314.962 C 29.031 317.951,29.555 318.928,27.118 327.763 C 25.228 334.615,26.432 341.170,29.881 342.807 C 31.250 343.457,37.045 344.285,45.197 344.997 C 51.159 345.518,53.368 346.355,61.253 351.085 C 134.052 394.745,272.375 393.615,342.372 348.787 C 345.758 346.619,349.556 345.464,354.870 344.988 C 369.688 343.660,370.606 343.367,372.529 339.354 C 374.360 335.534,374.352 333.278,372.481 326.897 C 370.224 319.196,371.061 317.806,379.660 314.968 C 386.738 312.631,387.798 311.958,389.255 308.874 C 393.282 300.351,391.325 291.869,384.296 287.373 C 380.873 285.183,380.849 285.108,380.547 275.633 C 380.402 271.079,380.088 266.264,379.850 264.933 C 379.612 263.602,379.143 260.656,378.809 258.388 C 378.475 256.120,378.129 254.147,378.040 254.003 C 377.951 253.860,377.329 250.464,376.656 246.456 C 375.031 236.775,374.156 232.656,372.648 227.577 C 368.936 215.081,360.997 198.589,358.447 198.079 C 353.681 197.126,353.876 191.124,358.727 189.484 C 363.471 187.880,369.535 183.337,369.535 181.387 C 369.535 181.036,368.482 180.805,366.073 180.627 C 359.088 180.113,357.040 176.420,361.239 171.909 C 363.098 169.913,364.089 167.537,364.301 164.569 L 364.497 161.837 362.724 161.077 C 360.931 160.309,359.248 158.621,359.248 157.592 C 359.248 157.284,358.642 156.778,357.900 156.469 C 357.159 156.159,356.160 155.411,355.682 154.807 C 354.712 153.584,354.703 154.249,355.857 142.235 C 359.172 107.707,355.070 79.462,342.680 51.508 C 328.773 20.129,323.305 14.784,305.242 14.913 C 278.096 15.107,254.938 29.140,236.676 56.465 C 228.646 68.479,228.080 69.590,229.976 69.628 C 231.761 69.664,232.358 74.736,230.762 76.300 L 229.674 77.367 199.928 77.345 C 166.934 77.320,169.282 77.511,168.148 74.772 C 167.343 72.829,168.859 69.859,171.025 69.137 C 171.492 68.982,162.125 54.578,157.454 48.269 C 141.054 26.117,110.648 11.612,87.876 15.075 M109.001 53.806 C 122.371 57.960,137.650 77.394,137.679 90.281 C 137.718 107.717,114.366 129.731,91.395 133.913 C 81.717 135.675,73.424 134.742,71.046 131.623 C 68.286 128.005,66.977 113.239,68.435 102.157 C 73.178 66.101,88.768 47.519,109.001 53.806 M303.676 53.227 C 320.320 57.504,331.924 82.840,331.945 114.946 C 331.957 132.256,329.247 135.439,315.248 134.561 C 296.643 133.394,279.387 123.319,268.077 107.023 C 258.422 93.109,260.719 80.350,275.824 63.995 C 284.147 54.983,294.673 50.914,303.676 53.227 M117.705 226.495 C 142.476 235.171,143.390 268.558,119.081 276.730 C 96.259 284.402,76.357 260.997,87.266 239.313 C 92.449 229.012,107.179 222.809,117.705 226.495 M298.203 227.072 C 317.100 234.414,321.883 257.639,307.306 271.275 C 292.696 284.942,267.797 277.154,263.712 257.640 C 259.474 237.397,279.377 219.757,298.203 227.072 M202.648 266.963 C 203.420 267.562,205.633 269.451,207.565 271.163 C 214.554 277.352,222.796 279.564,231.352 277.546 C 233.969 276.929,234.428 276.721,237.645 274.690 C 242.175 271.830,245.014 272.698,245.014 276.944 C 245.014 280.024,243.297 281.961,238.635 284.142 C 226.926 289.620,211.824 287.251,202.372 278.453 L 200.042 276.284 196.869 279.025 C 191.648 283.537,185.789 286.004,178.239 286.868 C 164.872 288.400,151.494 281.225,155.491 274.669 C 157.001 272.192,158.476 272.215,162.330 274.774 C 171.253 280.698,183.326 279.159,192.658 270.907 C 199.017 265.284,199.987 264.902,202.648 266.963 " stroke="none" fill="#ebebeb" fill-rule="evenodd"></path><path id="path2" d="M151.533 41.271 C 151.533 41.339,152.112 41.918,152.819 42.557 L 154.105 43.719 152.943 42.433 C 151.860 41.235,151.533 40.966,151.533 41.271 M83.460 61.227 L 82.097 62.710 83.581 61.347 C 84.962 60.078,85.246 59.743,84.944 59.743 C 84.878 59.743,84.210 60.410,83.460 61.227 M122.239 62.216 C 123.878 63.962,124.233 64.277,124.233 63.980 C 124.233 63.916,123.388 63.070,122.354 62.100 L 120.475 60.336 122.239 62.216 M286.609 66.009 C 278.660 72.396,270.409 84.924,270.439 90.563 C 270.472 96.636,283.210 113.945,288.701 115.377 C 290.878 115.945,297.289 110.808,299.261 106.917 C 304.908 95.772,300.492 76.018,290.103 65.954 L 288.550 64.450 286.609 66.009 M110.323 66.370 C 95.918 81.529,95.310 106.942,109.172 114.487 L 111.255 115.621 112.502 114.709 C 121.349 108.241,130.239 95.238,129.659 89.614 C 129.183 85.005,121.906 73.873,115.443 67.869 C 111.685 64.378,112.101 64.500,110.323 66.370 M198.330 77.047 C 199.371 77.129,200.973 77.128,201.891 77.045 C 202.810 76.962,201.958 76.895,200.000 76.896 C 198.042 76.897,197.290 76.965,198.330 77.047 M216.123 77.424 C 216.503 77.524,217.127 77.524,217.507 77.424 C 217.888 77.325,217.577 77.243,216.815 77.243 C 216.053 77.243,215.742 77.325,216.123 77.424 M356.586 109.594 C 356.586 110.574,356.664 110.974,356.758 110.485 C 356.852 109.995,356.852 109.194,356.758 108.704 C 356.664 108.215,356.586 108.615,356.586 109.594 M42.830 114.540 C 42.834 115.410,42.915 115.720,43.010 115.228 C 43.104 114.736,43.101 114.024,43.002 113.645 C 42.903 113.267,42.825 113.670,42.830 114.540 M275.569 116.320 C 276.640 117.409,277.606 118.299,277.715 118.299 C 277.824 118.299,277.036 117.409,275.964 116.320 C 274.893 115.232,273.927 114.342,273.818 114.342 C 273.709 114.342,274.497 115.232,275.569 116.320 M331.683 118.892 C 331.685 120.415,331.756 120.990,331.842 120.169 C 331.927 119.348,331.926 118.102,331.838 117.400 C 331.751 116.697,331.681 117.369,331.683 118.892 M42.822 125.816 C 42.822 126.578,42.903 126.889,43.003 126.508 C 43.102 126.128,43.102 125.504,43.003 125.124 C 42.903 124.743,42.822 125.054,42.822 125.816 M356.592 131.157 C 356.595 132.245,356.672 132.643,356.763 132.042 C 356.854 131.441,356.851 130.550,356.757 130.064 C 356.663 129.577,356.589 130.069,356.592 131.157 M31.558 180.695 C 32.050 180.790,32.762 180.786,33.140 180.687 C 33.518 180.588,33.116 180.511,32.245 180.515 C 31.375 180.520,31.065 180.601,31.558 180.695 M367.067 180.695 C 367.559 180.790,368.271 180.786,368.650 180.687 C 369.028 180.588,368.625 180.511,367.755 180.515 C 366.884 180.520,366.575 180.601,367.067 180.695 M44.800 193.867 C 44.800 194.629,44.881 194.941,44.981 194.560 C 45.080 194.179,45.080 193.556,44.981 193.175 C 44.881 192.794,44.800 193.106,44.800 193.867 M307.418 232.839 C 308.157 233.600,308.850 234.224,308.958 234.224 C 309.067 234.224,308.552 233.600,307.814 232.839 C 307.076 232.077,306.383 231.454,306.274 231.454 C 306.165 231.454,306.680 232.077,307.418 232.839 M83.977 251.830 C 83.982 252.700,84.063 253.010,84.157 252.518 C 84.252 252.025,84.248 251.313,84.149 250.935 C 84.050 250.557,83.973 250.959,83.977 251.830 M380.317 269.634 C 380.322 270.504,380.403 270.814,380.497 270.322 C 380.592 269.830,380.588 269.117,380.489 268.739 C 380.390 268.361,380.313 268.764,380.317 269.634 M128.765 270.722 L 127.201 272.404 128.882 270.840 C 130.446 269.385,130.746 269.041,130.446 269.041 C 130.382 269.041,129.625 269.797,128.765 270.722 M154.790 276.954 C 154.790 277.715,154.872 278.027,154.971 277.646 C 155.071 277.265,155.071 276.642,154.971 276.261 C 154.872 275.880,154.790 276.192,154.790 276.954 M19.083 280.910 C 19.083 281.672,19.164 281.983,19.264 281.602 C 19.363 281.222,19.363 280.598,19.264 280.218 C 19.164 279.837,19.083 280.148,19.083 280.910 M380.726 281.503 C 380.729 282.591,380.806 282.990,380.897 282.388 C 380.988 281.787,380.986 280.897,380.892 280.410 C 380.798 279.923,380.723 280.415,380.726 281.503 M173.393 287.128 C 173.991 287.219,174.970 287.219,175.569 287.128 C 176.167 287.037,175.678 286.963,174.481 286.963 C 173.284 286.963,172.794 287.037,173.393 287.128 M224.431 287.128 C 225.030 287.219,226.009 287.219,226.607 287.128 C 227.206 287.037,226.716 286.963,225.519 286.963 C 224.322 286.963,223.833 287.037,224.431 287.128 M8.026 299.308 C 8.029 300.396,8.106 300.794,8.197 300.192 C 8.288 299.591,8.285 298.701,8.191 298.214 C 8.098 297.728,8.023 298.220,8.026 299.308 M25.817 334.125 C 25.821 334.995,25.902 335.305,25.997 334.812 C 26.092 334.320,26.088 333.608,25.989 333.230 C 25.890 332.852,25.812 333.254,25.817 334.125 M47.478 345.406 C 47.804 345.614,48.591 345.787,49.225 345.790 C 50.756 345.798,50.423 345.570,48.467 345.270 C 47.389 345.105,47.074 345.148,47.478 345.406 " stroke="none" fill="#f1b7a9" fill-rule="evenodd"></path><path id="path3" d="M97.910 61.878 C 86.253 65.530,77.546 86.146,76.503 112.562 C 76.052 123.991,76.983 125.816,83.270 125.816 C 91.416 125.816,99.626 123.039,108.884 117.153 L 111.252 115.647 109.051 114.405 C 99.108 108.793,96.354 95.805,101.874 80.556 C 104.118 74.358,107.845 68.242,110.911 65.728 C 113.487 63.615,102.628 60.400,97.910 61.878 M294.663 61.918 C 292.794 62.391,289.502 63.760,288.868 64.329 C 288.784 64.405,289.720 65.551,290.947 66.877 C 305.279 82.357,305.428 107.564,291.229 114.659 L 288.800 115.873 291.284 117.332 C 302.179 123.731,308.445 125.816,316.778 125.816 C 322.932 125.816,323.455 124.724,323.120 112.562 C 322.222 79.997,309.900 58.067,294.663 61.918 " stroke="none" fill="#fc947c" fill-rule="evenodd"></path><path id="path4" d="M98.220 14.922 C 98.818 15.013,99.797 15.013,100.396 14.922 C 100.994 14.832,100.504 14.758,99.308 14.758 C 98.111 14.758,97.621 14.832,98.220 14.922 M299.610 14.923 C 300.211 15.014,301.101 15.011,301.588 14.917 C 302.075 14.824,301.583 14.749,300.495 14.752 C 299.407 14.755,299.008 14.832,299.610 14.923 M321.662 18.224 C 322.859 18.882,324.728 20.259,325.816 21.283 L 327.794 23.145 326.014 21.230 C 324.368 19.459,320.805 17.016,319.881 17.024 C 319.664 17.026,320.465 17.566,321.662 18.224 M281.108 18.807 C 280.118 19.284,280.086 19.339,280.910 19.137 C 282.031 18.863,283.291 18.221,282.690 18.230 C 282.473 18.233,281.761 18.493,281.108 18.807 M278.140 19.980 C 277.596 20.291,277.329 20.546,277.547 20.546 C 277.765 20.546,278.388 20.291,278.932 19.980 C 279.476 19.669,279.743 19.415,279.525 19.415 C 279.308 19.415,278.684 19.669,278.140 19.980 M121.860 20.376 C 122.404 20.687,123.027 20.941,123.244 20.941 C 123.462 20.941,123.195 20.687,122.651 20.376 C 122.107 20.065,121.484 19.810,121.266 19.810 C 121.048 19.810,121.316 20.065,121.860 20.376 M72.576 22.651 L 71.414 23.937 72.700 22.775 C 73.899 21.691,74.168 21.365,73.862 21.365 C 73.794 21.365,73.216 21.944,72.576 22.651 M66.667 31.256 C 66.329 31.909,66.142 32.443,66.251 32.443 C 66.360 32.443,66.725 31.909,67.062 31.256 C 67.400 30.603,67.587 30.069,67.478 30.069 C 67.369 30.069,67.004 30.603,66.667 31.256 M335.905 37.191 C 336.780 38.932,337.585 40.356,337.694 40.356 C 337.803 40.356,337.176 38.932,336.301 37.191 C 335.425 35.450,334.620 34.026,334.511 34.026 C 334.403 34.026,335.030 35.450,335.905 37.191 M249.844 39.268 L 245.895 43.323 249.951 39.374 C 252.181 37.202,254.006 35.377,254.006 35.319 C 254.006 35.033,253.512 35.501,249.844 39.268 M149.753 39.169 C 151.483 40.910,152.988 42.334,153.097 42.334 C 153.206 42.334,151.879 40.910,150.148 39.169 C 148.418 37.428,146.913 36.004,146.804 36.004 C 146.695 36.004,148.022 37.428,149.753 39.169 M244.668 44.807 C 242.935 46.806,242.420 47.478,242.621 47.478 C 242.737 47.478,243.489 46.677,244.291 45.697 C 245.778 43.884,246.072 43.188,244.668 44.807 M58.429 47.694 C 57.500 49.643,57.630 49.975,58.602 48.133 C 59.043 47.296,59.334 46.542,59.249 46.456 C 59.163 46.371,58.794 46.928,58.429 47.694 M157.864 48.665 C 158.328 49.318,158.798 49.852,158.907 49.852 C 159.015 49.852,158.724 49.318,158.259 48.665 C 157.794 48.012,157.325 47.478,157.216 47.478 C 157.107 47.478,157.399 48.012,157.864 48.665 M341.477 48.467 C 341.477 48.684,341.818 49.486,342.235 50.247 C 342.652 51.009,342.994 51.454,342.994 51.236 C 342.994 51.019,342.652 50.218,342.235 49.456 C 341.818 48.694,341.477 48.249,341.477 48.467 M99.615 52.911 C 100.545 52.995,101.970 52.994,102.780 52.909 C 103.590 52.824,102.829 52.755,101.088 52.757 C 99.347 52.758,98.684 52.828,99.615 52.911 M297.230 52.909 C 298.046 52.995,299.382 52.995,300.198 52.909 C 301.014 52.824,300.346 52.754,298.714 52.754 C 297.082 52.754,296.414 52.824,297.230 52.909 M307.418 54.777 C 307.418 54.886,307.953 55.251,308.605 55.589 C 309.258 55.926,309.792 56.113,309.792 56.004 C 309.792 55.896,309.258 55.530,308.605 55.193 C 307.953 54.855,307.418 54.668,307.418 54.777 M315.331 60.732 C 316.513 61.929,317.569 62.908,317.678 62.908 C 317.787 62.908,316.909 61.929,315.727 60.732 C 314.545 59.535,313.489 58.556,313.380 58.556 C 313.271 58.556,314.149 59.535,315.331 60.732 M277.724 62.018 L 276.360 63.501 277.844 62.138 C 279.225 60.869,279.509 60.534,279.207 60.534 C 279.141 60.534,278.473 61.202,277.724 62.018 M230.980 64.392 C 228.862 67.616,228.600 68.051,228.784 68.051 C 228.957 68.051,229.516 67.255,231.630 63.996 C 232.019 63.398,232.250 62.908,232.146 62.908 C 232.041 62.908,231.516 63.576,230.980 64.392 M90.381 66.568 L 89.219 67.854 90.504 66.692 C 91.703 65.608,91.972 65.282,91.667 65.282 C 91.598 65.282,91.020 65.861,90.381 66.568 M116.320 68.645 C 117.502 69.842,118.559 70.821,118.667 70.821 C 118.776 70.821,117.898 69.842,116.716 68.645 C 115.534 67.448,114.478 66.469,114.369 66.469 C 114.260 66.469,115.139 67.448,116.320 68.645 M349.417 68.447 C 349.417 68.773,349.657 69.664,349.951 70.425 C 350.244 71.187,350.484 71.543,350.484 71.217 C 350.484 70.890,350.244 70.000,349.951 69.238 C 349.657 68.477,349.417 68.121,349.417 68.447 M231.554 73.393 C 231.558 74.263,231.639 74.573,231.734 74.080 C 231.828 73.588,231.825 72.876,231.726 72.498 C 231.627 72.120,231.549 72.522,231.554 73.393 M169.678 76.732 C 170.192 77.180,170.800 77.547,171.030 77.547 C 171.516 77.547,171.493 77.527,169.931 76.612 L 168.744 75.917 169.678 76.732 M188.410 77.049 C 189.869 77.125,192.362 77.125,193.949 77.050 C 195.536 76.975,194.342 76.912,191.296 76.912 C 188.249 76.911,186.951 76.973,188.410 77.049 M205.818 77.049 C 207.278 77.125,209.770 77.125,211.358 77.050 C 212.945 76.975,211.751 76.912,208.704 76.912 C 205.658 76.911,204.359 76.973,205.818 77.049 M176.373 77.443 C 177.523 77.524,179.303 77.523,180.330 77.442 C 181.356 77.360,180.415 77.295,178.239 77.296 C 176.063 77.297,175.224 77.363,176.373 77.443 M219.895 77.443 C 221.044 77.524,222.825 77.523,223.851 77.442 C 224.877 77.360,223.937 77.295,221.761 77.296 C 219.585 77.297,218.745 77.363,219.895 77.443 M271.395 85.103 C 270.940 85.994,270.636 86.791,270.719 86.874 C 270.802 86.957,271.257 86.228,271.730 85.253 C 272.809 83.034,272.517 82.903,271.395 85.103 M136.566 84.273 C 136.586 85.301,137.209 86.990,137.223 86.053 C 137.229 85.618,137.081 84.906,136.894 84.471 C 136.686 83.986,136.559 83.909,136.566 84.273 M262.406 88.625 C 262.406 89.387,262.488 89.698,262.587 89.318 C 262.687 88.937,262.687 88.314,262.587 87.933 C 262.488 87.552,262.406 87.864,262.406 88.625 M137.420 90.801 C 137.421 92.324,137.493 92.899,137.579 92.078 C 137.664 91.257,137.663 90.011,137.575 89.309 C 137.488 88.606,137.418 89.278,137.420 90.801 M269.940 90.208 C 269.940 91.187,270.017 91.588,270.111 91.098 C 270.205 90.608,270.205 89.807,270.111 89.318 C 270.017 88.828,269.940 89.228,269.940 90.208 M270.262 92.700 C 270.227 93.429,271.273 95.747,271.636 95.747 C 271.747 95.747,271.629 95.357,271.374 94.880 C 271.119 94.403,270.772 93.557,270.603 93.000 C 270.398 92.327,270.284 92.227,270.262 92.700 M136.736 95.786 C 136.591 96.693,136.550 97.512,136.644 97.607 C 136.738 97.701,136.940 97.042,137.092 96.142 C 137.244 95.243,137.285 94.424,137.184 94.322 C 137.083 94.221,136.881 94.880,136.736 95.786 M355.779 97.329 C 355.779 98.091,355.861 98.403,355.960 98.022 C 356.060 97.641,356.060 97.018,355.960 96.637 C 355.861 96.256,355.779 96.568,355.779 97.329 M356.191 100.890 C 356.191 101.869,356.268 102.270,356.362 101.780 C 356.457 101.291,356.457 100.490,356.362 100.000 C 356.268 99.510,356.191 99.911,356.191 100.890 M68.539 102.868 C 68.539 103.630,68.620 103.942,68.720 103.561 C 68.819 103.180,68.819 102.557,68.720 102.176 C 68.620 101.795,68.539 102.107,68.539 102.868 M43.217 103.660 C 43.217 104.421,43.299 104.733,43.398 104.352 C 43.498 103.971,43.498 103.348,43.398 102.967 C 43.299 102.587,43.217 102.898,43.217 103.660 M356.601 105.836 C 356.604 107.141,356.677 107.628,356.765 106.917 C 356.854 106.206,356.852 105.137,356.761 104.543 C 356.671 103.948,356.599 104.530,356.601 105.836 M68.190 108.408 C 68.190 110.257,68.258 111.014,68.341 110.089 C 68.424 109.164,68.424 107.651,68.341 106.726 C 68.258 105.801,68.190 106.558,68.190 108.408 M322.940 106.429 C 322.940 107.191,323.022 107.502,323.121 107.122 C 323.221 106.741,323.221 106.118,323.121 105.737 C 323.022 105.356,322.940 105.668,322.940 106.429 M42.857 110.781 C 42.857 112.196,42.928 112.774,43.016 112.067 C 43.104 111.360,43.104 110.203,43.016 109.496 C 42.928 108.788,42.857 109.367,42.857 110.781 M331.697 112.562 C 331.698 114.738,331.765 115.578,331.845 114.428 C 331.925 113.278,331.924 111.498,331.843 110.471 C 331.762 109.445,331.696 110.386,331.697 112.562 M323.403 114.936 C 323.403 118.200,323.464 119.482,323.539 117.786 C 323.613 116.090,323.613 113.419,323.538 111.851 C 323.463 110.284,323.402 111.672,323.403 114.936 M357.045 120.079 C 357.045 125.302,357.102 127.383,357.170 124.705 C 357.239 122.027,357.238 117.754,357.170 115.210 C 357.101 112.665,357.045 114.857,357.045 120.079 M272.997 113.353 C 273.735 114.115,274.428 114.738,274.537 114.738 C 274.646 114.738,274.131 114.115,273.393 113.353 C 272.654 112.591,271.961 111.968,271.853 111.968 C 271.744 111.968,272.259 112.591,272.997 113.353 M68.205 118.497 C 68.206 121.325,68.269 122.431,68.345 120.953 C 68.422 119.475,68.421 117.160,68.344 115.809 C 68.267 114.458,68.204 115.668,68.205 118.497 M123.628 116.419 L 121.266 118.892 123.739 116.531 C 126.036 114.337,126.393 113.947,126.100 113.947 C 126.039 113.947,124.926 115.059,123.628 116.419 M81.811 126.106 C 82.741 126.190,84.166 126.189,84.976 126.104 C 85.786 126.019,85.025 125.950,83.284 125.952 C 81.543 125.953,80.880 126.023,81.811 126.106 M315.243 126.106 C 316.173 126.190,317.598 126.189,318.408 126.104 C 319.218 126.019,318.457 125.950,316.716 125.952 C 314.975 125.953,314.312 126.023,315.243 126.106 M42.863 129.773 C 42.863 131.405,42.933 132.072,43.018 131.256 C 43.104 130.440,43.104 129.105,43.018 128.289 C 42.933 127.473,42.863 128.140,42.863 129.773 M329.575 129.717 C 329.575 129.977,328.736 131.030,327.710 132.058 C 326.685 133.086,326.280 133.641,326.810 133.292 C 328.090 132.449,330.176 129.846,329.840 129.511 C 329.694 129.364,329.575 129.457,329.575 129.717 M356.605 135.312 C 356.605 136.726,356.677 137.305,356.765 136.597 C 356.853 135.890,356.853 134.733,356.765 134.026 C 356.677 133.318,356.605 133.897,356.605 135.312 M78.437 134.804 C 79.036 134.894,80.015 134.894,80.613 134.804 C 81.212 134.713,80.722 134.639,79.525 134.639 C 78.328 134.639,77.839 134.713,78.437 134.804 M319.387 134.804 C 319.985 134.894,320.964 134.894,321.563 134.804 C 322.161 134.713,321.672 134.639,320.475 134.639 C 319.278 134.639,318.788 134.713,319.387 134.804 M43.217 137.685 C 43.217 138.447,43.299 138.759,43.398 138.378 C 43.498 137.997,43.498 137.374,43.398 136.993 C 43.299 136.612,43.217 136.924,43.217 137.685 M356.196 140.653 C 356.199 141.741,356.276 142.139,356.367 141.538 C 356.458 140.936,356.456 140.046,356.362 139.559 C 356.268 139.073,356.193 139.565,356.196 140.653 M43.613 142.433 C 43.613 143.195,43.694 143.506,43.794 143.126 C 43.894 142.745,43.894 142.122,43.794 141.741 C 43.694 141.360,43.613 141.672,43.613 142.433 M355.787 145.005 C 355.792 145.875,355.873 146.185,355.967 145.693 C 356.062 145.201,356.058 144.488,355.959 144.110 C 355.860 143.732,355.783 144.135,355.787 145.005 M44.772 151.850 C 44.687 153.583,43.726 155.371,42.704 155.696 C 42.250 155.840,41.966 156.045,42.073 156.151 C 42.996 157.075,45.235 153.742,44.993 151.805 L 44.835 150.544 44.772 151.850 M38.180 160.070 C 37.310 160.590,36.775 161.018,36.993 161.021 C 37.469 161.027,39.960 159.543,39.960 159.254 C 39.960 158.996,40.042 158.958,38.180 160.070 M363.875 161.438 C 364.135 161.772,364.413 163.107,364.492 164.405 L 364.638 166.766 364.713 164.341 C 364.771 162.442,364.637 161.799,364.095 161.374 C 363.488 160.898,363.461 160.906,363.875 161.438 M363.531 168.564 C 363.166 169.425,362.939 170.129,363.026 170.129 C 363.316 170.129,364.442 167.706,364.317 167.350 C 364.249 167.158,363.896 167.704,363.531 168.564 M361.399 171.810 L 360.237 173.096 361.523 171.934 C 362.230 171.295,362.809 170.716,362.809 170.648 C 362.809 170.342,362.483 170.611,361.399 171.810 M38.906 178.727 C 38.218 179.438,37.784 180.020,37.942 180.020 C 38.310 180.020,40.553 177.691,40.327 177.544 C 40.234 177.483,39.595 178.016,38.906 178.727 M34.125 180.303 C 34.723 180.394,35.702 180.394,36.301 180.303 C 36.899 180.213,36.409 180.138,35.213 180.138 C 34.016 180.138,33.526 180.213,34.125 180.303 M363.699 180.303 C 364.298 180.394,365.277 180.394,365.875 180.303 C 366.474 180.213,365.984 180.138,364.787 180.138 C 363.591 180.138,363.101 180.213,363.699 180.303 M361.919 188.159 C 360.440 188.961,360.530 189.296,362.018 188.526 C 362.671 188.189,363.205 187.828,363.205 187.725 C 363.205 187.470,363.162 187.485,361.919 188.159 M355.292 195.308 C 355.292 195.866,357.250 197.824,357.808 197.824 C 358.044 197.824,357.848 197.551,357.371 197.217 C 356.895 196.884,356.232 196.221,355.898 195.744 C 355.565 195.268,355.292 195.072,355.292 195.308 M365.263 208.300 C 365.736 209.274,366.191 210.004,366.274 209.921 C 366.453 209.742,364.855 206.528,364.587 206.528 C 364.485 206.528,364.789 207.325,365.263 208.300 M370.553 220.772 C 370.699 221.316,370.983 222.028,371.184 222.354 C 371.439 222.767,371.470 222.646,371.287 221.958 C 371.141 221.414,370.857 220.702,370.655 220.376 C 370.400 219.963,370.369 220.084,370.553 220.772 M108.309 225.809 C 109.233 225.892,110.747 225.892,111.672 225.809 C 112.596 225.726,111.840 225.658,109.990 225.658 C 108.140 225.658,107.384 225.726,108.309 225.809 M287.924 225.805 C 288.626 225.892,289.873 225.894,290.693 225.808 C 291.514 225.722,290.940 225.651,289.416 225.649 C 287.893 225.647,287.222 225.717,287.924 225.805 M91.970 233.136 L 90.406 234.817 92.087 233.253 C 93.651 231.799,93.950 231.454,93.651 231.454 C 93.586 231.454,92.830 232.211,91.970 233.136 M128.783 233.432 C 129.855 234.520,130.821 235.410,130.930 235.410 C 131.039 235.410,130.251 234.520,129.179 233.432 C 128.107 232.344,127.142 231.454,127.033 231.454 C 126.924 231.454,127.712 232.344,128.783 233.432 M263.241 251.830 C 263.243 253.571,263.312 254.234,263.396 253.303 C 263.480 252.373,263.478 250.948,263.393 250.138 C 263.308 249.328,263.240 250.089,263.241 251.830 M136.628 251.830 C 136.630 253.353,136.702 253.928,136.787 253.107 C 136.873 252.286,136.871 251.040,136.784 250.337 C 136.697 249.635,136.627 250.307,136.628 251.830 M197.728 266.766 C 197.215 267.255,197.072 267.458,197.409 267.217 C 197.746 266.975,198.378 266.580,198.813 266.338 C 199.248 266.097,199.392 265.894,199.132 265.887 C 198.872 265.881,198.240 266.276,197.728 266.766 M194.832 269.139 L 193.670 270.425 194.955 269.263 C 196.154 268.180,196.423 267.854,196.118 267.854 C 196.049 267.854,195.471 268.432,194.832 269.139 M307.814 270.425 C 306.853 271.405,306.156 272.206,306.265 272.206 C 306.373 272.206,307.249 271.405,308.210 270.425 C 309.171 269.446,309.868 268.645,309.759 268.645 C 309.650 268.645,308.775 269.446,307.814 270.425 M269.832 269.560 C 269.832 269.628,270.410 270.207,271.118 270.846 L 272.404 272.008 271.242 270.722 C 270.158 269.523,269.832 269.254,269.832 269.560 M238.274 274.392 C 237.134 275.160,236.202 275.880,236.202 275.994 C 236.202 276.107,236.958 275.686,237.883 275.057 C 238.808 274.428,239.921 273.713,240.356 273.467 C 240.791 273.222,240.967 273.016,240.746 273.009 C 240.526 273.002,239.413 273.625,238.274 274.392 M242.169 273.096 C 242.260 273.150,242.868 273.640,243.521 274.184 L 244.708 275.173 243.749 274.085 C 243.221 273.487,242.613 272.997,242.397 272.997 C 242.181 272.997,242.079 273.042,242.169 273.096 M380.754 276.360 C 380.752 278.318,380.819 279.170,380.902 278.251 C 380.985 277.333,380.986 275.731,380.905 274.690 C 380.823 273.650,380.755 274.402,380.754 276.360 M19.129 276.558 C 19.129 278.408,19.197 279.164,19.281 278.239 C 19.364 277.315,19.364 275.801,19.281 274.876 C 19.197 273.952,19.129 274.708,19.129 276.558 M200.198 276.286 C 200.198 276.354,200.776 276.933,201.484 277.572 L 202.770 278.734 201.607 277.448 C 200.524 276.249,200.198 275.980,200.198 276.286 M172.997 278.429 C 173.813 278.514,175.148 278.514,175.964 278.429 C 176.780 278.343,176.113 278.273,174.481 278.273 C 172.849 278.273,172.181 278.343,172.997 278.429 M196.019 279.426 L 194.857 280.712 196.142 279.550 C 197.341 278.467,197.610 278.140,197.304 278.140 C 197.236 278.140,196.658 278.719,196.019 279.426 M223.829 278.426 C 224.531 278.513,225.778 278.515,226.598 278.429 C 227.419 278.344,226.845 278.272,225.321 278.270 C 223.798 278.269,223.127 278.339,223.829 278.426 M17.443 285.413 L 16.487 286.647 17.619 285.571 C 18.242 284.979,18.672 284.424,18.574 284.337 C 18.477 284.250,17.968 284.735,17.443 285.413 M170.233 286.733 C 170.834 286.824,171.725 286.821,172.211 286.728 C 172.698 286.634,172.206 286.559,171.118 286.562 C 170.030 286.565,169.632 286.642,170.233 286.733 M176.756 286.728 C 177.245 286.823,178.046 286.823,178.536 286.728 C 179.026 286.634,178.625 286.557,177.646 286.557 C 176.667 286.557,176.266 286.634,176.756 286.728 M221.272 286.733 C 221.873 286.824,222.763 286.821,223.250 286.728 C 223.736 286.634,223.244 286.559,222.156 286.562 C 221.068 286.565,220.670 286.642,221.272 286.733 M227.794 286.728 C 228.284 286.823,229.085 286.823,229.575 286.728 C 230.064 286.634,229.664 286.557,228.684 286.557 C 227.705 286.557,227.305 286.634,227.794 286.728 M387.323 289.713 C 388.293 290.747,389.139 291.592,389.202 291.592 C 389.499 291.592,389.185 291.237,387.438 289.598 L 385.559 287.834 387.323 289.713 M7.563 300.172 C 7.523 302.298,8.081 305.055,8.460 304.605 C 8.531 304.520,8.369 302.938,8.099 301.088 L 7.609 297.725 7.563 300.172 M391.422 300.297 C 391.422 301.711,391.494 302.290,391.582 301.583 C 391.670 300.875,391.670 299.718,391.582 299.011 C 391.494 298.304,391.422 298.882,391.422 300.297 M377.646 315.727 C 377.147 315.941,377.074 316.067,377.448 316.067 C 377.774 316.067,378.398 315.914,378.833 315.727 C 379.332 315.513,379.405 315.387,379.031 315.387 C 378.704 315.387,378.081 315.540,377.646 315.727 M22.156 316.002 C 22.483 316.120,23.506 316.541,24.431 316.938 C 25.356 317.336,26.113 317.573,26.113 317.466 C 26.113 317.158,22.815 315.742,22.156 315.767 C 21.629 315.787,21.629 315.813,22.156 316.002 M28.183 322.057 C 28.183 322.819,28.264 323.131,28.364 322.750 C 28.463 322.369,28.463 321.746,28.364 321.365 C 28.264 320.984,28.183 321.296,28.183 322.057 M371.540 322.889 C 371.509 323.617,372.329 326.122,372.531 325.919 C 372.605 325.845,372.418 324.990,372.116 324.020 C 371.814 323.049,371.554 322.540,371.540 322.889 M372.184 340.460 C 371.822 341.219,371.608 341.840,371.707 341.840 C 371.978 341.840,373.179 339.417,372.998 339.236 C 372.912 339.150,372.546 339.701,372.184 340.460 M32.938 344.091 C 33.318 344.190,33.942 344.190,34.322 344.091 C 34.703 343.991,34.392 343.910,33.630 343.910 C 32.868 343.910,32.557 343.991,32.938 344.091 M365.678 344.091 C 366.058 344.190,366.682 344.190,367.062 344.091 C 367.443 343.991,367.132 343.910,366.370 343.910 C 365.608 343.910,365.297 343.991,365.678 344.091 M36.103 344.486 C 36.484 344.586,37.107 344.586,37.488 344.486 C 37.868 344.387,37.557 344.305,36.795 344.305 C 36.034 344.305,35.722 344.387,36.103 344.486 M362.512 344.486 C 362.893 344.586,363.516 344.586,363.897 344.486 C 364.278 344.387,363.966 344.305,363.205 344.305 C 362.443 344.305,362.132 344.387,362.512 344.486 M39.268 344.882 C 39.649 344.982,40.272 344.982,40.653 344.882 C 41.034 344.783,40.722 344.701,39.960 344.701 C 39.199 344.701,38.887 344.783,39.268 344.882 M358.952 344.882 C 359.332 344.982,359.955 344.982,360.336 344.882 C 360.717 344.783,360.406 344.701,359.644 344.701 C 358.882 344.701,358.571 344.783,358.952 344.882 M43.825 345.292 C 44.536 345.380,45.604 345.378,46.199 345.288 C 46.793 345.197,46.212 345.125,44.906 345.128 C 43.600 345.130,43.114 345.204,43.825 345.292 M353.610 345.291 C 354.318 345.379,355.475 345.379,356.182 345.291 C 356.889 345.203,356.311 345.132,354.896 345.132 C 353.482 345.132,352.903 345.203,353.610 345.291 M338.378 351.381 C 337.029 352.244,336.593 352.824,337.784 352.170 C 338.692 351.671,340.114 350.571,339.862 350.563 C 339.753 350.560,339.085 350.928,338.378 351.381 M326.805 357.666 C 324.738 358.732,323.184 359.613,323.351 359.624 C 323.772 359.652,330.762 356.121,330.762 355.881 C 330.762 355.612,330.967 355.520,326.805 357.666 M76.360 359.644 C 77.122 360.061,77.923 360.402,78.140 360.402 C 78.358 360.402,77.913 360.061,77.151 359.644 C 76.390 359.227,75.589 358.886,75.371 358.886 C 75.153 358.886,75.598 359.227,76.360 359.644 M90.603 365.512 C 90.930 365.714,91.642 365.998,92.186 366.143 C 92.873 366.327,92.994 366.296,92.582 366.041 C 92.255 365.839,91.543 365.555,90.999 365.410 C 90.312 365.226,90.191 365.257,90.603 365.512 M285.460 372.700 C 284.961 372.915,284.888 373.040,285.262 373.040 C 285.589 373.040,286.212 372.887,286.647 372.700 C 287.146 372.486,287.219 372.360,286.845 372.360 C 286.518 372.360,285.895 372.513,285.460 372.700 M147.280 379.699 C 147.661 379.799,148.284 379.799,148.665 379.699 C 149.045 379.600,148.734 379.518,147.972 379.518 C 147.211 379.518,146.899 379.600,147.280 379.699 M251.335 379.699 C 251.716 379.799,252.339 379.799,252.720 379.699 C 253.101 379.600,252.789 379.518,252.028 379.518 C 251.266 379.518,250.955 379.600,251.335 379.699 M150.049 380.095 C 150.430 380.194,151.053 380.194,151.434 380.095 C 151.815 379.995,151.503 379.914,150.742 379.914 C 149.980 379.914,149.669 379.995,150.049 380.095 M167.062 382.073 C 167.443 382.172,168.066 382.172,168.447 382.073 C 168.828 381.973,168.516 381.892,167.755 381.892 C 166.993 381.892,166.682 381.973,167.062 382.073 M231.553 382.073 C 231.934 382.172,232.557 382.172,232.938 382.073 C 233.318 381.973,233.007 381.892,232.245 381.892 C 231.484 381.892,231.172 381.973,231.553 382.073 M171.810 382.469 C 172.191 382.568,172.814 382.568,173.195 382.469 C 173.576 382.369,173.264 382.288,172.502 382.288 C 171.741 382.288,171.429 382.369,171.810 382.469 M226.612 382.476 C 227.104 382.570,227.816 382.567,228.195 382.468 C 228.573 382.369,228.170 382.291,227.300 382.296 C 226.429 382.300,226.120 382.381,226.612 382.476 M177.547 382.871 C 178.037 382.965,178.838 382.965,179.327 382.871 C 179.817 382.776,179.416 382.699,178.437 382.699 C 177.458 382.699,177.057 382.776,177.547 382.871 M220.677 382.871 C 221.169 382.966,221.882 382.962,222.260 382.863 C 222.638 382.764,222.235 382.687,221.365 382.691 C 220.495 382.696,220.185 382.777,220.677 382.871 M185.467 383.274 C 186.178 383.362,187.246 383.360,187.841 383.270 C 188.435 383.180,187.854 383.108,186.548 383.110 C 185.242 383.112,184.756 383.186,185.467 383.274 M211.975 383.274 C 212.687 383.362,213.755 383.360,214.349 383.270 C 214.944 383.180,214.362 383.108,213.056 383.110 C 211.751 383.112,211.264 383.186,211.975 383.274 " stroke="none" fill="#968484" fill-rule="evenodd"></path></g></svg>