<?xml version="1.0" encoding="UTF-8"?>
<!DOCTYPE svg PUBLIC "-//W3C//DTD SVG 1.1//EN" "http://www.w3.org/Graphics/SVG/1.1/DTD/svg11.dtd">
<svg xmlns="http://www.w3.org/2000/svg" version="1.1" width="1032px" height="1027px" style="shape-rendering:geometricPrecision; text-rendering:geometricPrecision; image-rendering:optimizeQuality; fill-rule:evenodd; clip-rule:evenodd" xmlns:xlink="http://www.w3.org/1999/xlink">
<g><path style="opacity:1" fill="#fadbeb" d="M 741.5,-0.5 C 746.833,-0.5 752.167,-0.5 757.5,-0.5C 800.237,-3.05786 840.903,4.44214 879.5,22C 927.044,45.2003 961.044,80.8669 981.5,129C 987.628,142.75 992.462,156.916 996,171.5C 996.16,175.287 996.826,178.954 998,182.5C 998.667,211.167 998.667,239.833 998,268.5C 989.765,309.659 974.099,347.993 951,383.5C 941.694,397.796 932.027,411.796 922,425.5C 920.527,511.814 920.027,598.147 920.5,684.5C 902.992,684.17 885.659,684.503 868.5,685.5C 605.5,684.177 342.5,684.177 79.5,685.5C 79.5,687.5 79.5,689.5 79.5,691.5C 78.5084,698.648 78.175,705.981 78.5,713.5C 78.0424,747.202 78.5424,780.869 80,814.5C 83.0612,824.89 89.5612,832.057 99.5,836C 119.805,837.116 140.138,837.616 160.5,837.5C 304.902,836.258 449.235,836.258 593.5,837.5C 585.141,850.031 574.807,860.864 562.5,870C 557.533,875.969 552.199,881.635 546.5,887C 533.445,897.393 520.445,908.06 507.5,919C 479.011,939.575 449.011,957.575 417.5,973C 390.812,984.301 363.145,992.635 334.5,998C 311.15,999.336 287.817,999.336 264.5,998C 227.757,992.504 193.091,979.504 160.5,959C 149.881,950.848 139.214,943.015 128.5,935.5C 133.432,930.969 136.265,925.303 137,918.5C 138.214,916.951 139.714,915.785 141.5,915C 152.644,913.893 157.144,908.06 155,897.5C 150.816,892.992 145.649,890.492 139.5,890C 138.213,888.59 137.046,887.09 136,885.5C 135.377,879.588 132.877,874.755 128.5,871C 117.799,870.354 111.966,875.521 111,886.5C 107.044,890.472 102.21,892.639 96.5,893C 94.9586,894.371 93.6253,895.871 92.5,897.5C 91.448,897.649 90.448,897.483 89.5,897C 87.1057,894.353 85.1057,891.52 83.5,888.5C 83.3678,885.993 82.3678,885.326 80.5,886.5C 79.8592,885.518 79.1925,884.518 78.5,883.5C 79.3256,882.549 79.4922,881.549 79,880.5C 77.6976,879.915 76.531,879.249 75.5,878.5C 70.7252,874.626 67.7252,869.626 66.5,863.5C 66.5,862.167 65.8333,861.5 64.5,861.5C 62.3084,858.45 60.6417,855.117 59.5,851.5C 59.5,850.5 59.5,849.5 59.5,848.5C 58.5,848.5 57.5,848.5 56.5,848.5C 54.5,844.833 52.5,841.167 50.5,837.5C 52.129,835.804 51.7957,834.804 49.5,834.5C 47.0855,832.66 45.4188,830.327 44.5,827.5C 46.129,825.804 45.7957,824.804 43.5,824.5C 39.6296,819.938 36.6296,814.771 34.5,809C 36.9972,806.74 36.3305,805.407 32.5,805C 35.022,803.314 34.6887,801.981 31.5,801C 31.9574,800.586 32.2907,800.086 32.5,799.5C 29.7751,797.01 27.7751,794.01 26.5,790.5C 27.6816,788.533 27.0149,787.2 24.5,786.5C 27.0774,783.808 26.4107,781.975 22.5,781C 23.1667,780.667 23.8333,780.333 24.5,780C 19.1462,770.937 15.9796,761.103 15,750.5C 14.3333,749.833 13.6667,749.167 13,748.5C 11.6583,742.607 10.1583,736.774 8.5,731C 9.45096,728.337 8.95096,725.837 7,723.5C 4.83,709.609 2.83,695.942 1,682.5C 0.333333,645.833 0.333333,609.167 1,572.5C 6.75602,529.082 19.4227,488.082 39,449.5C 45.2469,440.01 51.2469,430.344 57,420.5C 63.2278,410.934 70.2278,401.934 78,393.5C 77.851,361.279 78.6844,329.279 80.5,297.5C 80.8333,297.5 81.1667,297.5 81.5,297.5C 359.833,297.5 638.167,297.5 916.5,297.5C 917.117,297.389 917.617,297.056 918,296.5C 918.83,269.33 918.664,242.33 917.5,215.5C 917.666,205.494 917.5,195.494 917,185.5C 909.445,167.306 895.945,160.64 876.5,165.5C 881.651,164.673 886.984,164.173 892.5,164C 879.171,163.5 865.837,163.333 852.5,163.5C 732.833,163.5 613.167,163.5 493.5,163.5C 364.663,163.808 235.996,163.141 107.5,161.5C 218.83,160.725 330.163,160.225 441.5,160C 447.751,146.435 455.584,133.935 465,122.5C 466.409,121.219 467.909,120.219 469.5,119.5C 484.57,127.751 497.737,125.418 509,112.5C 511.575,109.274 513.075,105.607 513.5,101.5C 514.777,100.306 515.444,98.6397 515.5,96.5C 515.444,94.3603 514.777,92.6936 513.5,91.5C 511.59,87.0092 510.257,82.3425 509.5,77.5C 537.395,57.1484 567.395,40.6484 599.5,28C 624.305,19.8126 649.639,12.8126 675.5,7C 697.501,3.1711 719.501,0.671105 741.5,-0.5 Z"/></g>
<g><path style="opacity:1" fill="#fb74b5" d="M 509.5,77.5 C 510.257,82.3425 511.59,87.0092 513.5,91.5C 513.5,94.8333 513.5,98.1667 513.5,101.5C 513.075,105.607 511.575,109.274 509,112.5C 497.737,125.418 484.57,127.751 469.5,119.5C 466.383,119.358 463.883,118.024 462,115.5C 460.667,112.833 459.333,110.167 458,107.5C 457.333,100.5 457.333,93.5 458,86.5C 466.604,68.5448 480.437,62.7115 499.5,69C 504.252,70.2586 507.586,73.0919 509.5,77.5 Z"/></g>
<g><path style="opacity:1" fill="#3fb8d4" d="M 384.5,66.5 C 407.173,64.6261 419.839,74.7928 422.5,97C 420.408,114.925 410.408,125.092 392.5,127.5C 378.567,126.946 368.733,120.279 363,107.5C 358.952,87.7377 366.119,74.071 384.5,66.5 Z"/></g>
<g><path style="opacity:1" fill="#3eb7d4" d="M 894.5,71.5 C 895.244,83.4115 901.578,89.9115 913.5,91C 915.93,93.3046 916.93,96.1379 916.5,99.5C 915.028,101.134 913.362,102.634 911.5,104C 904.785,104.778 899.618,107.945 896,113.5C 896.064,124.038 891.23,127.538 881.5,124C 880.157,119.767 878.657,115.601 877,111.5C 875.429,109.077 873.263,107.744 870.5,107.5C 868.197,105.745 865.53,104.578 862.5,104C 857.461,100.941 856.294,96.7746 859,91.5C 863.68,89.4044 868.513,87.5711 873.5,86C 877.431,81.9708 879.597,77.1374 880,71.5C 881.739,69.2589 883.906,67.5922 886.5,66.5C 889.195,68.1776 891.861,69.8442 894.5,71.5 Z"/></g>
<g><path style="opacity:1" fill="#af82db" d="M 894.5,71.5 C 896.656,74.4374 898.156,77.7708 899,81.5C 901.291,85.5628 904.791,87.3961 909.5,87C 915.46,89.4374 917.794,93.604 916.5,99.5C 916.93,96.1379 915.93,93.3046 913.5,91C 901.578,89.9115 895.244,83.4115 894.5,71.5 Z"/></g>
<g><path style="opacity:1" fill="#b287dc" d="M 894.5,71.5 C 891.861,69.8442 889.195,68.1776 886.5,66.5C 883.906,67.5922 881.739,69.2589 880,71.5C 879.597,77.1374 877.431,81.9708 873.5,86C 868.513,87.5711 863.68,89.4044 859,91.5C 856.294,96.7746 857.461,100.941 862.5,104C 865.53,104.578 868.197,105.745 870.5,107.5C 864.552,107.722 859.719,104.722 856,98.5C 855.667,98.8333 855.333,99.1667 855,99.5C 854.383,94.8918 855.883,91.0585 859.5,88C 865.357,87.3839 870.523,85.2172 875,81.5C 876.1,75.8865 878.6,71.0531 882.5,67C 885.998,65.0333 889.332,65.3666 892.5,68C 893.823,68.8159 894.489,69.9826 894.5,71.5 Z"/></g>
<g><path style="opacity:1" fill="#fafdfd" d="M 390.5,90.5 C 396.392,91.2643 398.559,94.5976 397,100.5C 390.826,104.263 387.493,102.597 387,95.5C 387.997,93.6769 389.164,92.0103 390.5,90.5 Z"/></g>
<g><path style="opacity:1" fill="#fef8fb" d="M 490.5,93.5 C 488.167,96.5 485.5,99.1667 482.5,101.5C 479.684,96.3833 481.184,92.7166 487,90.5C 488.364,91.3707 489.53,92.3707 490.5,93.5 Z"/></g>
<g><path style="opacity:1" fill="#fadaeb" d="M 490.5,93.5 C 491.167,93.5 491.833,93.5 492.5,93.5C 494.081,95.1417 494.747,97.1417 494.5,99.5C 493.118,102.788 490.618,104.788 487,105.5C 484.437,105.382 482.937,104.049 482.5,101.5C 485.5,99.1667 488.167,96.5 490.5,93.5 Z"/></g>
<g><path style="opacity:1" fill="#e1a1d8" d="M 513.5,91.5 C 514.777,92.6936 515.444,94.3603 515.5,96.5C 515.444,98.6397 514.777,100.306 513.5,101.5C 513.5,98.1667 513.5,94.8333 513.5,91.5 Z"/></g>
<g><path style="opacity:1" fill="#e3a2d8" d="M 492.5,93.5 C 493.496,93.4142 494.329,93.7476 495,94.5C 495.78,96.3869 495.613,98.0536 494.5,99.5C 494.747,97.1417 494.081,95.1417 492.5,93.5 Z"/></g>
<g><path style="opacity:1" fill="#d4a9e2" d="M 914.5,104.5 C 912.383,106.655 909.716,107.655 906.5,107.5C 908.936,106.129 911.603,105.129 914.5,104.5 Z"/></g>
<g><path style="opacity:1" fill="#ae81da" d="M 916.5,99.5 C 916.608,101.514 915.942,103.18 914.5,104.5C 911.603,105.129 908.936,106.129 906.5,107.5C 903.628,108.526 901.128,110.192 899,112.5C 897.842,117.328 896.008,121.828 893.5,126C 890.298,127.483 886.964,127.817 883.5,127C 881.239,125.187 878.905,123.687 876.5,122.5C 876.519,120.94 876.852,119.44 877.5,118C 876.133,113.81 873.8,110.31 870.5,107.5C 873.263,107.744 875.429,109.077 877,111.5C 878.657,115.601 880.157,119.767 881.5,124C 891.23,127.538 896.064,124.038 896,113.5C 899.618,107.945 904.785,104.778 911.5,104C 913.362,102.634 915.028,101.134 916.5,99.5 Z"/></g>
<g><path style="opacity:1" fill="#fa72b5" d="M 107.5,161.5 C 235.996,163.141 364.663,163.808 493.5,163.5C 611.335,164.269 729.335,164.935 847.5,165.5C 857.167,165.5 866.833,165.5 876.5,165.5C 895.945,160.64 909.445,167.306 917,185.5C 917.5,195.494 917.666,205.494 917.5,215.5C 917.488,242.838 917.154,270.172 916.5,297.5C 638.167,297.5 359.833,297.5 81.5,297.5C 81.8279,286.321 81.4946,275.321 80.5,264.5C 80.5,242.833 80.5,221.167 80.5,199.5C 81.4002,194.228 81.7335,188.895 81.5,183.5C 81.9255,180.881 82.9255,178.547 84.5,176.5C 85.803,174.858 87.1363,173.191 88.5,171.5C 88.5,170.833 88.8333,170.5 89.5,170.5C 90.8333,169.833 91.8333,168.833 92.5,167.5C 96.6071,164.794 100.94,162.46 105.5,160.5C 106.183,160.863 106.85,161.196 107.5,161.5 Z"/></g>
<g><path style="opacity:1" fill="#edbee3" d="M 852.5,163.5 C 865.837,163.333 879.171,163.5 892.5,164C 886.984,164.173 881.651,164.673 876.5,165.5C 866.833,165.5 857.167,165.5 847.5,165.5C 849.167,164.833 850.833,164.167 852.5,163.5 Z"/></g>
<g><path style="opacity:1" fill="#e99cd2" d="M 493.5,163.5 C 613.167,163.5 732.833,163.5 852.5,163.5C 850.833,164.167 849.167,164.833 847.5,165.5C 729.335,164.935 611.335,164.269 493.5,163.5 Z"/></g>
<g><path style="opacity:1" fill="#fbdeed" d="M 92.5,167.5 C 91.8333,168.833 90.8333,169.833 89.5,170.5C 89.6854,168.804 90.5187,167.471 92,166.5C 92.3988,166.728 92.5654,167.062 92.5,167.5 Z"/></g>
<g><path style="opacity:1" fill="#fcdfee" d="M 88.5,171.5 C 87.1363,173.191 85.803,174.858 84.5,176.5C 84.0768,173.876 85.4101,172.209 88.5,171.5 Z"/></g>
<g><path style="opacity:1" fill="#f7c6e3" d="M 81.5,183.5 C 81.7335,188.895 81.4002,194.228 80.5,199.5C 79.8333,199.5 79.1667,199.5 78.5,199.5C 78.1103,196.534 78.777,193.868 80.5,191.5C 79.0353,188.516 79.3686,185.849 81.5,183.5 Z"/></g>
<g><path style="opacity:1" fill="#fbdbeb" d="M 555.5,203.5 C 563.919,202.916 571.586,205.083 578.5,210C 585.833,210.333 593.167,210.667 600.5,211C 683.167,211.333 765.833,211.667 848.5,212C 850.378,213.543 851.878,215.376 853,217.5C 853.667,229.833 853.667,242.167 853,254.5C 851.075,255.88 849.241,257.38 847.5,259C 763.498,259.167 679.498,259.667 595.5,260.5C 593.335,266.123 589.335,267.956 583.5,266C 579.217,263.385 575.217,260.385 571.5,257C 558.863,259.898 548.03,256.731 539,247.5C 530.611,233.219 532.444,220.386 544.5,209C 548.017,206.674 551.683,204.84 555.5,203.5 Z"/></g>
<g><path style="opacity:1" fill="#fbdbeb" d="M 230.5,213.5 C 247.827,212.995 256.327,221.328 256,238.5C 252.717,251.889 244.217,258.056 230.5,257C 214.673,251.173 209.839,240.34 216,224.5C 219.514,219.003 224.348,215.337 230.5,213.5 Z"/></g>
<g><path style="opacity:1" fill="#d399da" d="M 78.5,199.5 C 79.1667,199.5 79.8333,199.5 80.5,199.5C 80.5,221.167 80.5,242.833 80.5,264.5C 80.665,267.85 80.4983,271.183 80,274.5C 79.6174,275.056 79.1174,275.389 78.5,275.5C 78.5,250.167 78.5,224.833 78.5,199.5 Z"/></g>
<g><path style="opacity:1" fill="#41b8d5" d="M 305.5,213.5 C 309.74,214.953 313.74,216.953 317.5,219.5C 319.252,221.246 320.585,223.246 321.5,225.5C 323.216,229.972 323.882,234.638 323.5,239.5C 323.5,239.833 323.5,240.167 323.5,240.5C 321.56,248.44 316.56,253.44 308.5,255.5C 304.833,255.5 301.167,255.5 297.5,255.5C 296.5,255.5 295.5,255.5 294.5,255.5C 294.027,254.094 293.027,253.427 291.5,253.5C 288.14,250.806 285.14,247.806 282.5,244.5C 282.59,241.848 281.924,239.515 280.5,237.5C 280.87,233.767 281.537,230.101 282.5,226.5C 285.138,223.526 287.805,220.526 290.5,217.5C 292.027,217.573 293.027,216.906 293.5,215.5C 297.443,214.514 301.443,213.848 305.5,213.5 Z"/></g>
<g><path style="opacity:1" fill="#e1b0df" d="M 305.5,213.5 C 310.611,213.389 314.611,215.389 317.5,219.5C 313.74,216.953 309.74,214.953 305.5,213.5 Z"/></g>
<g><path style="opacity:1" fill="#d3b2e0" d="M 293.5,215.5 C 293.027,216.906 292.027,217.573 290.5,217.5C 290.973,216.094 291.973,215.427 293.5,215.5 Z"/></g>
<g><path style="opacity:1" fill="#dcb5e1" d="M 290.5,217.5 C 287.805,220.526 285.138,223.526 282.5,226.5C 283.768,222.233 286.435,219.233 290.5,217.5 Z"/></g>
<g><path style="opacity:1" fill="#fb75b6" d="M 558.5,224.5 C 566.687,225.793 568.353,229.627 563.5,236C 557.212,237.378 554.379,234.878 555,228.5C 555.69,226.65 556.856,225.316 558.5,224.5 Z"/></g>
<g><path style="opacity:1" fill="#e7bce5" d="M 321.5,225.5 C 322.458,225.953 323.292,226.619 324,227.5C 324.812,231.689 324.645,235.689 323.5,239.5C 323.882,234.638 323.216,229.972 321.5,225.5 Z"/></g>
<g><path style="opacity:1" fill="#e4b1e0" d="M 917.5,215.5 C 918.664,242.33 918.83,269.33 918,296.5C 917.617,297.056 917.117,297.389 916.5,297.5C 917.154,270.172 917.488,242.838 917.5,215.5 Z"/></g>
<g><path style="opacity:1" fill="#e1a6dc" d="M 280.5,237.5 C 281.924,239.515 282.59,241.848 282.5,244.5C 281.076,242.485 280.41,240.152 280.5,237.5 Z"/></g>
<g><path style="opacity:1" fill="#e3abdb" d="M 323.5,240.5 C 322.657,249.677 317.657,255.011 308.5,256.5C 308.5,256.167 308.5,255.833 308.5,255.5C 316.56,253.44 321.56,248.44 323.5,240.5 Z"/></g>
<g><path style="opacity:1" fill="#dfacdf" d="M 282.5,244.5 C 285.14,247.806 288.14,250.806 291.5,253.5C 291.5,253.833 291.5,254.167 291.5,254.5C 287.105,252.438 284.105,249.104 282.5,244.5 Z"/></g>
<g><path style="opacity:1" fill="#e0ecf5" d="M 291.5,254.5 C 291.5,254.167 291.5,253.833 291.5,253.5C 293.027,253.427 294.027,254.094 294.5,255.5C 294.167,255.5 293.833,255.5 293.5,255.5C 292.833,255.167 292.167,254.833 291.5,254.5 Z"/></g>
<g><path style="opacity:1" fill="#aadbea" d="M 297.5,255.5 C 301.167,255.5 304.833,255.5 308.5,255.5C 308.5,255.833 308.5,256.167 308.5,256.5C 305.873,257.092 303.206,257.425 300.5,257.5C 299.5,256.833 298.5,256.167 297.5,255.5 Z"/></g>
<g><path style="opacity:1" fill="#dfa7dd" d="M 293.5,255.5 C 293.833,255.5 294.167,255.5 294.5,255.5C 295.5,255.5 296.5,255.5 297.5,255.5C 298.5,256.167 299.5,256.833 300.5,257.5C 297.848,257.59 295.515,256.924 293.5,255.5 Z"/></g>
<g><path style="opacity:1" fill="#e9b7e1" d="M 80.5,264.5 C 81.4946,275.321 81.8279,286.321 81.5,297.5C 81.1667,297.5 80.8333,297.5 80.5,297.5C 78.5905,290.444 77.9238,283.111 78.5,275.5C 79.1174,275.389 79.6174,275.056 80,274.5C 80.4983,271.183 80.665,267.85 80.5,264.5 Z"/></g>
<g><path style="opacity:1" fill="#fb72b5" d="M 251.5,486.5 C 252.449,473.336 253.115,460.003 253.5,446.5C 253.395,437.43 257.729,431.597 266.5,429C 277.438,426.553 285.272,430.386 290,440.5C 291.071,455.816 291.571,471.149 291.5,486.5C 309.535,487.592 316.702,496.925 313,514.5C 311.623,516.754 310.123,518.92 308.5,521C 303.308,524.153 297.808,526.32 292,527.5C 291.667,553.5 291.333,579.5 291,605.5C 289.672,624.824 279.839,631.324 261.5,625C 256.655,621.811 253.822,617.311 253,611.5C 252.809,583.137 252.309,554.804 251.5,526.5C 227.516,525.727 203.516,525.227 179.5,525C 166.665,517.506 163.498,507.006 170,493.5C 188.392,451.715 207.059,410.048 226,368.5C 235.54,357.27 245.873,356.603 257,366.5C 261.827,373.462 262.494,380.795 259,388.5C 244.54,421.082 230.373,453.749 216.5,486.5C 228.167,486.5 239.833,486.5 251.5,486.5 Z"/></g>
<g><path style="opacity:1" fill="#fb72b5" d="M 389.5,359.5 C 411.509,359.556 433.509,360.056 455.5,361C 469.974,366.141 479.807,375.974 485,390.5C 486.46,456.827 486.794,523.161 486,589.5C 482.503,609.331 471.003,621.831 451.5,627C 423.775,629.305 396.108,628.971 368.5,626C 354.333,621.167 344.833,611.667 340,597.5C 338.813,584.536 338.147,571.536 338,558.5C 337.072,503.819 337.406,449.153 339,394.5C 346.73,369.561 363.563,357.894 389.5,359.5 Z"/></g>
<g><path style="opacity:1" fill="#fb72b5" d="M 563.5,359.5 C 579.503,359.333 595.503,359.5 611.5,360C 640.25,367.417 658.417,385.583 666,414.5C 672.535,445.221 665.035,471.721 643.5,494C 665.148,516.301 672.648,542.801 666,573.5C 660.123,596.112 646.956,612.945 626.5,624C 623.226,625.202 619.893,626.202 616.5,627C 598.205,628.584 579.872,628.918 561.5,628C 545.528,624.682 532.695,616.516 523,603.5C 510.379,586.193 505.379,566.86 508,545.5C 515.475,534.274 523.808,533.608 533,543.5C 533.667,544.833 534.333,546.167 535,547.5C 534.275,563.336 539.442,576.836 550.5,588C 554.609,591.388 559.275,593.721 564.5,595C 578.833,595.667 593.167,595.667 607.5,595C 624.067,590.766 634.233,580.266 638,563.5C 642.741,539.145 633.908,521.979 611.5,512C 592.681,511.882 585.848,502.716 591,484.5C 596.778,478.416 603.944,475.583 612.5,476C 627.986,469.217 636.82,457.384 639,440.5C 641.033,418.234 631.867,402.734 611.5,394C 595.5,393.333 579.5,393.333 563.5,394C 548.693,399.48 539.526,409.98 536,425.5C 535.407,431.912 534.407,438.245 533,444.5C 528.251,452.628 521.751,454.461 513.5,450C 511.3,447.766 509.467,445.266 508,442.5C 504.925,411.158 516.091,386.325 541.5,368C 548.461,363.852 555.795,361.019 563.5,359.5 Z"/></g>
<g><path style="opacity:1" fill="#fadbeb" d="M 379.5,398.5 C 401.546,398.178 423.546,398.511 445.5,399.5C 446.314,401.766 446.814,404.1 447,406.5C 447.667,461.167 447.667,515.833 447,570.5C 446.809,576.083 446.309,581.583 445.5,587C 434.568,588.133 423.568,588.633 412.5,588.5C 402.5,588.333 392.5,588.167 382.5,588C 381.128,587.598 379.795,587.098 378.5,586.5C 377.686,584.234 377.186,581.9 377,579.5C 376.333,520.5 376.333,461.5 377,402.5C 377.662,401.016 378.496,399.683 379.5,398.5 Z"/></g>
<g><path style="opacity:1" fill="#d295d9" d="M 705.5,454.5 C 746.206,454.029 786.873,454.529 827.5,456C 830.453,458.063 832.286,460.896 833,464.5C 834.336,473.168 833.336,481.502 830,489.5C 829.25,490.126 828.416,490.626 827.5,491C 786.494,492.959 745.494,492.959 704.5,491C 701.372,488.654 699.539,485.487 699,481.5C 698.333,475.5 698.333,469.5 699,463.5C 700.222,459.686 702.389,456.686 705.5,454.5 Z"/></g>
<g><path style="opacity:1" fill="#e3a8db" d="M 253.5,446.5 C 253.115,460.003 252.449,473.336 251.5,486.5C 251.091,472.957 251.758,459.624 253.5,446.5 Z"/></g>
<g><path style="opacity:1" fill="#d295d9" d="M 703.5,528.5 C 739.502,528.333 775.502,528.5 811.5,529C 818.31,535.451 817.977,541.451 810.5,547C 776.851,548.559 743.184,548.893 709.5,548C 697.583,544.65 695.583,538.15 703.5,528.5 Z"/></g>
<g><path style="opacity:1" fill="#d295d9" d="M 704.5,562.5 C 739.835,562.333 775.168,562.5 810.5,563C 816.484,566.363 817.984,571.197 815,577.5C 813.269,579.617 811.102,581.117 808.5,582C 774.5,582.667 740.5,582.667 706.5,582C 699.266,578.966 697.099,573.799 700,566.5C 701.397,564.93 702.897,563.596 704.5,562.5 Z"/></g>
<g><path style="opacity:1" fill="#d295d9" d="M 868.5,685.5 C 885.503,685.333 902.503,685.5 919.5,686C 918.944,686.383 918.611,686.883 918.5,687.5C 893.495,686.143 868.495,686.31 843.5,688C 794.443,736.389 746.11,785.389 698.5,835C 743.507,836.853 788.507,836.853 833.5,835C 860.801,805.563 889.468,777.729 919.5,751.5C 921.492,771.824 921.659,792.158 920,812.5C 917.296,824.405 910.129,832.238 898.5,836C 796.829,838.497 695.163,838.997 593.5,837.5C 449.235,836.258 304.902,836.258 160.5,837.5C 140.138,837.616 119.805,837.116 99.5,836C 89.5612,832.057 83.0612,824.89 80,814.5C 78.5424,780.869 78.0424,747.202 78.5,713.5C 79.1667,708.833 79.8333,704.167 80.5,699.5C 80.3334,723.502 80.5,747.502 81,771.5C 81.3076,772.308 81.8076,772.975 82.5,773.5C 111.985,745.848 140.652,717.348 168.5,688C 140.84,686.844 113.174,686.511 85.5,687C 82.5088,687.145 80.8422,688.645 80.5,691.5C 80.1667,691.5 79.8333,691.5 79.5,691.5C 79.5,689.5 79.5,687.5 79.5,685.5C 342.5,684.177 605.5,684.177 868.5,685.5 Z"/></g>
<g><path style="opacity:1" fill="#a774d8" d="M 80.5,699.5 C 80.5,696.833 80.5,694.167 80.5,691.5C 80.8422,688.645 82.5088,687.145 85.5,687C 113.174,686.511 140.84,686.844 168.5,688C 140.652,717.348 111.985,745.848 82.5,773.5C 81.8076,772.975 81.3076,772.308 81,771.5C 80.5,747.502 80.3334,723.502 80.5,699.5 Z"/></g>
<g><path style="opacity:1" fill="#a774d8" d="M 302.5,686.5 C 347.849,686.095 393.182,686.595 438.5,688C 390.194,737.306 341.528,786.306 292.5,835C 247.486,835.904 202.486,835.57 157.5,834C 204.639,785.861 252.139,738.028 300,690.5C 300.662,689.016 301.496,687.683 302.5,686.5 Z"/></g>
<g><path style="opacity:1" fill="#a774d8" d="M 573.5,686.5 C 618.848,686.102 664.181,686.602 709.5,688C 661.5,736 613.5,784 565.5,832C 563.913,832.862 562.246,833.529 560.5,834C 516.498,835.792 472.498,835.792 428.5,834C 477.063,784.938 525.396,735.772 573.5,686.5 Z"/></g>
<g><path style="opacity:1" fill="#a774d8" d="M 918.5,687.5 C 919.832,697.812 920.499,708.478 920.5,719.5C 920.5,730.339 920.167,741.005 919.5,751.5C 889.468,777.729 860.801,805.563 833.5,835C 788.507,836.853 743.507,836.853 698.5,835C 746.11,785.389 794.443,736.389 843.5,688C 868.495,686.31 893.495,686.143 918.5,687.5 Z"/></g>
<g><path style="opacity:1" fill="#ddb0e2" d="M 79.5,691.5 C 79.8333,691.5 80.1667,691.5 80.5,691.5C 80.5,694.167 80.5,696.833 80.5,699.5C 79.8333,704.167 79.1667,708.833 78.5,713.5C 78.175,705.981 78.5084,698.648 79.5,691.5 Z"/></g>
<g><path style="opacity:1" fill="#71c7de" d="M 43.5,824.5 C 45.7957,824.804 46.129,825.804 44.5,827.5C 43.6977,828.885 43.0311,828.718 42.5,827C 42.7432,826.098 43.0766,825.265 43.5,824.5 Z"/></g>
<g><path style="opacity:1" fill="#69c5dd" d="M 49.5,834.5 C 51.7957,834.804 52.129,835.804 50.5,837.5C 48.2043,837.196 47.871,836.196 49.5,834.5 Z"/></g>
<g><path style="opacity:1" fill="#7fcce1" d="M 56.5,848.5 C 57.5,848.5 58.5,848.5 59.5,848.5C 59.5,849.5 59.5,850.5 59.5,851.5C 58.5,851.5 57.5,851.5 56.5,851.5C 56.5,850.5 56.5,849.5 56.5,848.5 Z"/></g>
<g><path style="opacity:1" fill="#6ac5dc" d="M 64.5,861.5 C 65.8333,861.5 66.5,862.167 66.5,863.5C 65.325,863.719 64.325,863.386 63.5,862.5C 63.6236,861.893 63.9569,861.56 64.5,861.5 Z"/></g>
<g><path style="opacity:1" fill="#42b9d5" d="M 842.5,899.5 C 844.424,899.289 844.757,898.623 843.5,897.5C 845.217,893.568 848.051,891.901 852,892.5C 854.748,890.269 857.915,889.269 861.5,889.5C 862.638,884.909 863.471,880.243 864,875.5C 866.173,878.277 866.673,878.11 865.5,875C 866.833,873.333 868.167,871.667 869.5,870C 882.732,867.908 888.899,873.408 888,886.5C 888.333,886.167 888.667,885.833 889,885.5C 892.594,889.547 897.094,891.881 902.5,892.5C 904.747,893.245 906.58,894.578 908,896.5C 908.288,900.319 908.288,904.319 908,908.5C 905.833,910 904,911.833 902.5,914C 896.462,913.521 891.796,915.687 888.5,920.5C 889.126,928.27 885.959,933.604 879,936.5C 876.463,936.413 873.963,936.413 871.5,936.5C 865.021,933.219 861.854,927.886 862,920.5C 860.14,918.64 858.306,916.806 856.5,915C 853.854,914.503 851.187,914.336 848.5,914.5C 848.5,913.5 848.5,912.5 848.5,911.5C 846.61,911.703 845.11,911.037 844,909.5C 842.684,906.312 842.184,902.978 842.5,899.5 Z"/></g>
<g><path style="opacity:1" fill="#fb73b5" d="M 128.5,935.5 C 120.784,937.559 115.284,934.893 112,927.5C 111.75,924.246 110.75,921.246 109,918.5C 103.596,915.982 98.2628,913.315 93,910.5C 90.0201,906.192 89.8535,901.859 92.5,897.5C 93.6253,895.871 94.9586,894.371 96.5,893C 102.21,892.639 107.044,890.472 111,886.5C 111.966,875.521 117.799,870.354 128.5,871C 132.877,874.755 135.377,879.588 136,885.5C 137.046,887.09 138.213,888.59 139.5,890C 145.649,890.492 150.816,892.992 155,897.5C 157.144,908.06 152.644,913.893 141.5,915C 139.714,915.785 138.214,916.951 137,918.5C 136.265,925.303 133.432,930.969 128.5,935.5 Z"/></g>
<g><path style="opacity:1" fill="#62c1da" d="M 75.5,878.5 C 75.6395,876.663 76.3061,876.33 77.5,877.5C 77.0431,878.298 76.3764,878.631 75.5,878.5 Z"/></g>
<g><path style="opacity:1" fill="#75c5dd" d="M 83.5,888.5 C 81.9731,888.573 80.9731,887.906 80.5,886.5C 82.3678,885.326 83.3678,885.993 83.5,888.5 Z"/></g>
<g><path style="opacity:1" fill="#b184dc" d="M 843.5,897.5 C 844.757,898.623 844.424,899.289 842.5,899.5C 842.328,898.508 842.662,897.842 843.5,897.5 Z"/></g>
</svg>
