<?xml version="1.0" encoding="utf-8"?>
<!-- Generator: Adobe Illustrator 19.2.0, SVG Export Plug-In . SVG Version: 6.00 Build 0)  -->
<svg version="1.1" id="Layer_1" xmlns="http://www.w3.org/2000/svg" xmlns:xlink="http://www.w3.org/1999/xlink" x="0px" y="0px"
	 viewBox="0 0 51.4 62.5" style="enable-background:new 0 0 51.4 62.5;" xml:space="preserve">
<style type="text/css">
	.st0{fill:#FFFFFF;}
</style>
<title>download_button1</title>
<rect x="5.9" y="20.7" class="st0" width="10.4" height="26.3"/>
<rect x="14.1" y="24.9" class="st0" width="4" height="22.5"/>
<rect x="5.9" y="27.9" class="st0" width="39.6" height="20.8"/>
<rect x="32.1" y="24.9" class="st0" width="13.4" height="21.4"/>
<rect x="19.9" y="5.3" class="st0" width="10.4" height="14.1"/>
<polygon class="st0" points="34.7,16.5 25.4,25.5 16,16.5 "/>
<path class="st0" d="M3.3,55.2c0.6-0.1,1.3-0.1,1.9-0.1c1-0.1,2.1,0.2,3,0.9c0.7,0.7,1,1.6,1,2.6c0.1,1-0.3,2-1.1,2.7
	c-0.9,0.7-2,1.1-3.3,1c-0.6,0-1.2,0-1.7-0.1v-7.1L3.3,55.2L3.3,55.2z M4.2,61.5c0.3,0,0.5,0.1,1,0.1c1.5,0.2,2.8-0.9,3.1-2.4
	c0-0.2,0-0.4,0-0.6c0.1-1.4-1-2.6-2.4-2.7c-0.2,0-0.4,0-0.6,0c-0.4,0-0.7,0-1.1,0.1L4.2,61.5L4.2,61.5L4.2,61.5z"/>
<path class="st0" d="M15.1,59.6c0.1,1.4-1,2.6-2.4,2.7h-0.2c-1.4,0-2.5-1.1-2.5-2.4l0,0c0-0.1,0-0.1,0-0.2c-0.1-1.4,1-2.6,2.4-2.7
	h0.2c1.3,0,2.4,1,2.5,2.4C15.1,59.4,15.1,59.5,15.1,59.6z M11,59.7c-0.1,0.9,0.5,1.8,1.4,1.9h0.2c1-0.1,1.7-1,1.6-1.9v-0.1
	c0.1-0.9-0.5-1.8-1.4-2l0,0h-0.1c-1,0-1.7,0.8-1.7,1.8C10.9,59.5,10.9,59.6,11,59.7L11,59.7z"/>
<path class="st0" d="M16.6,57l0.7,2.6c0.2,0.5,0.3,1.1,0.3,1.6l0,0c0.1-0.5,0.3-1.1,0.4-1.6l0.8-2.6h0.8l0.8,2.6
	c0.2,0.5,0.3,1.1,0.4,1.7l0,0c0.1-0.5,0.3-1.1,0.3-1.7l0.7-2.6h0.9l-1.5,5.2h-0.9l-0.8-2.4c-0.2-0.5-0.3-1.1-0.4-1.7l0,0
	c-0.1,0.6-0.2,1.1-0.4,1.7L18,62.3H17l-1.6-5.2h1.2V57z"/>
<path class="st0" d="M24.2,58.4V57H25l0.1,0.9l0,0c0.3-0.6,1-1,1.7-1c1.1,0,1.9,0.9,1.8,2c0,0.1,0,0.2,0,0.2v3.2h-0.9v-3
	c0.2-0.7-0.3-1.3-0.9-1.5h-0.2c-0.6,0-1.1,0.4-1.2,1c0,0.1-0.1,0.3-0.1,0.4v3.2h-1v-4H24.2z"/>
<path class="st0" d="M30.2,54.7h1v7.6h-1V54.7z"/>
<path class="st0" d="M37.4,59.6c0.1,1.4-1,2.6-2.4,2.7h-0.2c-1.4,0-2.5-1.1-2.5-2.4l0,0c0-0.1,0-0.1,0-0.2c-0.1-1.4,1-2.6,2.4-2.7
	h0.2c1.3-0.1,2.5,1,2.5,2.3C37.4,59.4,37.4,59.5,37.4,59.6z M33.2,59.7c-0.1,0.9,0.5,1.8,1.4,1.9h0.2c1-0.1,1.7-1,1.6-1.9v-0.1
	c0.1-0.9-0.5-1.8-1.4-2l0,0l0,0c-1,0-1.8,0.9-1.7,1.9l0,0v0.2H33.2L33.2,59.7z"/>
<path class="st0" d="M41.6,62.3l-0.1-0.6l0,0c-0.3,0.5-1,0.8-1.6,0.8c-0.8,0.1-1.5-0.5-1.6-1.3c0-0.1,0-0.1,0-0.2
	c0-1.2,1.1-1.9,3.2-1.9v-0.1c0.1-0.6-0.3-1.1-0.9-1.2l0,0h-0.2c-0.5,0-0.9,0.1-1.3,0.3l-0.3-0.6c0.5-0.3,1.1-0.4,1.7-0.4
	c1-0.1,1.9,0.6,2,1.6c0,0.2,0,0.3,0,0.5v1.9c0,0.4,0,0.8,0.1,1.2H41.6L41.6,62.3L41.6,62.3z M41.4,59.6c-1.1,0-2.2,0.2-2.2,1.1
	c0,0.4,0.3,0.8,0.8,0.9H40c0.6,0,1.1-0.3,1.2-0.9c0-0.1,0.1-0.2,0.1-0.3L41.4,59.6L41.4,59.6z"/>
<path class="st0" d="M48.4,54.7v7.6h-0.8v-0.9l0,0c-0.3,0.6-1,1-1.7,1c-1.3-0.1-2.3-1.2-2.2-2.5l0,0v-0.1c-0.1-1.4,0.8-2.6,2.2-2.7
	h0.1c0.6,0,1.2,0.3,1.6,0.8l0,0v-3.2H48.4L48.4,54.7L48.4,54.7L48.4,54.7z M47.4,59.1v-0.3c-0.1-0.6-0.7-1.1-1.3-1.1
	c-0.9,0.1-1.6,0.9-1.5,1.8l0,0v0.1c-0.1,0.9,0.4,1.7,1.3,1.8l0,0H46c0.7,0,1.3-0.5,1.4-1.1v-1.2H47.4z"/>
</svg>
