<svg id="Layer_1" data-name="Layer 1" xmlns="http://www.w3.org/2000/svg" viewBox="0 0 61.33 77.38"><defs><style>.cls-1{isolation:isolate;}.cls-2{fill:#fff;}</style></defs><title>editorUploadfromComputer1</title><g class="cls-1"><path class="cls-2" d="M14.23,55.43v4.79c0,1.81.8,2.58,1.88,2.58s2-.79,2-2.58V55.43h1.06v4.72c0,2.48-1.31,3.51-3.06,3.51s-2.91-.95-2.91-3.46V55.43h1.06Z" transform="translate(-13.17 -1.53)"/><path class="cls-2" d="M20.92,59.61c0-.74,0-1.34,0-1.9h0.95l0,1h0A2.28,2.28,0,0,1,24,57.58c1.4,0,2.46,1.19,2.46,3,0,2.09-1.27,3.12-2.64,3.12A2,2,0,0,1,22,62.74h0V65.9h-1V59.61Zm1,1.55a2.41,2.41,0,0,0,0,.43,1.63,1.63,0,0,0,1.58,1.24c1.12,0,1.76-.91,1.76-2.24a1.89,1.89,0,0,0-1.73-2.16A1.69,1.69,0,0,0,22,59.73a1.71,1.71,0,0,0-.07.43v1Z" transform="translate(-13.17 -1.53)"/><path class="cls-2" d="M27.75,55h1.06v8.52H27.75V55Z" transform="translate(-13.17 -1.53)"/><path class="cls-2" d="M35.85,60.57A2.84,2.84,0,0,1,33,63.65a2.76,2.76,0,0,1-2.79-3,2.84,2.84,0,0,1,2.88-3.09A2.75,2.75,0,0,1,35.85,60.57Zm-4.61.06A2,2,0,0,0,33,62.86a2,2,0,0,0,1.76-2.26c0-1-.49-2.23-1.74-2.23S31.24,59.52,31.24,60.63Z" transform="translate(-13.17 -1.53)"/><path class="cls-2" d="M40.4,63.52l-0.08-.73h0a2.17,2.17,0,0,1-1.78.86A1.66,1.66,0,0,1,36.73,62c0-1.4,1.25-2.17,3.49-2.16V59.7a1.2,1.2,0,0,0-1.32-1.35,2.9,2.9,0,0,0-1.51.43l-0.24-.7a3.6,3.6,0,0,1,1.91-.52A2.06,2.06,0,0,1,41.27,60v2.17a8.13,8.13,0,0,0,.1,1.39h-1Zm-0.16-3c-1.15,0-2.46.18-2.46,1.31a0.94,0.94,0,0,0,1,1,1.45,1.45,0,0,0,1.4-1,1.1,1.1,0,0,0,.06-0.34v-1Z" transform="translate(-13.17 -1.53)"/><path class="cls-2" d="M48,55v7c0,0.52,0,1.1,0,1.5H47.09l0-1h0a2.15,2.15,0,0,1-2,1.14c-1.41,0-2.49-1.19-2.49-3,0-1.93,1.19-3.12,2.61-3.12a2,2,0,0,1,1.75.89h0V55H48Zm-1.06,5.08a1.8,1.8,0,0,0,0-.44,1.55,1.55,0,0,0-1.52-1.23c-1.09,0-1.74,1-1.74,2.25s0.58,2.15,1.72,2.15a1.59,1.59,0,0,0,1.55-1.26,1.78,1.78,0,0,0,0-.46v-1Z" transform="translate(-13.17 -1.53)"/><path class="cls-2" d="M52.4,63.52v-5H51.59V57.71H52.4V57.43a2.74,2.74,0,0,1,.67-2,2,2,0,0,1,1.42-.54,2.45,2.45,0,0,1,.9.17l-0.14.82a1.61,1.61,0,0,0-.67-0.13c-0.9,0-1.13.79-1.13,1.68v0.31h1.4v0.81h-1.4v5h-1Z" transform="translate(-13.17 -1.53)"/><path class="cls-2" d="M55.8,59.52c0-.68,0-1.27,0-1.81h0.92l0,1.14h0a1.74,1.74,0,0,1,1.61-1.27,1.17,1.17,0,0,1,.3,0v1a1.51,1.51,0,0,0-.36,0,1.48,1.48,0,0,0-1.42,1.36,3.05,3.05,0,0,0,0,.49v3.1h-1v-4Z" transform="translate(-13.17 -1.53)"/><path class="cls-2" d="M64.87,60.57A2.84,2.84,0,0,1,62,63.65a2.76,2.76,0,0,1-2.79-3,2.84,2.84,0,0,1,2.88-3.09A2.75,2.75,0,0,1,64.87,60.57Zm-4.61.06a1.82,1.82,0,1,0,3.53,0c0-1-.49-2.23-1.74-2.23S60.26,59.52,60.26,60.63Z" transform="translate(-13.17 -1.53)"/><path class="cls-2" d="M66.2,59.28c0-.6,0-1.09,0-1.57h0.92l0,0.94h0A2,2,0,0,1,69,57.58a1.72,1.72,0,0,1,1.65,1.16h0A2.41,2.41,0,0,1,71.31,58a2,2,0,0,1,1.28-.41c0.77,0,1.91.5,1.91,2.52v3.42h-1V60.23c0-1.12-.41-1.79-1.26-1.79a1.37,1.37,0,0,0-1.25,1,1.75,1.75,0,0,0-.08.53v3.59h-1V60a1.34,1.34,0,0,0-1.21-1.6A1.57,1.57,0,0,0,67.24,60v3.51h-1V59.28Z" transform="translate(-13.17 -1.53)"/></g><g class="cls-1"><path class="cls-2" d="M24.9,76.27a5.19,5.19,0,0,1-2.14.39,3.78,3.78,0,0,1-4-4.09A4,4,0,0,1,23,68.31a4.33,4.33,0,0,1,1.92.36l-0.25.85A3.81,3.81,0,0,0,23,69.19a3,3,0,0,0-3.16,3.34A2.94,2.94,0,0,0,23,75.78a4.16,4.16,0,0,0,1.7-.34Z" transform="translate(-13.17 -1.53)"/><path class="cls-2" d="M31.3,73.58a2.84,2.84,0,0,1-2.89,3.09,2.76,2.76,0,0,1-2.79-3,2.84,2.84,0,0,1,2.88-3.09A2.75,2.75,0,0,1,31.3,73.58Zm-4.61.06a2,2,0,0,0,1.77,2.23,2,2,0,0,0,1.76-2.26c0-1-.49-2.23-1.74-2.23S26.69,72.53,26.69,73.64Z" transform="translate(-13.17 -1.53)"/><path class="cls-2" d="M32.64,72.3c0-.6,0-1.09,0-1.57h0.92l0,0.94h0a2,2,0,0,1,1.83-1.07,1.72,1.72,0,0,1,1.64,1.16h0A2.4,2.4,0,0,1,37.74,71,2,2,0,0,1,39,70.59c0.77,0,1.91.5,1.91,2.52v3.42h-1V73.24c0-1.12-.41-1.79-1.26-1.79a1.37,1.37,0,0,0-1.25,1,1.75,1.75,0,0,0-.08.53v3.59h-1V73.05a1.34,1.34,0,0,0-1.21-1.6,1.44,1.44,0,0,0-1.31,1.06,1.47,1.47,0,0,0-.08.52v3.51h-1V72.3Z" transform="translate(-13.17 -1.53)"/><path class="cls-2" d="M42.66,72.62c0-.74,0-1.34,0-1.9h0.95l0,1h0a2.28,2.28,0,0,1,2.06-1.13c1.4,0,2.46,1.19,2.46,3,0,2.09-1.27,3.12-2.64,3.12a2,2,0,0,1-1.79-.91h0v3.16h-1V72.62Zm1,1.55a2.37,2.37,0,0,0,0,.43,1.63,1.63,0,0,0,1.58,1.24c1.12,0,1.76-.91,1.76-2.24a1.89,1.89,0,0,0-1.73-2.16,1.69,1.69,0,0,0-1.6,1.31,1.74,1.74,0,0,0-.07.43v1Z" transform="translate(-13.17 -1.53)"/><path class="cls-2" d="M54.36,74.95c0,0.6,0,1.13,0,1.58H53.47l-0.06-.95h0a2.18,2.18,0,0,1-1.92,1.08c-0.91,0-2-.5-2-2.55v-3.4h1.06v3.22c0,1.1.34,1.85,1.3,1.85a1.49,1.49,0,0,0,1.49-1.5V70.72h1.06v4.23Z" transform="translate(-13.17 -1.53)"/><path class="cls-2" d="M57.39,69.05v1.67H58.9v0.81H57.39v3.13c0,0.72.2,1.13,0.79,1.13a2.39,2.39,0,0,0,.61-0.07l0,0.79a2.59,2.59,0,0,1-.94.14,1.46,1.46,0,0,1-1.14-.45,2.15,2.15,0,0,1-.41-1.51V71.53h-0.9V70.72h0.9V69.33Z" transform="translate(-13.17 -1.53)"/><path class="cls-2" d="M60.6,73.82a1.86,1.86,0,0,0,2,2,3.82,3.82,0,0,0,1.61-.3l0.18,0.75a4.7,4.7,0,0,1-1.93.36,2.7,2.7,0,0,1-2.86-2.93c0-1.75,1-3.13,2.73-3.13a2.46,2.46,0,0,1,2.4,2.74,4,4,0,0,1,0,.49H60.6Zm3.1-.75a1.51,1.51,0,0,0-1.47-1.72,1.75,1.75,0,0,0-1.62,1.72H63.7Z" transform="translate(-13.17 -1.53)"/><path class="cls-2" d="M66,72.53c0-.68,0-1.27,0-1.81h0.92l0,1.14h0a1.74,1.74,0,0,1,1.61-1.27,1.18,1.18,0,0,1,.3,0v1a1.52,1.52,0,0,0-.36,0,1.48,1.48,0,0,0-1.42,1.36,2.94,2.94,0,0,0,0,.49v3.1H66v-4Z" transform="translate(-13.17 -1.53)"/></g><rect class="cls-2" x="9.72" y="16.12" width="10.97" height="27.83"/><rect class="cls-2" x="18.4" y="20.53" width="4.22" height="23.79"/><rect class="cls-2" x="9.72" y="23.74" width="41.89" height="22.05"/><rect class="cls-2" x="37.39" y="20.53" width="14.22" height="22.6"/><rect class="cls-2" x="24.29" y="7.44" width="11.02" height="12.77"/><polygon class="cls-2" points="19.63 9.51 29.54 0 39.45 9.51 19.63 9.51"/></svg>