<?xml version="1.0" encoding="utf-8"?>
<!-- Generator: Adobe Illustrator 19.2.0, SVG Export Plug-In . SVG Version: 6.00 Build 0)  -->
<svg version="1.1" id="Layer_1" xmlns="http://www.w3.org/2000/svg" xmlns:xlink="http://www.w3.org/1999/xlink" x="0px" y="0px"
	 viewBox="0 0 88 81.9" style="enable-background:new 0 0 88 81.9;" xml:space="preserve">
<style type="text/css">
	.st0{fill:none;}
	.st1{fill:#FFFFFF;}
</style>
<title>editorUploadtoSkindex1</title>
<rect x="2" y="39.7" class="st0" width="84.5" height="21.3"/>
<g>
	<path class="st1" d="M20.7,53.7v5c0,1.9,0.9,2.7,1.9,2.7s2-0.9,2-2.7v-5h1.2v5c0,2.6-1.4,3.7-3.2,3.7s-3-1-3-3.6v-5L20.7,53.7
		L20.7,53.7z"/>
	<path class="st1" d="M27.7,58.1c0-0.8,0-1.4,0-1.9h1v1.1l0,0c0.5-0.8,1.3-1.2,2.1-1.2c1.5,0,2.5,1.3,2.5,3.1c0,2.1-1.4,3.3-2.8,3.3
		c-0.8,0-1.5-0.3-1.9-1l0,0v3.3h-1.1L27.7,58.1L27.7,58.1z M28.9,59.6c0,0.2,0,0.3,0,0.5c0.2,0.8,0.9,1.3,1.7,1.3
		c1.2,0,1.9-1,1.9-2.3c0-1.2-0.7-2.2-1.9-2.2c-0.8,0-1.5,0.6-1.7,1.4c0,0.1-0.1,0.3-0.1,0.5L28.9,59.6L28.9,59.6z"/>
	<path class="st1" d="M34.9,53.2H36v9h-1.1V53.2z"/>
	<path class="st1" d="M43.4,59c0.1,1.7-1.1,3.1-2.7,3.2c-0.1,0-0.2,0-0.3,0c-1.6,0-2.9-1.3-2.9-2.8c0-0.1,0-0.2,0-0.3
		c-0.1-1.7,1.1-3.1,2.7-3.2c0.1,0,0.2,0,0.3,0c1.6,0,2.9,1.3,2.9,2.8C43.4,58.9,43.4,58.9,43.4,59z M38.5,59.1
		c0,1.4,0.8,2.3,1.9,2.3c1.1,0,1.9-1,1.9-2.3c0-1.1-0.5-2.3-1.9-2.3C39.1,56.8,38.5,58,38.5,59.1L38.5,59.1z"/>
	<path class="st1" d="M48.1,62.2l-0.1-0.8l0,0c-0.4,0.6-1.2,1-1.9,1c-1,0.1-1.8-0.6-1.9-1.6c0-0.1,0-0.1,0-0.2
		c0-1.5,1.3-2.2,3.7-2.2v-0.2c0.1-0.7-0.4-1.3-1.1-1.4c-0.1,0-0.2,0-0.3,0c-0.6,0-1.1,0.2-1.6,0.5l-0.3-0.7c0.6-0.4,1.3-0.6,2-0.6
		c1.9,0,2.3,1.3,2.3,2.5v2.2c0,0.5,0,1,0.1,1.5L48.1,62.2L48.1,62.2z M48,59c-1.2,0-2.5,0.2-2.5,1.4c-0.1,0.5,0.3,1,0.8,1.1
		c0.1,0,0.2,0,0.3,0c0.7,0,1.3-0.4,1.5-1c0-0.1,0.1-0.2,0.1-0.4L48,59L48,59z"/>
	<path class="st1" d="M56,53.2v7.4c0,0.6,0,1.2,0,1.6h-1v-1.1l0,0c-0.4,0.8-1.2,1.3-2,1.2c-1.5,0-2.6-1.3-2.6-3.1
		c0-2,1.3-3.3,2.7-3.3c0.8-0.1,1.5,0.3,1.9,1l0,0v-3.6L56,53.2L56,53.2z M55,58.6c0-0.2,0-0.3,0-0.5c-0.2-0.8-0.9-1.3-1.6-1.3
		c-1.2,0-1.9,1-1.9,2.3c0,1.4,0.6,2.2,1.8,2.2c0.8,0,1.5-0.6,1.6-1.3c0-0.2,0.1-0.3,0-0.5L55,58.6L55,58.6z"/>
	<path class="st1" d="M61.9,54.3V56h1.6v0.9h-1.6v3.3c0,0.8,0.2,1.2,0.9,1.2c0.2,0,0.4,0,0.7-0.1v0.9c-0.3,0.1-0.6,0.2-1,0.2
		c-0.5,0-0.9-0.1-1.2-0.5c-0.3-0.5-0.5-1-0.4-1.6V57h-1v-0.9h1v-1.6L61.9,54.3z"/>
	<path class="st1" d="M70.2,59c0.1,1.7-1.1,3.1-2.7,3.2c-0.1,0-0.2,0-0.3,0c-1.6,0-2.9-1.3-2.9-2.9c0-0.1,0-0.2,0-0.3
		c-0.1-1.7,1.1-3.1,2.7-3.2c0.1,0,0.2,0,0.3,0c1.6,0,2.9,1.3,2.9,2.8C70.2,58.9,70.2,58.9,70.2,59z M65.3,59.1
		c0,1.4,0.8,2.3,1.9,2.3s1.9-1,1.9-2.3c0-1.1-0.5-2.3-1.9-2.3S65.3,58,65.3,59.1L65.3,59.1z"/>
</g>
<g>
	<path class="st1" d="M25,73.4c0.6,0.3,1.2,0.5,1.9,0.5c0.8,0.1,1.7-0.4,1.8-1.3c0-0.1,0-0.1,0-0.2c0-0.8-0.5-1.3-1.6-1.7
		c-1.4-0.5-2.2-1.2-2.2-2.4c0-1.2,1.1-2.3,2.7-2.3c0.7,0,1.3,0.1,1.9,0.4l-0.3,1C28.6,67.1,28,67,27.4,67c-0.8-0.1-1.5,0.4-1.6,1.2
		v0.1c0,0.8,0.5,1.2,1.7,1.7c1.5,0.6,2.1,1.3,2.1,2.5s-1,2.4-2.9,2.4c-0.8,0-1.5-0.2-2.1-0.6L25,73.4z"/>
	<path class="st1" d="M32.3,71.5L32.3,71.5c0.2-0.2,0.4-0.5,0.6-0.7l1.8-2.1H36l-2.3,2.5l2.6,3.6h-1.4l-2.1-2.9l-0.6,0.6v2.2h-1.1
		v-8.9h1.1L32.3,71.5L32.3,71.5z"/>
	<path class="st1" d="M38.5,67c0,0.4-0.3,0.7-0.7,0.7s-0.7-0.3-0.7-0.7c0-0.4,0.3-0.7,0.7-0.7l0,0C38.2,66.2,38.5,66.5,38.5,67
		C38.5,66.9,38.5,67,38.5,67z M37.3,74.8v-6h1.1v6H37.3z"/>
	<path class="st1" d="M40.3,70.3c0-0.6,0-1.2,0-1.7h1l0.1,1l0,0c0.4-0.7,1.2-1.2,2-1.2c0.9,0,2.1,0.5,2.1,2.6v3.6h-1.2v-3.5
		c0-1-0.4-1.8-1.4-1.8c-0.7,0-1.3,0.5-1.5,1.2c-0.1,0.2-0.1,0.3-0.1,0.5v3.7h-1.1L40.3,70.3L40.3,70.3z"/>
	<path class="st1" d="M52.4,65.8v7.4c0,0.6,0,1.2,0,1.6h-1v-1.1l0,0c-0.4,0.8-1.3,1.3-2.1,1.2c-1.5,0-2.6-1.3-2.6-3.1
		c0-2,1.3-3.3,2.7-3.3c0.8-0.1,1.5,0.3,1.9,1l0,0v-3.6H52.4L52.4,65.8z M51.4,71.2c0-0.2,0-0.3,0-0.5c-0.2-0.8-0.8-1.3-1.6-1.3
		c-1.2,0-1.9,1-1.9,2.3s0.6,2.2,1.8,2.2c0.8,0,1.5-0.6,1.7-1.4c0-0.2,0.1-0.3,0-0.5V71.2z"/>
	<path class="st1" d="M55,72c-0.1,1.1,0.7,2,1.8,2.1c0.1,0,0.2,0,0.3,0c0.6,0,1.2-0.1,1.7-0.3l0.2,0.8c-0.7,0.3-1.4,0.4-2,0.4
		c-1.6,0.1-2.9-1.1-3-2.6c0-0.2,0-0.3,0-0.5c0-1.9,1.1-3.3,2.8-3.3c1.9,0,2.5,1.8,2.5,2.8c0,0.2,0,0.4,0,0.5L55,72L55,72z
		 M58.2,71.2c0.1-0.9-0.5-1.7-1.4-1.8c-0.1,0-0.1,0-0.2,0c-1,0.1-1.7,0.9-1.7,1.8C55,71.2,58.2,71.2,58.2,71.2z"/>
	<path class="st1" d="M61.1,68.7l0.9,1.3c0.2,0.3,0.4,0.7,0.6,1l0,0c0.2-0.4,0.4-0.7,0.6-1l0.9-1.3h1.2l-2,2.9l2.1,3.1H64l-1-1.4
		c-0.2-0.4-0.5-0.7-0.7-1.1l0,0c-0.2,0.4-0.4,0.7-0.7,1.1l-0.8,1.5h-1.2l2.1-3.1l-2-3L61.1,68.7L61.1,68.7z"/>
</g>
<rect x="53.6" y="33" class="st1" width="10" height="14.7"/>
<polygon class="st1" points="49.2,33.5 58.5,25.5 67.9,33.5 "/>
<path class="st1" d="M45.6,11.7c0,0-2.4-8.6-10.7-10.4l-2.7,3.1c0,0,6.4,4.8,5.2,8.8c0,0-22.2,1.5-15,23.2
	c5,15.2,29.8,11.2,29.8,11.2l-0.1-8c-0.9,1.1-2.2,1.8-3.7,1.9c-3.7,0.4-5.4-4.3-5.4-4.3l3.4-1.2c1.5,6.3,3.1,1.1,3.7-1l-2.2-0.1
	l-2.6-0.1l13.4-11.4l6.9,6C65.5,29.5,65.6,8.1,45.6,11.7z M31.6,41.6C25.5,41,26.3,33,26.3,33l3.4,1.3c0,0,2.1,9.6,3.9,1.9l3.4,1.2
	C37,37.4,35.3,42,31.6,41.6z"/>
</svg>
