<?xml version="1.0" encoding="utf-8"?>
<!-- Generator: Adobe Illustrator 14.0.0, SVG Export Plug-In . SVG Version: 6.00 Build 43363)  -->
<!DOCTYPE svg PUBLIC "-//W3C//DTD SVG 1.1//EN" "http://www.w3.org/Graphics/SVG/1.1/DTD/svg11.dtd">
<svg version="1.1" id="Layer_1" xmlns="http://www.w3.org/2000/svg" xmlns:xlink="http://www.w3.org/1999/xlink" x="0px" y="0px"
	 width="90px" height="90px" viewBox="0 0 90 90" enable-background="new 0 0 90 90" xml:space="preserve">
<g>
	<polygon fill="#FFFFFF" points="45.081,37.755 36.394,37.755 40.737,33.334 	"/>
	<path fill="#FFFFFF" d="M48.219,40.813H33.22l-4.418,4.534c0,0-1.285,1.321,0,2.947c1.283,1.622,12.125,12.125,12.125,12.125
		s1.426,1.246,2.998,0s11.886-11.975,11.886-11.975L48.219,40.813z"/>
	<path fill="#FFFFFF" d="M49.59,40.813l7.744,7.669c0,0,0.719,0.906,1.586,0c0.871-0.907,1.664-1.699,1.664-1.699
		s0.529-0.529-0.453-1.512C59.248,44.39,44.45,29.48,44.45,29.48s-0.871-1.021-1.852,0s-1.283,1.285-1.283,1.285
		s-0.982,0.755,0,1.812s5.252,5.177,5.252,5.177h3.929c0,0,1.096,0.036,1.209,1.435C51.82,40.587,50.762,40.813,49.59,40.813z"/>
	<path fill="#FFFFFF" d="M57.41,41.003c0,0,3.061-0.265,5.705,1.134c2.645,1.397,3.248,3.852,3.248,5.968s-0.266,6.12-0.83,6.686
		c-0.568,0.568-1.248,0.908-1.965-0.377c-0.719-1.284,0.773-6.838-2.842-10.048L57.41,41.003z"/>
	<circle fill="#FFFFFF" cx="29.964" cy="39.341" r="2.285"/>
	<path fill="#FFFFFF" stroke="#FFFFFF" d="M50.723,39.25c0-0.263-0.137-0.477-0.307-0.477H31.651c-0.17,0-0.309,0.214-0.309,0.477
		v0.144c0,0.263,0.139,0.476,0.309,0.476h18.765c0.17,0,0.307-0.213,0.307-0.476V39.25z"/>
</g>
</svg>
