<?xml version="1.0" encoding="utf-8"?>
<!-- Generator: Adobe Illustrator 14.0.0, SVG Export Plug-In . SVG Version: 6.00 Build 43363)  -->
<!DOCTYPE svg PUBLIC "-//W3C//DTD SVG 1.1//EN" "http://www.w3.org/Graphics/SVG/1.1/DTD/svg11.dtd">
<svg version="1.1" id="Layer_1" xmlns="http://www.w3.org/2000/svg" xmlns:xlink="http://www.w3.org/1999/xlink" x="0px" y="0px"
	 width="90px" height="90px" viewBox="0 0 90 90" enable-background="new 0 0 90 90" xml:space="preserve">
<path fill="#FFFFFF" d="M46.38,38.363L32.593,51.582l-0.322,2.529l-1.969,1.892c0,0-1.228,4.456,2.841,2.96l1.969-1.888l2.804,0.058
	l13.789-13.22L46.38,38.363z"/>
<path fill="#FFFFFF" d="M56.358,41.616c0.381-0.273,0.752-0.58,1.107-0.92c2.875-2.758,3.604-6.662,1.627-8.726
	c-1.977-2.062-5.908-1.496-8.781,1.261c-0.355,0.34-0.68,0.7-0.969,1.072c-1.381-0.406-2.621-0.292-3.4,0.455
	c-1.579,1.516-0.664,5.037,2.047,7.863c2.709,2.826,6.189,3.889,7.768,2.375C56.536,44.249,56.706,43.013,56.358,41.616"/>
<path fill="none" stroke="#4D4D4D" d="M56.358,41.616c0.381-0.273,0.752-0.58,1.107-0.92c2.875-2.758,3.604-6.662,1.627-8.726
	c-1.977-2.062-5.908-1.496-8.781,1.261c-0.355,0.34-0.68,0.7-0.969,1.072c-1.381-0.406-2.621-0.292-3.4,0.455
	c-1.579,1.516-0.664,5.037,2.047,7.863c2.709,2.826,6.189,3.889,7.768,2.375C56.536,44.249,56.706,43.013,56.358,41.616z"/>
</svg>
