<?xml version="1.0" encoding="utf-8"?>
<!-- Generator: Adobe Illustrator 14.0.0, SVG Export Plug-In . SVG Version: 6.00 Build 43363)  -->
<!DOCTYPE svg PUBLIC "-//W3C//DTD SVG 1.1//EN" "http://www.w3.org/Graphics/SVG/1.1/DTD/svg11.dtd">
<svg version="1.1" id="Layer_1" xmlns="http://www.w3.org/2000/svg" xmlns:xlink="http://www.w3.org/1999/xlink" x="0px" y="0px"
	 width="43.75px" height="90px" viewBox="0 0 43.75 90" enable-background="new 0 0 43.75 90" xml:space="preserve">
<g>
	<path fill="#FFFFFF" d="M32.564,39.658l-11.187,10.51l-6.104,1.693c0,0,1.527,2.068-0.846,4.068h-3.561
		c0,0-2.882-0.848-1.016-3.557c0,0,2.542-0.172,3.729-1.865l1.525-5.934l10.509-12.033L32.564,39.658z"/>
	<path fill="none" stroke="#4D4D4D" d="M32.564,39.658l-11.187,10.51l-6.104,1.693c0,0,1.527,2.068-0.846,4.068h-3.561
		c0,0-2.882-0.848-1.016-3.557c0,0,2.542-0.172,3.729-1.865l1.525-5.934l10.509-12.033L32.564,39.658z"/>
	<line fill="#FFFFFF" x1="20.894" y1="37.945" x2="27.692" y2="44.234"/>
	<line fill="none" stroke="#4D4D4D" x1="20.894" y1="37.945" x2="27.692" y2="44.234"/>
	<line fill="#FFFFFF" x1="15.106" y1="44.572" x2="21.378" y2="50.168"/>
	<line fill="none" stroke="#4D4D4D" x1="15.106" y1="44.572" x2="21.378" y2="50.168"/>
	<line fill="#FFFFFF" x1="13.581" y1="50.506" x2="15.274" y2="51.861"/>
	<line fill="none" stroke="#4D4D4D" x1="13.581" y1="50.506" x2="15.274" y2="51.861"/>
	<polygon fill="#FFFFFF" points="34.114,48.447 29.411,48.447 29.411,43.746 25.596,43.746 25.596,48.447 20.893,48.447 
		20.893,52.264 25.596,52.264 25.596,56.967 29.411,56.967 29.411,52.264 34.114,52.264 	"/>
	<polygon fill="none" stroke="#4D4D4D" points="34.114,48.447 29.411,48.447 29.411,43.746 25.596,43.746 25.596,48.447 
		20.893,48.447 20.893,52.264 25.596,52.264 25.596,56.967 29.411,56.967 29.411,52.264 34.114,52.264 	"/>
</g>
</svg>
