<?xml version="1.0" encoding="utf-8"?>
<!-- Generator: Adobe Illustrator 14.0.0, SVG Export Plug-In . SVG Version: 6.00 Build 43363)  -->
<!DOCTYPE svg PUBLIC "-//W3C//DTD SVG 1.1//EN" "http://www.w3.org/Graphics/SVG/1.1/DTD/svg11.dtd">
<svg version="1.1" id="Layer_1" xmlns="http://www.w3.org/2000/svg" xmlns:xlink="http://www.w3.org/1999/xlink" x="0px" y="0px"
	 width="90px" height="90px" viewBox="0 0 90 90" enable-background="new 0 0 90 90" xml:space="preserve">
<rect x="26.208" y="31.961" fill="#FFFFFF" width="30.005" height="30.006"/>
<rect x="26.208" y="31.961" fill="none" stroke="#4D4D4D" width="30.005" height="30.006"/>
<path fill="#FFFFFF" d="M26.51,52.457c0,0,16.062,2.729,11.819-7.273c0,0,3.312-5.069,5.597-3.141c0,0,13.728,14.18,5.582,20.114
	H26.51V52.457z"/>
<path fill="none" stroke="#4D4D4D" d="M26.208,52.391c0,0,16.364,2.795,12.122-7.207c0,0,3.312-5.069,5.597-3.141
	c0,0,14.136,14.18,5.99,20.114l-23.708-0.189V52.391z"/>
<polygon fill="#FFFFFF" points="61.67,37.302 52.123,31.96 53.789,30.027 56.213,30.329 61.971,21.843 63.791,23.359 63.791,27.604 
	61.67,30.027 "/>
<polygon fill="none" stroke="#4D4D4D" points="61.67,37.302 52.123,31.96 53.789,30.027 56.213,30.329 61.971,21.843 63.791,23.359 
	63.791,27.604 61.67,30.027 "/>
<polygon fill="#FFFFFF" points="61.67,37.302 57.959,42.042 48.031,37.302 52.123,31.96 "/>
<polygon fill="none" stroke="#4D4D4D" points="61.67,37.302 57.959,42.042 48.031,37.302 52.123,31.96 "/>
<polygon fill="#FFFFFF" points="57.959,42.042 52.123,50.639 41.059,46.34 48.031,37.303 "/>
<polygon fill="none" stroke="#4D4D4D" points="57.959,42.042 52.123,50.639 41.059,46.34 48.031,37.303 "/>
</svg>
