<?xml version="1.0" encoding="utf-8"?>
<!-- Generator: Adobe Illustrator 14.0.0, SVG Export Plug-In . SVG Version: 6.00 Build 43363)  -->
<!DOCTYPE svg PUBLIC "-//W3C//DTD SVG 1.1//EN" "http://www.w3.org/Graphics/SVG/1.1/DTD/svg11.dtd">
<svg version="1.1" id="Layer_1" xmlns="http://www.w3.org/2000/svg" xmlns:xlink="http://www.w3.org/1999/xlink" x="0px" y="0px"
	 width="43.75px" height="90px" viewBox="0 0 43.75 90" enable-background="new 0 0 43.75 90" xml:space="preserve">
<g>
	<path fill="#FFFFFF" d="M33.015,39.736l-11.188,10.51l-6.102,1.695c0,0,1.527,2.064-0.847,4.066h-3.559
		c0,0-2.883-0.848-1.018-3.559c0,0,2.543-0.17,3.729-1.865l1.526-5.932l10.507-12.035L33.015,39.736z"/>
	<path fill="none" stroke="#4D4D4D" d="M33.015,39.736l-11.188,10.51l-6.102,1.695c0,0,1.527,2.064-0.847,4.066h-3.559
		c0,0-2.883-0.848-1.018-3.559c0,0,2.543-0.17,3.729-1.865l1.526-5.932l10.507-12.035L33.015,39.736z"/>
	<line fill="#FFFFFF" x1="21.343" y1="38.023" x2="28.142" y2="44.314"/>
	<line fill="none" stroke="#4D4D4D" x1="21.343" y1="38.023" x2="28.142" y2="44.314"/>
	<line fill="#FFFFFF" x1="15.556" y1="44.65" x2="21.827" y2="50.246"/>
	<line fill="none" stroke="#4D4D4D" x1="15.556" y1="44.65" x2="21.827" y2="50.246"/>
	<line fill="#FFFFFF" x1="14.03" y1="50.584" x2="15.725" y2="51.939"/>
	<line fill="none" stroke="#4D4D4D" x1="14.03" y1="50.584" x2="15.725" y2="51.939"/>
	<rect x="21.53" y="48.117" fill="#FFFFFF" width="13.221" height="3.816"/>
	<rect x="21.53" y="48.117" fill="none" stroke="#4D4D4D" width="13.221" height="3.816"/>
</g>
</svg>
