<?xml version="1.0" encoding="utf-8"?>
<!-- Generator: Adobe Illustrator 14.0.0, SVG Export Plug-In . SVG Version: 6.00 Build 43363)  -->
<!DOCTYPE svg PUBLIC "-//W3C//DTD SVG 1.1//EN" "http://www.w3.org/Graphics/SVG/1.1/DTD/svg11.dtd">
<svg version="1.1" id="Layer_1" xmlns="http://www.w3.org/2000/svg" xmlns:xlink="http://www.w3.org/1999/xlink" x="0px" y="0px"
	 width="90px" height="90px" viewBox="0 0 90 90" enable-background="new 0 0 90 90" xml:space="preserve">
<g>
	<rect x="38.287" y="19.5" fill="#FFFFFF" width="13" height="12.161"/>
	<rect x="38.287" y="35.308" fill="#FFFFFF" width="13" height="16.021"/>
	<rect x="30.833" y="35.308" fill="#FFFFFF" width="5.121" height="16.125"/>
	<rect x="38.287" y="55.245" fill="#FFFFFF" width="5.121" height="16.096"/>
	<polyline fill="none" stroke="#FFFFFF" stroke-width="0.75" points="56.183,35.581 54.464,35.581 54.464,38.131 	"/>
	<line fill="none" stroke="#FFFFFF" stroke-width="0.75" x1="54.464" y1="41.558" x2="54.464" y2="45.421"/>
	<polyline fill="none" stroke="#FFFFFF" stroke-width="0.75" points="54.495,48.849 54.495,51.058 56.245,51.058 	"/>
	<polyline fill="none" stroke="#FFFFFF" stroke-width="0.75" points="57.511,35.581 59.229,35.581 59.229,38.131 	"/>
	<line fill="none" stroke="#FFFFFF" stroke-width="0.75" x1="59.229" y1="41.558" x2="59.229" y2="45.421"/>
	<polyline fill="none" stroke="#FFFFFF" stroke-width="0.75" points="59.198,48.849 59.198,51.058 57.448,51.058 	"/>
	<polyline fill="none" stroke="#FFFFFF" stroke-width="0.75" points="47.901,55.6 46.183,55.6 46.183,58.149 	"/>
	<line fill="none" stroke="#FFFFFF" stroke-width="0.75" x1="46.183" y1="61.576" x2="46.183" y2="65.439"/>
	<polyline fill="none" stroke="#FFFFFF" stroke-width="0.75" points="46.214,68.867 46.214,71.076 47.964,71.076 	"/>
	<polyline fill="none" stroke="#FFFFFF" stroke-width="0.75" points="49.589,55.6 51.287,55.6 51.287,58.149 	"/>
	<line fill="none" stroke="#FFFFFF" stroke-width="0.75" x1="51.19" y1="61.576" x2="51.19" y2="65.439"/>
	<polyline fill="none" stroke="#FFFFFF" stroke-width="0.75" points="51.287,68.867 51.287,71.076 49.542,71.076 	"/>
</g>
</svg>
