<?xml version="1.0" encoding="utf-8"?>
<!-- Generator: Adobe Illustrator 14.0.0, SVG Export Plug-In . SVG Version: 6.00 Build 43363)  -->
<!DOCTYPE svg PUBLIC "-//W3C//DTD SVG 1.1//EN" "http://www.w3.org/Graphics/SVG/1.1/DTD/svg11.dtd">
<svg version="1.1" id="Layer_1" xmlns="http://www.w3.org/2000/svg" xmlns:xlink="http://www.w3.org/1999/xlink" x="0px" y="0px"
	 width="43.75px" height="90px" viewBox="0 0 43.75 90" enable-background="new 0 0 43.75 90" xml:space="preserve">
<g>
	<g>
		<path fill="#FFFFFF" d="M19.396,33.644c4.202,0,7.609,3.407,7.609,7.61s-3.407,7.61-7.609,7.61c-4.203,0-7.61-3.407-7.61-7.61
			S15.193,33.644,19.396,33.644 M19.396,29.644c-6.402,0-11.61,5.208-11.61,11.61c0,6.402,5.208,11.61,11.61,11.61
			c6.401,0,11.609-5.208,11.609-11.61C31.005,34.852,25.797,29.644,19.396,29.644L19.396,29.644z"/>
	</g>
	<rect x="13.787" y="39.162" fill="#FFFFFF" stroke="#FFFFFF" width="11.333" height="3.667"/>
	<path fill="#FFFFFF" stroke="#FFFFFF" d="M36.695,58.962c-0.83,0.815-2.068,0.899-2.771,0.187l-8.073-9.146
		c-0.7-0.713-1.552-1.995-0.721-2.811l0,0c0.831-0.817,1.115-0.944,1.814-0.231l9.985,9.231
		C37.633,56.905,37.526,58.144,36.695,58.962L36.695,58.962z"/>
</g>
</svg>
