<svg id="svg" version="1.1" xmlns="http://www.w3.org/2000/svg" xmlns:xlink="http://www.w3.org/1999/xlink" width="400" height="400" viewBox="0, 0, 400,400"><g id="svgg"><path id="path0" d="M192.000 27.200 C 192.000 27.420,191.460 27.600,190.800 27.600 C 190.140 27.600,189.600 27.780,189.600 28.000 C 189.600 28.220,189.325 28.400,188.989 28.400 C 188.196 28.400,184.800 31.796,184.800 32.589 C 184.800 32.925,184.620 33.200,184.400 33.200 C 184.180 33.200,184.000 33.560,184.000 34.000 C 184.000 34.440,183.820 34.800,183.600 34.800 C 183.359 34.800,183.200 36.467,183.200 39.000 C 183.200 41.533,183.359 43.200,183.600 43.200 C 183.820 43.200,184.000 43.560,184.000 44.000 C 184.000 44.440,184.180 44.800,184.400 44.800 C 184.620 44.800,184.800 45.078,184.800 45.418 C 184.800 46.321,186.626 48.000,187.608 48.000 C 188.073 48.000,188.846 48.220,189.326 48.488 C 198.591 53.664,209.635 43.673,204.842 34.450 C 204.342 33.488,204.026 32.343,204.140 31.906 C 204.482 30.602,200.767 27.600,198.811 27.600 C 198.391 27.600,197.936 27.420,197.800 27.200 C 197.664 26.980,196.303 26.800,194.776 26.800 C 193.192 26.800,192.000 26.972,192.000 27.200 M195.600 36.769 C 195.600 36.972,196.230 37.346,197.000 37.600 C 198.803 38.195,198.890 39.571,197.231 41.231 C 195.743 42.719,194.161 42.791,193.527 41.400 C 193.277 40.850,192.920 40.400,192.736 40.400 C 192.044 40.400,192.434 38.335,193.300 37.410 C 194.194 36.455,195.600 36.063,195.600 36.769 M41.588 65.226 C 41.153 65.839,40.716 65.997,39.904 65.837 C 39.188 65.696,38.841 65.783,38.904 66.087 C 38.957 66.343,38.671 66.624,38.268 66.712 C 37.393 66.902,34.005 70.387,34.002 71.100 C 34.001 71.375,33.820 71.600,33.600 71.600 C 33.380 71.600,33.200 71.960,33.200 72.400 C 33.200 72.840,33.027 73.200,32.815 73.200 C 32.571 73.200,32.461 81.690,32.515 96.300 L 32.600 119.400 199.800 119.400 L 367.000 119.400 367.103 97.119 L 367.207 74.838 366.253 72.719 C 365.152 70.271,363.331 68.305,361.021 67.068 C 359.075 66.026,389.039 66.226,109.900 65.393 C 65.958 65.262,42.800 65.056,42.800 64.797 C 42.800 64.140,42.214 64.348,41.588 65.226 M228.281 82.480 C 228.897 82.745,229.940 83.330,230.600 83.780 C 231.791 84.594,232.194 84.601,285.735 84.800 L 339.669 85.000 340.635 86.122 C 341.578 87.219,341.600 87.409,341.600 94.462 L 341.600 101.679 340.358 102.840 L 339.115 104.000 288.853 104.000 L 238.590 104.000 238.195 104.887 C 236.875 107.850,233.634 107.609,230.383 104.306 C 228.725 102.622,228.339 102.405,227.652 102.772 C 224.995 104.194,218.914 102.602,216.498 99.851 C 209.177 91.513,218.232 78.165,228.281 82.480 M98.608 86.984 C 104.860 90.647,103.635 100.183,96.599 102.631 C 90.351 104.806,83.924 98.595,85.787 92.185 C 87.445 86.482,93.536 84.011,98.608 86.984 M124.886 86.100 C 133.473 91.008,130.851 103.200,121.208 103.200 C 112.209 103.200,109.063 91.621,116.739 86.752 C 118.768 85.466,123.160 85.114,124.886 86.100 M222.662 90.731 C 220.777 92.814,223.447 96.367,225.635 94.687 C 226.981 93.653,227.207 92.623,226.383 91.269 C 225.483 89.788,223.743 89.537,222.662 90.731 M93.800 144.628 C 91.633 145.752,90.507 147.216,88.794 151.135 C 86.125 157.241,85.589 158.445,84.404 161.000 C 83.791 162.320,82.348 165.560,81.196 168.200 C 80.044 170.840,78.739 173.810,78.295 174.800 C 77.851 175.790,75.703 180.650,73.522 185.600 C 68.391 197.247,68.415 197.193,67.722 198.600 C 65.837 202.427,66.953 207.100,70.252 209.192 L 72.157 210.400 86.198 210.400 C 96.586 210.400,100.365 210.525,100.720 210.880 C 101.078 211.238,101.202 215.686,101.209 228.380 C 101.217 244.083,101.275 245.526,101.959 247.031 C 104.169 251.899,110.460 253.001,114.428 249.215 C 116.725 247.024,116.795 246.393,116.798 227.980 C 116.800 209.833,116.723 210.405,119.180 210.393 C 125.750 210.363,128.560 201.384,123.413 196.865 C 121.995 195.620,121.672 195.487,118.600 194.881 L 117.000 194.566 116.800 185.583 L 116.600 176.600 115.321 174.758 C 112.648 170.910,107.963 170.207,104.100 173.076 C 101.585 174.942,101.421 175.652,101.200 185.600 L 101.000 194.600 93.900 194.709 C 89.995 194.769,86.800 194.662,86.800 194.471 C 86.800 194.279,87.053 193.600,87.362 192.961 C 87.985 191.672,87.816 192.055,93.800 178.400 C 98.614 167.415,99.285 165.894,100.645 162.888 C 101.170 161.727,101.600 160.700,101.600 160.606 C 101.600 160.513,102.116 159.303,102.746 157.918 C 104.607 153.829,104.800 153.238,104.800 151.630 C 104.800 146.230,98.473 142.202,93.800 144.628 M148.513 144.379 C 142.346 145.886,136.929 151.743,135.622 158.320 C 134.913 161.884,135.060 235.237,135.781 237.948 C 137.587 244.731,142.149 249.232,149.037 251.026 C 151.792 251.744,177.725 251.859,180.723 251.167 C 187.284 249.652,192.112 245.301,194.011 239.191 C 194.807 236.634,194.820 235.802,194.711 196.791 L 194.600 157.000 193.108 153.947 C 191.302 150.252,188.237 147.256,184.400 145.435 L 181.800 144.200 165.800 144.132 C 157.000 144.095,149.221 144.206,148.513 144.379 M230.721 144.794 C 228.407 146.051,227.636 147.414,221.996 160.200 C 219.085 166.800,216.254 173.190,215.705 174.400 C 215.156 175.610,212.649 181.280,210.134 187.000 C 207.619 192.720,205.210 198.163,204.781 199.096 C 203.014 202.934,204.290 207.364,207.746 209.389 L 209.470 210.400 223.735 210.400 C 231.581 210.400,238.039 210.445,238.086 210.500 C 238.133 210.555,238.268 218.640,238.386 228.466 L 238.600 246.332 239.800 248.031 C 243.067 252.654,249.496 252.552,252.700 247.827 L 254.000 245.910 254.000 228.398 C 254.000 209.164,253.835 210.400,256.407 210.400 C 265.830 210.400,265.520 196.225,256.069 194.971 L 254.000 194.697 254.000 186.144 C 254.000 178.246,253.935 177.452,253.146 175.775 C 251.001 171.211,245.456 169.934,241.357 173.060 C 238.872 174.955,238.622 176.034,238.400 185.800 L 238.200 194.600 231.430 194.710 C 227.706 194.770,224.522 194.680,224.352 194.510 C 224.103 194.259,226.623 188.183,231.781 176.600 C 232.075 175.940,232.695 174.545,233.158 173.500 C 233.621 172.455,234.360 170.790,234.800 169.800 C 235.240 168.810,235.960 167.190,236.400 166.200 C 236.840 165.210,237.542 163.635,237.960 162.700 C 241.706 154.320,242.104 153.120,241.872 150.878 C 241.326 145.590,235.304 142.304,230.721 144.794 M178.720 160.080 C 179.546 160.906,179.401 234.142,178.571 234.971 C 177.407 236.136,152.251 235.894,151.423 234.711 C 150.441 233.310,150.479 161.418,151.462 160.331 C 152.290 159.417,177.822 159.182,178.720 160.080 M48.000 348.712 C 46.428 349.509,45.277 351.283,45.216 353.000 C 45.172 354.236,44.008 356.000,43.236 356.000 C 42.996 356.000,42.800 356.180,42.800 356.400 C 42.800 356.620,42.035 356.800,41.100 356.800 C 39.252 356.801,37.200 358.140,37.200 359.347 C 37.200 359.706,37.020 360.000,36.800 360.000 C 36.580 360.000,36.400 360.630,36.400 361.400 C 36.400 362.170,36.580 362.800,36.800 362.800 C 37.020 362.800,37.200 363.094,37.200 363.453 C 37.200 364.569,39.252 365.999,40.853 366.000 C 42.653 366.000,44.800 367.967,44.800 369.614 C 44.800 372.276,47.306 374.796,49.957 374.799 C 52.085 374.801,54.400 371.990,54.400 369.405 C 54.400 367.986,56.251 366.000,57.574 366.000 C 60.200 366.000,62.800 363.580,62.800 361.138 C 62.799 358.952,60.392 356.800,57.949 356.800 C 56.294 356.800,54.534 354.984,54.195 352.928 C 53.551 349.029,50.914 347.234,48.000 348.712 " stroke="none" fill="#fb72b5" fill-rule="evenodd"></path><path id="path1" d="M289.300 0.271 C 286.775 0.358,284.800 0.596,284.800 0.813 C 284.800 1.026,283.540 1.200,282.000 1.200 C 280.400 1.200,279.200 1.371,279.200 1.600 C 279.200 1.826,278.067 2.000,276.600 2.000 C 275.133 2.000,274.000 2.174,274.000 2.400 C 274.000 2.620,273.115 2.800,272.033 2.800 C 270.952 2.800,270.007 2.970,269.933 3.179 C 269.860 3.387,268.945 3.600,267.900 3.653 C 266.855 3.706,266.000 3.896,266.000 4.075 C 266.000 4.254,265.190 4.400,264.200 4.400 C 263.210 4.400,262.400 4.580,262.400 4.800 C 262.400 5.020,261.680 5.200,260.800 5.200 C 259.920 5.200,259.200 5.380,259.200 5.600 C 259.200 5.820,258.660 6.000,258.000 6.000 C 257.340 6.000,256.800 6.180,256.800 6.400 C 256.800 6.620,256.080 6.800,255.200 6.800 C 254.320 6.800,253.600 6.980,253.600 7.200 C 253.600 7.420,253.060 7.600,252.400 7.600 C 251.740 7.600,251.200 7.780,251.200 8.000 C 251.200 8.220,250.660 8.400,250.000 8.400 C 249.340 8.400,248.800 8.574,248.800 8.787 C 248.800 9.001,248.547 9.078,248.237 8.959 C 247.639 8.729,244.699 9.618,242.789 10.606 C 242.157 10.933,241.181 11.200,240.620 11.200 C 240.059 11.200,239.600 11.380,239.600 11.600 C 239.600 11.820,239.150 12.000,238.600 12.000 C 238.050 12.000,237.600 12.180,237.600 12.400 C 237.600 12.620,237.251 12.800,236.824 12.800 C 236.397 12.800,235.936 12.980,235.800 13.200 C 235.664 13.420,235.203 13.600,234.776 13.600 C 234.349 13.600,234.000 13.780,234.000 14.000 C 234.000 14.220,233.561 14.400,233.024 14.400 C 232.487 14.400,231.936 14.580,231.800 14.800 C 231.664 15.020,231.203 15.200,230.776 15.200 C 230.349 15.200,230.000 15.380,230.000 15.600 C 230.000 15.820,229.640 16.000,229.200 16.000 C 228.760 16.000,228.400 16.180,228.400 16.400 C 228.400 16.620,228.040 16.800,227.600 16.800 C 227.160 16.800,226.800 16.980,226.800 17.200 C 226.800 17.420,226.530 17.600,226.200 17.600 C 225.870 17.600,225.600 17.780,225.600 18.000 C 225.600 18.220,225.240 18.400,224.800 18.400 C 224.360 18.400,224.000 18.580,224.000 18.800 C 224.000 19.020,223.640 19.200,223.200 19.200 C 222.760 19.200,222.400 19.380,222.400 19.600 C 222.400 19.820,222.040 20.000,221.600 20.000 C 221.160 20.000,220.800 20.152,220.800 20.337 C 220.800 20.523,219.945 21.105,218.900 21.632 C 217.855 22.158,216.910 22.682,216.800 22.795 C 216.560 23.041,214.999 23.946,213.542 24.682 C 212.960 24.976,212.265 25.481,211.997 25.804 C 211.729 26.127,211.350 26.293,211.155 26.172 C 210.960 26.051,210.800 26.143,210.800 26.376 C 210.800 26.609,210.545 26.800,210.233 26.800 C 209.922 26.800,209.607 26.935,209.533 27.100 C 209.208 27.833,206.690 29.580,206.304 29.341 C 206.051 29.184,205.993 29.265,206.162 29.538 C 206.319 29.792,206.244 30.000,205.995 30.000 C 204.549 30.000,203.935 31.877,204.818 33.600 C 209.797 43.309,200.032 53.688,190.146 49.193 C 188.072 48.251,186.259 47.849,186.606 48.409 C 186.721 48.596,186.362 49.202,185.808 49.756 C 185.253 50.310,184.800 50.962,184.800 51.205 C 184.800 51.448,184.592 51.519,184.338 51.362 C 184.062 51.191,183.985 51.251,184.146 51.512 C 184.294 51.752,183.962 52.402,183.408 52.956 C 182.853 53.510,182.400 54.202,182.400 54.494 C 182.400 54.785,182.040 55.283,181.600 55.600 C 181.160 55.917,180.800 56.414,180.800 56.705 C 180.800 56.996,180.440 57.620,180.000 58.092 C 179.560 58.564,179.200 59.187,179.200 59.475 C 179.200 59.764,179.064 60.000,178.898 60.000 C 178.602 60.000,178.056 61.081,177.230 63.300 L 176.820 64.400 109.810 64.400 C 72.954 64.400,42.800 64.550,42.800 64.734 C 42.800 65.075,199.429 65.600,301.248 65.600 C 342.796 65.600,358.262 65.722,359.081 66.056 C 362.175 67.318,362.803 67.714,364.324 69.363 C 367.564 72.879,367.397 71.393,367.399 96.800 L 367.400 119.400 199.500 119.400 L 31.600 119.400 31.600 138.304 L 31.600 157.207 30.400 158.463 C 29.740 159.154,29.200 159.878,29.200 160.073 C 29.200 160.268,28.693 160.923,28.072 161.529 C 27.452 162.136,26.603 163.209,26.186 163.916 C 25.769 164.622,25.286 165.200,25.114 165.200 C 24.941 165.200,24.800 165.432,24.800 165.715 C 24.800 165.998,24.267 166.853,23.616 167.615 C 22.965 168.377,22.425 169.225,22.416 169.500 C 22.407 169.775,22.241 170.000,22.047 170.000 C 21.852 170.000,21.593 170.315,21.471 170.700 C 21.170 171.651,19.934 173.664,19.200 174.399 C 18.870 174.730,18.541 175.270,18.470 175.600 C 18.398 175.930,18.173 176.260,17.970 176.333 C 17.766 176.407,17.600 176.729,17.600 177.050 C 17.600 177.371,17.247 178.012,16.815 178.476 C 15.915 179.442,12.209 186.817,12.349 187.363 C 12.400 187.563,12.298 187.833,12.121 187.963 C 11.546 188.387,10.316 190.849,10.558 191.091 C 10.687 191.220,10.604 191.554,10.373 191.832 C 9.749 192.585,8.400 196.455,8.400 197.494 C 8.400 197.992,8.220 198.400,8.000 198.400 C 7.780 198.400,7.600 198.749,7.600 199.176 C 7.600 199.603,7.420 200.064,7.200 200.200 C 6.980 200.336,6.800 200.966,6.800 201.600 C 6.800 202.234,6.620 202.864,6.400 203.000 C 6.180 203.136,6.000 203.687,6.000 204.224 C 6.000 204.761,5.820 205.200,5.600 205.200 C 5.380 205.200,5.200 205.909,5.200 206.776 C 5.200 207.643,5.020 208.464,4.800 208.600 C 4.580 208.736,4.400 209.251,4.400 209.744 C 4.400 210.237,4.238 210.811,4.041 211.020 C 3.695 211.386,3.420 212.863,2.946 216.900 C 2.823 217.945,2.560 218.800,2.361 218.800 C 2.163 218.800,2.000 219.760,2.000 220.933 C 2.000 222.107,1.865 223.202,1.700 223.367 C 1.330 223.736,1.312 223.868,1.250 226.624 C 1.223 227.847,1.037 228.746,0.837 228.623 C 0.319 228.303,0.209 232.337,0.204 251.800 C 0.200 270.198,0.316 273.901,0.909 274.267 C 1.120 274.398,1.047 274.657,0.743 274.857 C 0.294 275.153,0.306 275.278,0.813 275.579 C 1.273 275.852,1.411 276.577,1.366 278.471 C 1.332 279.862,1.458 281.297,1.645 281.660 C 1.832 282.023,2.044 283.053,2.116 283.950 C 2.188 284.846,2.371 285.704,2.523 285.857 C 2.675 286.009,2.800 286.981,2.800 288.018 C 2.800 289.136,3.025 290.089,3.355 290.362 C 3.706 290.654,3.842 291.317,3.727 292.171 C 3.627 292.912,3.738 293.638,3.973 293.783 C 4.208 293.928,4.406 294.712,4.413 295.524 C 4.420 296.336,4.671 297.323,4.970 297.719 C 5.270 298.114,5.421 298.796,5.307 299.236 C 5.165 299.776,5.276 299.996,5.649 299.917 C 6.038 299.834,6.200 300.231,6.200 301.266 C 6.200 302.072,6.335 302.867,6.500 303.032 C 6.665 303.198,6.803 303.708,6.806 304.167 C 6.813 305.090,7.696 307.830,8.126 308.259 C 8.277 308.410,8.400 308.943,8.400 309.443 C 8.400 309.943,8.579 310.463,8.798 310.599 C 9.017 310.734,9.395 311.216,9.638 311.671 C 9.958 312.268,9.958 312.421,9.640 312.225 C 9.398 312.075,9.200 312.160,9.200 312.414 C 9.200 312.667,9.560 312.969,10.000 313.084 C 10.440 313.199,10.800 313.553,10.800 313.870 C 10.800 314.188,10.620 314.336,10.400 314.200 C 10.180 314.064,10.000 314.203,10.000 314.510 C 10.000 315.390,10.474 315.636,11.127 315.097 C 11.657 314.659,11.663 314.706,11.174 315.490 C 10.737 316.192,10.723 316.483,11.110 316.870 C 11.380 317.140,11.600 317.674,11.600 318.057 C 11.600 318.441,12.005 319.040,12.500 319.389 C 13.264 319.927,13.309 320.080,12.800 320.405 C 12.219 320.776,12.277 320.844,13.267 320.950 C 13.908 321.019,14.188 322.000,13.567 322.000 C 13.292 322.000,13.202 322.135,13.367 322.300 C 13.532 322.465,13.862 322.600,14.100 322.600 C 14.338 322.600,14.617 322.850,14.719 323.156 C 14.831 323.493,14.726 323.602,14.452 323.432 C 13.610 322.912,13.991 324.262,15.525 327.240 C 16.660 329.441,17.233 330.168,17.761 330.074 C 18.308 329.978,18.412 330.132,18.216 330.749 C 17.829 331.968,19.367 334.411,20.321 334.093 C 20.692 333.969,20.763 334.210,20.574 334.961 C 20.411 335.612,20.479 336.000,20.757 336.000 C 21.000 336.000,21.200 336.360,21.200 336.800 C 21.200 337.240,21.380 337.600,21.600 337.600 C 21.820 337.600,22.000 337.883,22.000 338.229 C 22.000 339.087,22.885 339.905,23.567 339.678 C 23.943 339.552,24.049 339.697,23.888 340.115 C 23.563 340.963,25.521 344.800,26.279 344.800 C 26.642 344.800,26.797 345.031,26.665 345.376 C 26.190 346.613,30.312 352.749,31.236 352.178 C 31.406 352.073,31.670 352.190,31.824 352.438 C 31.977 352.686,31.895 353.018,31.642 353.174 C 31.204 353.444,32.483 355.000,33.142 355.000 C 33.284 355.000,33.375 355.225,33.344 355.500 C 33.314 355.775,33.539 356.000,33.844 356.000 C 34.150 356.000,34.400 356.326,34.400 356.725 C 34.400 357.124,34.900 357.930,35.512 358.516 L 36.624 359.581 37.812 358.199 C 38.828 357.018,39.255 356.816,40.757 356.809 C 42.757 356.799,44.793 355.139,44.809 353.504 C 44.869 347.290,53.472 346.167,54.277 352.267 C 54.608 354.781,56.435 356.800,58.379 356.800 C 60.739 356.800,62.800 358.865,62.800 361.228 C 62.799 363.848,60.624 366.000,57.977 366.000 C 57.298 366.000,56.523 366.225,56.255 366.500 C 55.058 367.727,54.400 369.078,54.400 370.311 C 54.400 371.240,54.037 372.030,53.202 372.922 C 51.853 374.361,51.717 374.800,52.624 374.800 C 52.967 374.800,53.130 374.989,52.987 375.221 C 52.842 375.456,53.272 375.848,53.963 376.109 C 54.644 376.365,55.200 376.729,55.200 376.916 C 55.200 377.456,56.287 378.400,56.909 378.400 C 57.221 378.400,57.802 378.760,58.200 379.200 C 58.598 379.640,59.082 380.000,59.275 380.000 C 59.469 380.000,60.155 380.540,60.800 381.200 C 61.445 381.860,62.249 382.400,62.587 382.400 C 62.924 382.400,63.201 382.535,63.203 382.700 C 63.208 383.234,65.944 384.882,66.379 384.613 C 66.610 384.470,66.800 384.633,66.800 384.976 C 66.800 385.319,67.070 385.600,67.400 385.600 C 67.730 385.600,68.000 385.791,68.000 386.024 C 68.000 386.257,68.180 386.336,68.400 386.200 C 68.620 386.064,68.800 386.140,68.800 386.369 C 68.800 386.598,69.250 386.898,69.800 387.036 C 70.350 387.174,70.800 387.432,70.800 387.610 C 70.800 387.943,74.401 389.456,74.852 389.312 C 74.991 389.268,75.424 389.585,75.814 390.016 C 76.205 390.447,76.946 390.800,77.462 390.800 C 77.978 390.800,78.400 390.980,78.400 391.200 C 78.400 391.420,78.670 391.600,79.000 391.600 C 79.330 391.600,79.600 391.741,79.600 391.913 C 79.600 392.085,80.095 392.266,80.700 392.316 C 81.305 392.366,81.860 392.585,81.933 392.803 C 82.007 393.022,82.502 393.200,83.033 393.200 C 83.565 393.200,84.000 393.380,84.000 393.600 C 84.000 393.820,84.461 394.000,85.024 394.000 C 85.604 394.000,85.940 394.173,85.800 394.400 C 85.662 394.624,85.974 394.800,86.510 394.800 C 87.036 394.800,87.593 394.927,87.748 395.082 C 87.903 395.237,88.518 395.428,89.115 395.506 C 89.712 395.585,90.260 395.818,90.333 396.025 C 90.407 396.231,91.092 396.400,91.857 396.400 C 92.682 396.400,93.147 396.563,93.000 396.800 C 92.851 397.042,93.396 397.200,94.376 397.200 C 95.269 397.200,96.000 397.380,96.000 397.600 C 96.000 397.820,96.684 398.000,97.520 398.000 C 98.356 398.000,99.256 398.216,99.520 398.480 C 99.893 398.853,100.001 398.831,100.006 398.380 C 100.010 397.987,100.107 397.946,100.306 398.254 C 101.033 399.377,111.167 400.084,122.600 399.809 C 128.320 399.671,133.311 399.556,133.692 399.554 C 134.073 399.551,134.488 399.381,134.616 399.175 C 134.743 398.969,135.726 398.800,136.800 398.800 C 137.874 398.800,138.864 398.620,139.000 398.400 C 139.136 398.180,139.946 398.000,140.800 398.000 C 141.654 398.000,142.464 397.820,142.600 397.600 C 142.736 397.380,143.456 397.200,144.200 397.200 C 144.944 397.200,145.664 397.020,145.800 396.800 C 145.936 396.580,146.652 396.400,147.390 396.400 C 148.129 396.400,148.793 396.226,148.867 396.013 C 148.940 395.800,149.573 395.582,150.272 395.530 C 150.972 395.477,151.456 395.291,151.349 395.117 C 151.241 394.943,151.703 394.800,152.376 394.800 C 153.049 394.800,153.600 394.620,153.600 394.400 C 153.600 394.180,154.129 394.000,154.776 394.000 C 155.423 394.000,156.064 393.820,156.200 393.600 C 156.336 393.380,156.887 393.200,157.424 393.200 C 157.961 393.200,158.400 393.020,158.400 392.800 C 158.400 392.580,158.850 392.400,159.400 392.400 C 159.950 392.400,160.400 392.220,160.400 392.000 C 160.400 391.780,160.766 391.600,161.213 391.600 C 161.660 391.600,162.695 391.301,163.513 390.936 C 164.331 390.571,165.090 390.240,165.200 390.202 C 166.283 389.819,167.275 389.392,168.781 388.663 C 169.761 388.188,170.706 387.845,170.881 387.900 C 171.057 387.955,171.200 387.820,171.200 387.600 C 171.200 387.380,171.560 387.200,172.000 387.200 C 172.440 387.200,172.801 387.065,172.803 386.900 C 172.807 386.541,174.744 385.600,175.480 385.600 C 175.766 385.600,176.003 385.465,176.006 385.300 C 176.010 385.135,176.910 384.560,178.006 384.021 C 179.103 383.483,180.000 382.898,180.000 382.721 C 180.000 382.545,180.360 382.400,180.800 382.400 C 181.240 382.400,181.600 382.220,181.600 382.000 C 181.600 381.780,181.920 381.600,182.312 381.600 C 182.703 381.600,183.283 381.240,183.600 380.800 C 183.917 380.360,184.497 380.000,184.888 380.000 C 185.280 380.000,185.600 379.820,185.600 379.600 C 185.600 379.380,185.825 379.195,186.100 379.189 C 186.375 379.183,187.307 378.643,188.171 377.989 C 189.035 377.335,189.892 376.800,190.075 376.800 C 190.258 376.800,190.969 376.264,191.655 375.608 C 192.341 374.952,193.025 374.492,193.176 374.585 C 193.326 374.678,194.387 374.044,195.533 373.177 C 196.679 372.310,197.759 371.600,197.933 371.600 C 198.107 371.600,198.598 371.280,199.025 370.889 C 199.451 370.498,200.430 369.736,201.200 369.195 C 203.290 367.727,204.027 367.131,205.522 365.700 C 206.269 364.985,207.020 364.400,207.192 364.400 C 207.363 364.400,208.245 363.680,209.152 362.800 C 210.059 361.920,210.979 361.200,211.197 361.200 C 211.415 361.200,211.818 360.840,212.093 360.400 C 212.368 359.960,212.728 359.600,212.893 359.600 C 213.238 359.600,215.031 358.136,215.954 357.100 C 216.297 356.715,216.808 356.400,217.089 356.400 C 217.370 356.400,217.600 356.119,217.600 355.776 C 217.600 355.433,217.762 355.253,217.960 355.375 C 218.158 355.497,218.872 354.968,219.547 354.199 C 220.223 353.429,220.879 352.800,221.006 352.800 C 221.133 352.800,221.686 352.350,222.236 351.800 C 222.786 351.250,223.093 350.799,222.918 350.797 C 222.743 350.796,223.140 350.437,223.800 350.000 C 224.460 349.563,224.852 349.204,224.671 349.203 C 224.247 349.199,225.436 348.002,225.871 347.994 C 226.179 347.988,229.933 344.303,235.580 338.462 C 237.615 336.356,237.950 335.822,237.544 335.332 C 237.072 334.763,63.986 334.837,48.522 335.412 C 45.523 335.524,43.549 335.441,43.398 335.197 C 43.263 334.979,42.454 334.800,41.600 334.800 C 40.746 334.800,39.936 334.620,39.800 334.400 C 39.664 334.180,39.203 334.000,38.776 334.000 C 38.349 334.000,38.000 333.820,38.000 333.600 C 38.000 333.380,37.748 333.200,37.440 333.200 C 36.091 333.200,33.678 329.924,32.051 325.881 C 31.333 324.099,31.420 275.047,32.142 274.448 C 32.542 274.116,76.676 274.025,200.542 274.099 L 368.400 274.200 368.400 222.674 C 368.400 169.036,368.363 170.245,370.063 168.753 C 370.468 168.397,370.800 167.940,370.800 167.737 C 370.800 167.534,371.520 166.572,372.400 165.600 C 373.280 164.628,374.000 163.600,374.000 163.316 C 374.000 163.032,374.139 162.800,374.309 162.800 C 374.479 162.800,374.972 162.125,375.405 161.300 C 375.838 160.475,376.290 159.710,376.409 159.600 C 376.996 159.058,379.200 155.795,379.200 155.468 C 379.200 155.262,379.529 154.803,379.930 154.447 C 380.332 154.091,380.916 153.215,381.228 152.500 C 381.540 151.785,381.931 151.200,382.098 151.200 C 382.264 151.200,382.400 150.919,382.400 150.576 C 382.400 150.233,382.580 150.064,382.800 150.200 C 383.020 150.336,383.200 150.077,383.200 149.624 C 383.200 149.171,383.335 148.799,383.500 148.797 C 383.665 148.795,383.998 148.390,384.240 147.897 C 385.422 145.489,386.630 143.387,386.900 143.267 C 387.065 143.193,387.200 142.788,387.200 142.367 C 387.200 141.945,387.380 141.600,387.600 141.600 C 387.820 141.600,388.000 141.240,388.000 140.800 C 388.000 140.360,388.135 139.999,388.300 139.997 C 388.617 139.994,389.600 138.092,389.600 137.482 C 389.600 137.285,389.951 136.630,390.380 136.028 C 390.809 135.425,391.253 134.423,391.366 133.801 C 391.478 133.178,391.757 132.483,391.985 132.255 C 392.213 132.027,392.400 131.426,392.400 130.920 C 392.400 130.414,392.580 130.000,392.800 130.000 C 393.020 130.000,393.200 129.638,393.200 129.195 C 393.200 128.417,393.342 128.031,394.338 126.105 C 394.592 125.613,394.800 124.848,394.800 124.405 C 394.800 123.962,394.980 123.600,395.200 123.600 C 395.420 123.600,395.600 123.060,395.600 122.400 C 395.600 121.740,395.780 121.200,396.000 121.200 C 396.220 121.200,396.400 120.480,396.400 119.600 C 396.400 118.720,396.580 118.000,396.800 118.000 C 397.020 118.000,397.200 117.471,397.200 116.824 C 397.200 116.177,397.380 115.536,397.600 115.400 C 397.820 115.264,398.000 114.443,398.000 113.576 C 398.000 112.709,398.180 112.000,398.400 112.000 C 398.620 112.000,398.800 111.115,398.800 110.033 C 398.800 108.816,398.990 108.003,399.300 107.900 C 399.690 107.770,399.800 103.929,399.800 90.487 C 399.800 77.223,399.685 73.125,399.300 72.740 C 399.025 72.465,398.800 71.376,398.800 70.320 C 398.800 69.264,398.620 68.400,398.400 68.400 C 398.180 68.400,398.000 67.695,398.000 66.833 C 398.000 65.972,397.828 65.207,397.618 65.133 C 397.407 65.060,397.191 64.337,397.137 63.526 C 397.084 62.715,396.896 62.141,396.720 62.249 C 396.544 62.358,396.400 61.907,396.400 61.247 C 396.400 60.587,396.220 59.936,396.000 59.800 C 395.780 59.664,395.600 59.113,395.600 58.576 C 395.600 58.039,395.420 57.600,395.200 57.600 C 394.980 57.600,394.800 57.060,394.800 56.400 C 394.800 55.740,394.620 55.200,394.400 55.200 C 394.180 55.200,394.000 54.951,394.000 54.646 C 394.000 54.341,393.739 53.589,393.420 52.974 C 393.102 52.360,392.932 51.709,393.044 51.529 C 393.156 51.348,393.101 51.200,392.921 51.200 C 392.589 51.200,391.899 49.775,391.387 48.032 C 391.231 47.499,390.503 46.126,389.770 44.980 C 389.037 43.834,388.549 42.785,388.685 42.648 C 388.822 42.512,388.723 42.400,388.467 42.400 C 388.210 42.400,388.000 42.130,388.000 41.800 C 388.000 41.470,387.820 41.200,387.600 41.200 C 387.380 41.200,387.200 40.906,387.200 40.547 C 387.200 40.188,386.884 39.603,386.497 39.247 C 386.111 38.891,385.540 38.105,385.230 37.500 C 384.919 36.895,384.515 36.400,384.332 36.400 C 384.150 36.400,384.000 36.029,384.000 35.576 C 384.000 35.123,383.847 34.847,383.660 34.963 C 383.473 35.078,383.083 34.729,382.793 34.186 C 382.502 33.644,382.115 33.200,381.932 33.200 C 381.750 33.200,381.600 32.967,381.600 32.681 C 381.600 32.396,380.232 30.731,378.559 28.981 C 376.887 27.232,375.177 25.371,374.759 24.846 C 374.342 24.321,374.000 24.020,374.000 24.176 C 374.000 24.332,373.096 23.546,371.992 22.430 C 370.887 21.313,369.807 20.400,369.592 20.400 C 369.376 20.400,369.200 20.130,369.200 19.800 C 369.200 19.470,368.975 19.200,368.700 19.200 C 368.425 19.199,367.660 18.734,367.000 18.165 C 366.340 17.596,365.305 16.837,364.700 16.479 C 364.095 16.121,363.600 15.686,363.600 15.514 C 363.600 15.341,363.407 15.200,363.172 15.200 C 362.669 15.200,359.133 12.846,358.706 12.226 C 358.544 11.992,358.409 11.963,358.406 12.162 C 358.403 12.361,358.040 12.198,357.600 11.800 C 357.160 11.402,356.800 11.196,356.800 11.343 C 356.800 11.490,356.073 11.151,355.185 10.591 C 354.297 10.030,353.416 9.667,353.227 9.783 C 353.038 9.900,352.784 9.736,352.663 9.420 C 352.541 9.103,351.803 8.724,351.021 8.578 C 350.239 8.431,349.600 8.151,349.600 7.955 C 349.600 7.760,349.150 7.600,348.600 7.600 C 348.050 7.600,347.600 7.420,347.600 7.200 C 347.600 6.980,347.150 6.800,346.600 6.800 C 346.050 6.800,345.600 6.620,345.600 6.400 C 345.600 6.180,345.060 6.000,344.400 6.000 C 343.740 6.000,343.200 5.820,343.200 5.600 C 343.200 5.380,342.840 5.200,342.400 5.200 C 341.960 5.200,341.600 5.020,341.600 4.800 C 341.600 4.580,341.071 4.400,340.424 4.400 C 339.777 4.400,339.136 4.220,339.000 4.000 C 338.864 3.780,338.223 3.600,337.576 3.600 C 336.929 3.600,336.400 3.420,336.400 3.200 C 336.400 2.980,335.680 2.800,334.800 2.800 C 333.920 2.800,333.200 2.654,333.200 2.475 C 333.200 2.296,332.349 2.105,331.309 2.052 C 330.269 1.998,329.324 1.817,329.209 1.649 C 329.094 1.482,328.011 1.296,326.802 1.237 C 325.593 1.179,324.487 0.940,324.343 0.708 C 324.076 0.275,298.437 -0.045,289.300 0.271 M357.663 27.372 C 358.197 27.906,358.873 29.301,359.166 30.472 C 359.795 32.992,360.838 34.266,362.550 34.608 C 365.364 35.169,366.429 35.696,367.007 36.813 C 368.571 39.838,366.630 43.200,363.319 43.200 C 361.450 43.200,359.807 44.869,359.205 47.378 C 357.929 52.697,350.800 53.182,350.800 47.949 C 350.800 45.369,348.752 43.200,346.314 43.200 C 344.497 43.199,342.000 40.806,342.000 39.067 C 342.000 37.144,344.417 34.800,346.400 34.800 C 348.523 34.800,350.800 32.520,350.800 30.394 C 350.800 27.031,355.328 25.037,357.663 27.372 M194.822 39.225 C 192.998 41.105,193.059 42.000,195.014 42.000 C 197.116 42.000,198.802 39.362,197.520 38.080 C 196.793 37.353,196.530 37.465,194.822 39.225 M36.093 67.600 C 35.818 68.040,35.698 68.400,35.825 68.400 C 36.125 68.400,37.200 67.327,37.200 67.029 C 37.200 66.520,36.562 66.849,36.093 67.600 M34.229 69.429 C 33.883 69.774,33.600 70.237,33.600 70.457 C 33.600 70.677,33.913 70.529,34.296 70.129 C 34.679 69.728,35.174 69.268,35.396 69.106 C 35.654 68.919,35.629 68.810,35.329 68.806 C 35.069 68.803,34.574 69.083,34.229 69.429 M31.937 74.300 C 31.706 75.408,31.774 76.800,32.060 76.800 C 32.247 76.800,32.400 76.170,32.400 75.400 C 32.400 74.166,32.109 73.475,31.937 74.300 M219.800 82.956 C 212.465 86.294,211.759 97.008,218.582 101.433 C 221.215 103.140,225.205 103.727,227.397 102.729 C 228.357 102.291,228.580 102.403,230.515 104.287 C 233.613 107.302,236.420 107.644,237.873 105.184 L 238.572 104.000 288.726 104.000 L 338.880 104.000 340.240 102.640 L 341.600 101.280 341.600 94.620 C 341.600 87.138,341.301 85.992,339.152 85.243 C 338.247 84.928,322.715 84.800,285.165 84.800 L 232.449 84.800 229.724 83.402 C 226.311 81.650,222.997 81.502,219.800 82.956 M92.583 86.002 C 85.244 87.043,83.102 97.387,89.380 101.470 C 95.281 105.309,102.448 101.321,102.487 94.177 C 102.516 88.843,98.123 85.217,92.583 86.002 M226.371 91.054 C 228.302 93.509,225.463 96.381,222.889 94.577 C 222.294 94.160,222.000 93.543,222.000 92.709 C 222.000 90.081,224.778 89.029,226.371 91.054 M100.678 144.838 C 103.194 146.056,104.800 148.624,104.800 151.429 C 104.800 153.400,104.511 154.373,102.759 158.300 C 101.361 161.433,100.517 163.348,96.021 173.600 C 93.561 179.210,91.090 184.790,90.531 186.000 C 89.972 187.210,89.226 188.920,88.874 189.800 C 88.521 190.680,87.924 192.030,87.546 192.800 C 86.572 194.785,86.735 194.833,94.030 194.710 L 100.600 194.600 100.844 186.400 C 101.137 176.529,101.260 175.918,103.403 173.776 C 106.332 170.847,110.136 170.419,113.326 172.661 C 116.417 174.834,116.574 175.417,116.800 185.589 L 117.000 194.578 119.212 194.989 C 128.722 196.755,128.782 208.665,119.292 210.576 L 117.000 211.037 117.142 226.619 C 117.237 236.965,117.135 243.003,116.839 244.590 C 115.558 251.466,107.840 253.907,103.116 248.931 C 100.881 246.577,100.800 245.831,100.800 227.573 L 100.800 210.846 86.500 210.723 C 70.577 210.586,70.836 210.628,68.476 207.766 C 66.017 204.783,65.951 202.399,68.188 197.433 C 68.692 196.315,71.393 190.180,74.191 183.800 C 76.989 177.420,79.689 171.300,80.191 170.200 C 80.694 169.100,81.382 167.570,81.722 166.800 C 82.061 166.030,82.982 164.004,83.769 162.298 C 84.556 160.592,85.200 159.103,85.200 158.990 C 85.200 158.876,85.887 157.302,86.727 155.491 C 87.567 153.681,88.602 151.327,89.027 150.260 C 91.281 144.605,95.827 142.489,100.678 144.838 M183.000 144.705 C 188.295 146.696,192.477 151.008,194.066 156.114 C 194.804 158.485,194.842 160.323,194.919 197.997 L 195.000 237.400 194.041 239.800 C 191.761 245.506,188.203 248.865,182.434 250.758 C 178.525 252.041,151.507 252.051,147.609 250.772 C 141.886 248.893,137.951 244.991,136.031 239.291 C 134.974 236.156,134.714 161.250,135.745 157.400 C 137.532 150.734,142.738 145.606,149.189 144.156 C 153.540 143.179,180.087 143.609,183.000 144.705 M237.999 144.799 C 242.182 146.933,243.053 151.498,240.405 157.400 C 239.714 158.940,238.909 160.740,238.617 161.400 C 238.325 162.060,237.617 163.640,237.043 164.912 C 236.469 166.183,236.000 167.292,236.000 167.376 C 236.000 167.460,235.389 168.850,234.641 170.464 C 233.894 172.079,231.712 177.000,229.793 181.400 C 227.874 185.800,225.876 190.350,225.352 191.512 C 223.778 195.004,223.462 194.834,231.300 194.709 L 238.200 194.600 238.400 185.600 C 238.627 175.401,238.779 174.837,241.905 172.640 C 245.412 170.175,250.009 171.088,252.600 174.764 L 253.800 176.466 254.000 185.524 L 254.200 194.583 256.200 194.899 C 265.920 196.440,266.137 208.642,256.479 210.576 L 254.200 211.033 254.097 228.416 C 253.985 247.261,254.000 247.130,251.728 249.254 C 248.191 252.561,243.240 252.339,240.211 248.740 C 238.186 246.334,238.200 246.472,238.200 228.200 L 238.200 211.000 223.800 210.800 C 207.645 210.576,208.018 210.644,205.442 207.460 C 202.978 204.416,203.308 202.040,207.506 192.600 C 209.463 188.200,211.384 183.880,211.774 183.000 C 212.164 182.120,212.819 180.680,213.229 179.800 C 213.639 178.920,214.679 176.580,215.541 174.600 C 216.403 172.620,217.557 170.010,218.107 168.800 C 218.656 167.590,220.959 162.370,223.225 157.200 C 229.029 143.955,231.794 141.634,237.999 144.799 M151.344 160.630 C 150.719 161.583,150.689 164.099,150.934 194.530 C 151.079 212.608,151.199 228.962,151.199 230.871 C 151.200 235.969,150.117 235.601,165.129 235.594 C 172.412 235.590,178.055 235.427,178.400 235.209 C 179.346 234.611,179.523 161.180,178.581 160.239 C 178.023 159.680,176.317 159.600,164.981 159.600 L 152.018 159.600 151.344 160.630 M330.974 182.390 C 334.486 183.726,334.833 194.944,331.412 196.568 C 329.377 197.533,283.800 197.522,281.763 196.556 C 279.019 195.253,278.547 185.454,281.118 183.157 L 282.413 182.000 306.180 182.000 C 320.652 182.000,330.349 182.153,330.974 182.390 M325.631 212.769 C 327.690 214.829,327.042 217.866,324.281 219.100 C 322.762 219.779,283.585 219.826,282.274 219.150 C 279.296 217.617,278.653 214.886,280.769 212.769 L 281.938 211.600 303.200 211.600 L 324.462 211.600 325.631 212.769 M325.569 226.236 C 328.009 228.288,326.799 232.300,323.544 232.951 C 321.921 233.276,284.479 233.276,282.856 232.951 C 279.601 232.300,278.391 228.288,280.831 226.236 L 282.061 225.200 303.200 225.200 L 324.339 225.200 325.569 226.236 M21.594 331.100 C 21.579 331.811,20.895 332.478,20.626 332.043 C 20.476 331.799,20.464 331.420,20.600 331.200 C 20.888 330.733,21.603 330.662,21.594 331.100 M29.923 348.430 C 29.845 348.667,29.609 348.860,29.400 348.860 C 29.191 348.860,28.956 348.667,28.877 348.430 C 28.798 348.194,29.033 348.000,29.400 348.000 C 29.767 348.000,30.002 348.194,29.923 348.430 M31.947 350.358 C 30.883 351.704,30.400 351.897,30.400 350.976 C 30.400 350.633,30.569 350.457,30.775 350.585 C 30.981 350.712,31.476 350.380,31.875 349.847 C 32.274 349.314,32.666 348.942,32.747 349.019 C 32.828 349.097,32.468 349.699,31.947 350.358 M33.200 351.533 C 33.200 352.054,32.724 352.401,32.338 352.161 C 31.924 351.906,32.281 351.200,32.824 351.200 C 33.031 351.200,33.200 351.350,33.200 351.533 " stroke="none" fill="#fbdcec" fill-rule="evenodd"></path><path id="path2" d="M358.856 30.400 C 358.856 30.730,359.011 31.360,359.200 31.800 C 359.417 32.304,359.544 32.378,359.544 32.000 C 359.544 31.670,359.389 31.040,359.200 30.600 C 358.983 30.096,358.856 30.022,358.856 30.400 M204.018 32.600 C 204.042 33.225,205.564 35.861,205.583 35.310 C 205.592 35.040,205.241 34.230,204.801 33.510 C 204.362 32.789,204.010 32.380,204.018 32.600 M348.600 34.027 C 347.940 34.450,346.860 34.824,346.200 34.858 C 345.028 34.918,345.025 34.924,346.073 35.084 C 347.137 35.246,349.319 34.379,349.798 33.603 C 350.122 33.079,350.029 33.112,348.600 34.027 M362.000 34.794 C 362.330 35.011,363.035 35.191,363.567 35.194 C 364.851 35.202,364.525 34.975,362.800 34.658 C 361.815 34.477,361.578 34.518,362.000 34.794 M343.544 35.966 C 343.025 36.387,342.690 36.801,342.800 36.887 C 342.910 36.973,343.434 36.629,343.963 36.122 C 345.130 35.006,344.855 34.903,343.544 35.966 M365.600 35.717 C 365.930 36.003,366.447 36.498,366.749 36.818 C 367.219 37.316,367.235 37.277,366.860 36.547 C 366.619 36.078,366.102 35.583,365.711 35.446 C 365.092 35.230,365.078 35.265,365.600 35.717 M205.777 38.711 C 205.790 40.257,205.932 41.315,206.094 41.061 C 206.466 40.477,206.437 37.638,206.049 36.649 C 205.882 36.223,205.764 37.116,205.777 38.711 M197.500 38.056 C 198.224 38.786,198.117 39.732,197.161 41.046 L 196.322 42.200 197.361 41.078 C 198.558 39.785,198.722 38.208,197.700 37.819 C 197.139 37.605,197.099 37.652,197.500 38.056 M342.267 37.867 C 341.904 38.230,341.928 39.908,342.300 40.138 C 342.465 40.240,342.600 39.711,342.600 38.962 C 342.600 38.213,342.585 37.600,342.567 37.600 C 342.548 37.600,342.413 37.720,342.267 37.867 M367.301 39.000 C 367.305 39.880,367.387 40.193,367.483 39.695 C 367.579 39.198,367.575 38.478,367.475 38.095 C 367.375 37.713,367.296 38.120,367.301 39.000 M344.316 42.626 C 344.808 42.971,345.702 43.178,346.305 43.086 C 347.337 42.929,347.326 42.916,346.124 42.860 C 345.422 42.827,344.736 42.620,344.600 42.400 C 344.464 42.180,344.143 42.000,343.887 42.000 C 343.631 42.000,343.824 42.282,344.316 42.626 M365.487 42.246 C 365.351 42.382,364.646 42.633,363.920 42.805 C 362.827 43.064,362.772 43.123,363.600 43.145 C 364.150 43.160,365.050 42.914,365.600 42.600 C 366.150 42.286,366.405 42.022,366.167 42.014 C 365.928 42.006,365.622 42.111,365.487 42.246 M204.661 43.900 L 203.974 45.400 204.778 44.400 C 205.471 43.538,205.867 42.400,205.474 42.400 C 205.405 42.400,205.039 43.075,204.661 43.900 M360.522 44.229 L 359.400 45.258 360.700 44.354 C 361.415 43.857,362.000 43.393,362.000 43.325 C 362.000 43.009,361.558 43.280,360.522 44.229 M202.372 46.911 C 201.587 47.620,200.597 48.428,200.172 48.706 C 199.747 48.984,199.940 48.955,200.600 48.641 C 201.260 48.328,202.329 47.515,202.975 46.836 C 204.499 45.233,204.188 45.271,202.372 46.911 M359.073 46.153 C 358.923 46.545,358.811 47.166,358.825 47.533 C 358.842 47.975,358.981 47.874,359.237 47.234 C 359.449 46.703,359.561 46.082,359.485 45.854 C 359.409 45.627,359.224 45.761,359.073 46.153 M350.828 48.276 C 350.813 48.758,350.980 49.264,351.200 49.400 C 351.673 49.692,351.673 49.301,351.200 48.200 C 350.869 47.429,350.855 47.431,350.828 48.276 M205.800 65.897 C 271.477 66.164,359.076 66.170,358.662 65.906 C 358.408 65.744,318.240 65.653,269.400 65.703 C 220.560 65.753,191.940 65.840,205.800 65.897 M367.200 97.680 C 367.090 109.714,367.137 119.424,367.304 119.257 C 367.470 119.090,367.560 109.244,367.503 97.376 L 367.400 75.800 367.200 97.680 M31.600 98.000 C 31.600 111.867,31.738 119.200,32.000 119.200 C 32.262 119.200,32.400 111.867,32.400 98.000 C 32.400 84.133,32.262 76.800,32.000 76.800 C 31.738 76.800,31.600 84.133,31.600 98.000 M116.739 86.752 C 114.960 87.881,112.903 90.236,113.327 90.660 C 113.445 90.778,113.829 90.317,114.182 89.635 C 114.965 88.120,117.524 86.368,119.520 85.980 C 120.936 85.704,120.947 85.690,119.778 85.646 C 119.055 85.619,117.816 86.070,116.739 86.752 M122.800 85.972 C 123.570 86.126,124.605 86.472,125.100 86.740 C 125.595 87.008,125.999 87.087,125.997 86.914 C 125.992 86.381,123.906 85.598,122.620 85.646 L 121.400 85.692 122.800 85.972 M127.625 88.631 C 128.381 89.528,129.081 90.197,129.180 90.117 C 129.279 90.038,128.660 89.304,127.805 88.487 L 126.250 87.000 127.625 88.631 M129.463 92.080 C 129.800 93.849,130.000 94.001,130.000 92.490 C 130.000 91.807,129.823 91.138,129.606 91.004 C 129.360 90.852,129.306 91.255,129.463 92.080 M112.673 91.753 C 112.523 92.145,112.411 92.766,112.425 93.133 C 112.442 93.575,112.581 93.474,112.837 92.834 C 113.049 92.303,113.161 91.682,113.085 91.454 C 113.009 91.227,112.824 91.361,112.673 91.753 M112.446 95.600 C 112.427 96.150,112.587 96.870,112.800 97.200 C 113.294 97.964,113.294 97.142,112.800 95.600 L 112.480 94.600 112.446 95.600 M129.660 95.867 C 129.627 96.344,129.484 97.064,129.341 97.467 C 129.142 98.031,129.195 98.096,129.572 97.749 C 129.842 97.501,129.985 96.781,129.891 96.149 C 129.770 95.339,129.702 95.256,129.660 95.867 M113.200 98.411 C 113.200 98.990,116.677 102.400,117.267 102.400 C 117.536 102.400,117.144 101.949,116.397 101.398 C 115.649 100.846,114.697 99.856,114.280 99.198 C 113.482 97.937,113.200 97.732,113.200 98.411 M127.600 100.073 C 126.640 101.166,125.509 101.903,124.000 102.420 C 122.790 102.835,122.160 103.176,122.600 103.178 C 124.412 103.188,129.935 99.379,129.173 98.646 C 129.078 98.555,128.370 99.197,127.600 100.073 M118.400 102.800 C 118.730 103.013,119.360 103.178,119.800 103.166 L 120.600 103.144 119.800 102.800 C 118.604 102.286,117.605 102.286,118.400 102.800 M158.100 143.899 C 162.005 143.965,168.395 143.965,172.300 143.899 C 176.205 143.834,173.010 143.780,165.200 143.780 C 157.390 143.780,154.195 143.834,158.100 143.899 M100.799 187.281 C 100.690 191.395,100.739 194.622,100.910 194.451 C 101.080 194.281,101.169 190.914,101.109 186.970 L 100.998 179.800 100.799 187.281 M281.118 183.157 C 278.547 185.454,279.019 195.253,281.763 196.556 C 283.800 197.522,329.377 197.533,331.412 196.568 C 334.833 194.944,334.486 183.726,330.974 182.390 C 330.349 182.153,320.652 182.000,306.180 182.000 L 282.413 182.000 281.118 183.157 M194.893 184.400 C 194.893 185.170,194.975 185.485,195.076 185.100 C 195.176 184.715,195.176 184.085,195.076 183.700 C 194.975 183.315,194.893 183.630,194.893 184.400 M194.988 210.800 C 194.988 224.330,195.038 229.865,195.100 223.100 C 195.161 216.335,195.161 205.265,195.100 198.500 C 195.038 191.735,194.988 197.270,194.988 210.800 M66.493 202.800 C 66.493 203.570,66.575 203.885,66.676 203.500 C 66.776 203.115,66.776 202.485,66.676 202.100 C 66.575 201.715,66.493 202.030,66.493 202.800 M150.980 220.400 C 150.980 227.990,151.034 231.095,151.099 227.300 C 151.165 223.505,151.165 217.295,151.099 213.500 C 151.034 209.705,150.980 212.810,150.980 220.400 M80.074 210.699 C 83.745 210.765,89.865 210.765,93.674 210.699 C 97.483 210.634,94.480 210.580,87.000 210.580 C 79.520 210.579,76.403 210.633,80.074 210.699 M217.500 210.699 C 221.295 210.765,227.505 210.765,231.300 210.699 C 235.095 210.634,231.990 210.580,224.400 210.580 C 216.810 210.580,213.705 210.634,217.500 210.699 M100.983 228.000 C 100.983 237.350,101.036 241.175,101.100 236.500 C 101.164 231.825,101.164 224.175,101.100 219.500 C 101.036 214.825,100.983 218.650,100.983 228.000 M280.769 212.769 C 278.653 214.886,279.296 217.617,282.274 219.150 C 283.585 219.826,322.762 219.779,324.281 219.100 C 327.042 217.866,327.690 214.829,325.631 212.769 L 324.462 211.600 303.200 211.600 L 281.938 211.600 280.769 212.769 M280.831 226.236 C 278.391 228.288,279.601 232.300,282.856 232.951 C 284.479 233.276,321.921 233.276,323.544 232.951 C 326.799 232.300,328.009 228.288,325.569 226.236 L 324.339 225.200 303.200 225.200 L 282.061 225.200 280.831 226.236 M116.970 235.000 C 116.971 239.840,117.029 241.765,117.099 239.278 C 117.169 236.791,117.169 232.831,117.098 230.478 C 117.028 228.125,116.970 230.160,116.970 235.000 M238.160 238.200 C 238.161 241.500,238.222 242.797,238.298 241.082 C 238.373 239.367,238.372 236.667,238.297 235.082 C 238.221 233.497,238.159 234.900,238.160 238.200 M139.200 245.325 C 139.200 245.394,139.785 245.979,140.500 246.625 L 141.800 247.800 140.625 246.500 C 139.530 245.288,139.200 245.016,139.200 245.325 M32.080 274.480 C 31.415 275.145,31.386 324.232,32.051 325.881 C 33.678 329.924,36.091 333.200,37.440 333.200 C 37.748 333.200,38.000 333.380,38.000 333.600 C 38.000 333.820,38.349 334.000,38.776 334.000 C 39.203 334.000,39.664 334.180,39.800 334.400 C 39.936 334.620,40.746 334.800,41.600 334.800 C 42.454 334.800,43.263 334.979,43.398 335.197 C 43.549 335.441,45.523 335.524,48.522 335.412 C 57.798 335.067,237.117 334.742,237.320 335.071 C 237.881 335.977,360.400 335.266,360.400 334.356 C 360.400 334.160,360.760 334.000,361.200 334.000 C 361.640 334.000,362.000 333.820,362.000 333.600 C 362.000 333.380,362.288 333.200,362.639 333.200 C 363.265 333.200,365.972 330.515,365.991 329.876 C 365.996 329.698,366.211 329.683,366.468 329.842 C 366.785 330.038,366.852 329.911,366.675 329.450 C 366.523 329.056,366.628 328.688,366.922 328.574 C 367.202 328.467,367.475 327.802,367.529 327.096 C 367.583 326.390,367.801 325.639,368.013 325.427 C 368.868 324.572,368.497 300.728,367.631 300.872 C 366.809 301.009,333.600 333.727,333.600 334.400 C 333.600 334.663,324.279 334.800,306.400 334.800 C 286.246 334.800,279.200 334.681,279.200 334.342 C 279.200 334.090,290.855 322.205,305.100 307.929 C 319.345 293.653,332.580 280.351,334.511 278.369 L 338.022 274.764 353.211 274.882 C 363.212 274.960,368.355 274.863,368.267 274.600 C 368.057 273.972,32.708 273.852,32.080 274.480 M67.936 275.300 C 67.850 275.979,33.556 309.921,32.800 310.077 C 32.056 310.229,31.844 275.632,32.586 275.106 C 33.369 274.550,68.008 274.740,67.936 275.300 M176.155 275.088 C 176.313 275.246,163.068 288.647,146.721 304.868 L 117.000 334.359 89.900 334.380 C 74.995 334.391,62.801 334.265,62.801 334.100 C 62.802 333.935,73.017 323.582,85.501 311.092 C 97.986 298.603,111.170 285.339,114.800 281.617 L 121.400 274.849 148.633 274.825 C 163.612 274.811,175.996 274.930,176.155 275.088 M284.400 275.118 C 284.400 275.375,262.160 297.682,230.646 329.036 C 228.194 331.475,225.797 333.680,225.320 333.936 C 224.265 334.500,171.053 334.611,171.267 334.049 C 171.340 333.856,184.530 320.446,200.579 304.249 L 229.757 274.800 257.079 274.800 C 272.105 274.800,284.400 274.943,284.400 275.118 M20.694 331.039 C 20.563 331.171,20.558 331.546,20.683 331.873 C 20.869 332.357,20.974 332.368,21.250 331.934 C 21.839 331.003,21.414 330.319,20.694 331.039 M32.217 351.572 C 31.944 352.014,32.575 352.492,32.944 352.122 C 33.325 351.742,33.254 351.200,32.824 351.200 C 32.617 351.200,32.344 351.368,32.217 351.572 M44.752 353.513 C 44.621 354.307,44.679 354.681,44.901 354.459 C 45.103 354.257,45.201 353.667,45.119 353.146 C 44.993 352.345,44.937 352.402,44.752 353.513 " stroke="none" fill="#d295d9" fill-rule="evenodd"></path><path id="path3" d="M353.213 27.101 C 352.085 27.669,351.721 28.174,351.265 29.800 C 350.168 33.711,348.763 35.195,346.158 35.199 C 340.827 35.205,341.543 42.104,346.968 43.002 C 349.065 43.349,350.474 44.932,351.097 47.640 C 352.286 52.806,358.800 52.686,358.800 47.497 C 358.800 45.215,360.941 43.381,364.489 42.623 C 368.498 41.767,367.893 35.200,363.805 35.200 C 361.815 35.200,359.896 33.681,359.241 31.587 C 358.074 27.855,357.870 27.505,356.544 26.951 C 354.887 26.259,354.883 26.259,353.213 27.101 M355.683 27.300 C 357.589 28.392,358.400 29.527,358.400 31.104 C 358.400 33.159,360.522 35.600,362.308 35.600 C 364.525 35.600,366.761 37.298,366.787 39.000 C 366.804 40.115,365.083 42.000,364.048 42.000 C 363.576 42.000,362.877 42.159,362.495 42.353 C 362.113 42.548,361.277 42.953,360.637 43.253 C 359.997 43.554,359.391 44.115,359.290 44.500 C 359.189 44.885,358.948 45.200,358.753 45.200 C 358.559 45.200,358.400 45.875,358.400 46.700 C 358.399 48.863,356.980 50.400,354.985 50.400 C 352.957 50.400,352.000 49.482,352.000 47.538 C 352.000 46.692,351.820 46.000,351.600 46.000 C 351.380 46.000,351.200 45.722,351.200 45.382 C 351.200 44.410,349.341 42.800,348.218 42.800 C 347.658 42.800,347.200 42.620,347.200 42.400 C 347.200 42.180,346.742 42.000,346.182 42.000 C 344.753 42.000,343.200 40.328,343.200 38.790 C 343.200 37.439,343.970 36.400,344.971 36.400 C 345.317 36.400,345.600 36.220,345.600 36.000 C 345.600 35.780,346.320 35.600,347.200 35.600 C 348.080 35.600,348.800 35.463,348.800 35.295 C 348.800 35.127,349.190 34.812,349.667 34.595 C 350.144 34.378,350.656 33.930,350.805 33.600 C 350.954 33.270,351.284 32.597,351.538 32.105 C 351.792 31.613,352.000 30.656,352.000 29.977 C 352.000 28.738,352.363 28.208,353.817 27.324 C 354.814 26.717,354.669 26.719,355.683 27.300 M32.586 275.106 C 31.844 275.632,32.056 310.229,32.800 310.077 C 33.556 309.921,67.850 275.979,67.936 275.300 C 68.008 274.740,33.369 274.550,32.586 275.106 M114.800 281.617 C 111.170 285.339,97.986 298.603,85.501 311.092 C 73.017 323.582,62.802 333.935,62.801 334.100 C 62.801 334.265,74.995 334.391,89.900 334.380 L 117.000 334.359 146.721 304.868 C 163.068 288.647,176.313 275.246,176.155 275.088 C 175.996 274.930,163.612 274.811,148.633 274.825 L 121.400 274.849 114.800 281.617 M200.579 304.249 C 184.530 320.446,171.340 333.856,171.267 334.049 C 171.053 334.611,224.265 334.500,225.320 333.936 C 225.797 333.680,228.194 331.475,230.646 329.036 C 262.160 297.682,284.400 275.375,284.400 275.118 C 284.400 274.943,272.105 274.800,257.079 274.800 L 229.757 274.800 200.579 304.249 M334.400 278.418 C 332.530 280.374,319.345 293.654,305.100 307.929 C 290.855 322.205,279.200 334.090,279.200 334.342 C 279.200 334.681,286.246 334.800,306.400 334.800 C 324.279 334.800,333.600 334.663,333.600 334.400 C 333.600 333.727,366.809 301.009,367.631 300.872 C 368.371 300.749,368.400 300.261,368.400 288.019 L 368.400 275.293 367.500 275.052 C 367.005 274.919,360.120 274.823,352.200 274.837 L 337.800 274.862 334.400 278.418 M248.500 335.500 C 253.945 335.563,262.855 335.563,268.300 335.500 C 273.745 335.437,269.290 335.385,258.400 335.385 C 247.510 335.385,243.055 335.437,248.500 335.500 M339.524 335.499 C 342.673 335.567,347.713 335.567,350.724 335.499 C 353.736 335.431,351.160 335.376,345.000 335.376 C 338.840 335.376,336.376 335.432,339.524 335.499 M337.700 359.065 C 337.035 359.333,337.059 360.000,337.733 360.000 C 338.027 360.000,338.267 359.730,338.267 359.400 C 338.267 359.070,338.252 358.814,338.233 358.832 C 338.215 358.849,337.975 358.954,337.700 359.065 " stroke="none" fill="#a774d8" fill-rule="evenodd"></path><path id="path4" d="M153.300 27.339 C 152.585 27.574,152.000 27.908,152.000 28.083 C 152.000 28.257,151.706 28.400,151.347 28.400 C 150.988 28.400,150.403 28.727,150.047 29.128 C 149.691 29.528,149.085 29.972,148.700 30.115 C 148.315 30.258,148.000 30.611,148.000 30.899 C 148.000 31.187,147.640 31.683,147.200 32.000 C 146.760 32.317,146.400 32.897,146.400 33.288 C 146.400 33.680,146.220 34.000,146.000 34.000 C 145.780 34.000,145.600 34.504,145.600 35.120 C 145.600 35.736,145.401 36.439,145.159 36.681 C 144.522 37.318,145.330 44.000,146.044 44.000 C 146.240 44.000,146.400 44.274,146.400 44.609 C 146.400 45.401,150.599 49.600,151.391 49.600 C 151.726 49.600,152.000 49.780,152.000 50.000 C 152.000 50.220,152.709 50.400,153.576 50.400 C 154.443 50.400,155.264 50.580,155.400 50.800 C 155.536 51.020,156.357 51.200,157.224 51.200 C 158.091 51.200,158.800 51.020,158.800 50.800 C 158.800 50.580,159.520 50.400,160.400 50.400 C 161.280 50.400,162.000 50.220,162.000 50.000 C 162.000 49.780,162.282 49.600,162.626 49.600 C 163.441 49.600,167.600 45.441,167.600 44.626 C 167.600 44.282,167.780 44.000,168.000 44.000 C 168.220 44.000,168.400 43.460,168.400 42.800 C 168.400 42.140,168.580 41.600,168.800 41.600 C 169.025 41.600,169.200 40.475,169.200 39.024 C 169.200 37.607,169.020 36.336,168.800 36.200 C 168.580 36.064,168.400 35.513,168.400 34.976 C 168.400 34.439,168.220 34.000,168.000 34.000 C 167.780 34.000,167.600 33.640,167.600 33.200 C 167.600 32.760,167.464 32.400,167.298 32.400 C 167.131 32.400,166.761 31.870,166.474 31.223 C 166.188 30.576,165.424 29.812,164.777 29.526 C 164.130 29.239,163.600 28.890,163.600 28.749 C 163.600 28.608,163.285 28.389,162.900 28.261 C 162.515 28.133,161.480 27.755,160.600 27.420 C 158.800 26.736,155.258 26.697,153.300 27.339 M353.817 27.324 C 352.363 28.208,352.000 28.738,352.000 29.977 C 352.000 30.656,351.792 31.613,351.538 32.105 C 351.284 32.597,350.954 33.270,350.805 33.600 C 350.656 33.930,350.144 34.378,349.667 34.595 C 349.190 34.812,348.800 35.127,348.800 35.295 C 348.800 35.463,348.080 35.600,347.200 35.600 C 346.320 35.600,345.600 35.780,345.600 36.000 C 345.600 36.220,345.317 36.400,344.971 36.400 C 343.970 36.400,343.200 37.439,343.200 38.790 C 343.200 40.328,344.753 42.000,346.182 42.000 C 346.742 42.000,347.200 42.180,347.200 42.400 C 347.200 42.620,347.658 42.800,348.218 42.800 C 349.341 42.800,351.200 44.410,351.200 45.382 C 351.200 45.722,351.380 46.000,351.600 46.000 C 351.820 46.000,352.000 46.692,352.000 47.538 C 352.000 49.482,352.957 50.400,354.985 50.400 C 356.980 50.400,358.399 48.863,358.400 46.700 C 358.400 45.875,358.559 45.200,358.753 45.200 C 358.948 45.200,359.189 44.885,359.290 44.500 C 359.391 44.115,359.997 43.554,360.637 43.253 C 361.277 42.953,362.113 42.548,362.495 42.353 C 362.877 42.159,363.576 42.000,364.048 42.000 C 365.083 42.000,366.804 40.115,366.787 39.000 C 366.761 37.298,364.525 35.600,362.308 35.600 C 360.522 35.600,358.400 33.159,358.400 31.104 C 358.400 29.527,357.589 28.392,355.683 27.300 C 354.669 26.719,354.814 26.717,353.817 27.324 M158.919 37.675 C 160.420 39.692,158.534 42.088,156.157 41.184 C 155.631 40.984,155.200 40.560,155.200 40.243 C 155.200 39.926,154.995 39.598,154.746 39.515 C 154.422 39.407,154.450 39.084,154.846 38.390 C 156.118 36.154,157.595 35.895,158.919 37.675 M117.560 86.796 C 109.044 91.297,113.022 103.882,122.561 102.616 C 132.744 101.266,131.491 85.999,121.200 86.029 C 119.820 86.033,118.464 86.319,117.560 86.796 M17.400 330.400 C 17.264 330.620,17.276 330.999,17.426 331.243 C 17.695 331.678,18.379 331.011,18.394 330.300 C 18.403 329.862,17.688 329.933,17.400 330.400 M19.784 334.427 C 19.639 334.661,19.616 334.949,19.733 335.067 C 20.020 335.353,20.800 334.848,20.800 334.376 C 20.800 333.865,20.109 333.899,19.784 334.427 M23.017 339.972 C 22.744 340.414,23.375 340.892,23.744 340.522 C 24.125 340.142,24.054 339.600,23.624 339.600 C 23.417 339.600,23.144 339.768,23.017 339.972 M25.677 345.230 C 25.756 345.466,25.991 345.660,26.200 345.660 C 26.409 345.660,26.645 345.466,26.723 345.230 C 26.802 344.994,26.567 344.800,26.200 344.800 C 25.833 344.800,25.598 344.994,25.677 345.230 M347.692 348.610 C 347.412 348.926,347.202 349.303,347.226 349.447 C 347.249 349.592,347.028 349.863,346.734 350.049 C 346.353 350.291,346.340 350.390,346.687 350.394 C 346.960 350.397,347.071 350.670,346.940 351.012 C 346.737 351.541,346.632 351.527,346.165 350.912 C 345.690 350.285,345.624 350.451,345.613 352.300 C 345.605 353.572,345.424 354.400,345.153 354.400 C 344.904 354.400,344.799 354.753,344.916 355.200 C 345.117 355.968,344.810 356.175,343.691 356.028 C 343.411 355.991,342.902 356.241,342.559 356.584 C 342.216 356.927,341.785 357.115,341.602 357.001 C 341.418 356.888,341.177 357.021,341.066 357.298 C 340.905 357.697,340.857 357.697,340.832 357.300 C 340.796 356.741,339.600 356.598,339.600 357.153 C 339.600 357.348,339.234 357.602,338.786 357.720 C 338.162 357.883,338.016 358.174,338.160 358.966 C 338.283 359.649,338.168 360.000,337.821 360.000 C 336.897 360.000,337.107 363.225,338.085 364.074 C 338.546 364.473,339.154 364.800,339.438 364.800 C 339.721 364.800,340.081 365.008,340.238 365.262 C 340.415 365.548,340.348 365.615,340.062 365.438 C 339.808 365.281,339.600 365.343,339.600 365.576 C 339.600 365.820,340.479 366.000,341.667 366.000 C 342.803 366.000,343.629 366.104,343.503 366.231 C 343.376 366.358,343.796 366.962,344.436 367.574 C 345.331 368.430,345.600 369.046,345.600 370.243 C 345.601 372.609,348.376 375.412,349.597 374.281 C 350.004 373.905,350.056 373.909,349.835 374.300 C 349.662 374.607,349.794 374.800,350.176 374.800 C 350.519 374.800,350.800 374.584,350.800 374.320 C 350.800 373.965,350.917 373.957,351.249 374.289 C 351.838 374.878,353.713 374.072,353.436 373.349 C 353.324 373.058,353.457 372.924,353.745 373.034 C 354.493 373.321,355.182 371.631,355.085 369.751 C 355.019 368.466,355.126 368.150,355.569 368.320 C 355.971 368.474,356.064 368.343,355.884 367.874 C 355.744 367.509,355.757 367.236,355.914 367.268 C 356.529 367.395,357.582 366.694,357.348 366.315 C 357.195 366.068,356.955 366.122,356.720 366.457 C 356.408 366.902,356.367 366.895,356.496 366.420 C 356.613 365.988,357.186 365.867,358.726 365.949 C 360.687 366.053,362.382 365.315,361.714 364.648 C 361.578 364.511,361.690 364.400,361.962 364.400 C 362.883 364.400,363.600 363.264,363.600 361.805 C 363.600 360.939,363.439 360.453,363.200 360.600 C 362.980 360.736,362.800 360.672,362.800 360.457 C 362.800 360.242,362.984 360.005,363.208 359.931 C 363.957 359.681,362.680 357.552,361.900 357.749 C 361.482 357.854,361.200 357.699,361.200 357.363 C 361.200 356.973,360.708 356.800,359.600 356.800 C 358.720 356.800,358.000 356.620,358.000 356.400 C 358.000 356.180,357.770 356.000,357.488 356.000 C 357.207 356.000,356.722 355.647,356.411 355.215 C 355.988 354.628,355.714 354.540,355.323 354.864 C 354.783 355.312,354.570 354.763,355.084 354.250 C 355.819 353.514,355.106 350.717,353.854 349.428 C 352.396 347.927,348.728 347.440,347.692 348.610 M30.400 351.067 C 30.400 351.360,30.561 351.600,30.757 351.600 C 30.954 351.600,31.207 351.360,31.319 351.067 C 31.432 350.773,31.271 350.533,30.962 350.533 C 30.653 350.533,30.400 350.773,30.400 351.067 M32.639 354.738 C 32.500 354.961,32.582 355.265,32.820 355.412 C 33.435 355.793,33.832 355.272,33.318 354.758 C 33.031 354.471,32.807 354.464,32.639 354.738 " stroke="none" fill="#39b7d4" fill-rule="evenodd"></path></g></svg>